M48
;DRILL file {KiCad 0.201508280901+6131~28~ubuntu14.04.1-product} date Tue 03 Nov 2015 05:07:07 PM COT
;FORMAT={-:-/ absolute / metric / decimal}
FMAT,2
METRIC,TZ
T1C0.400
T2C1.000
T3C1.001
T4C1.016
T5C1.100
T6C1.900
T7C2.200
T8C3.200
%
G90
G05
M71
T1
X93.345Y-113.538
X94.361Y-128.651
X96.901Y-131.191
X101.981Y-72.644
X107.823Y-113.538
X108.204Y-72.644
X109.982Y-93.091
X109.982Y-143.383
X111.633Y-130.429
X112.268Y-143.637
X113.284Y-140.335
X115.443Y-139.446
X115.57Y-127.889
X116.332Y-85.344
X116.84Y-129.032
X117.856Y-143.637
X118.11Y-83.566
X118.872Y-123.19
X119.888Y-91.44
X120.65Y-115.189
X120.904Y-74.295
X122.555Y-109.474
X122.809Y-68.58
X123.317Y-125.095
X124.968Y-90.551
X125.349Y-109.093
X126.746Y-90.551
X127.Y-130.429
X127.381Y-132.969
X128.905Y-140.843
X129.921Y-125.984
X130.048Y-63.754
X130.048Y-87.249
X130.302Y-127.127
X132.334Y-119.38
X132.588Y-120.523
X132.842Y-73.025
X133.477Y-58.42
X134.493Y-140.335
X134.874Y-114.046
X135.001Y-111.506
X135.128Y-115.189
X135.382Y-74.295
X135.382Y-75.692
X135.382Y-83.185
X136.144Y-128.524
X136.906Y-116.967
X137.033Y-109.474
X137.033Y-139.446
X137.795Y-125.222
X138.049Y-128.524
X138.303Y-138.557
X139.827Y-109.093
X142.748Y-90.551
X144.399Y-127.381
X144.653Y-140.335
X145.034Y-121.158
X145.161Y-138.43
X145.796Y-133.096
X145.923Y-96.774
X146.304Y-142.875
X146.558Y-137.033
X146.939Y-115.316
X147.066Y-78.486
X147.193Y-120.396
X147.447Y-136.144
X147.955Y-138.43
X149.352Y-137.033
X149.733Y-115.189
X149.86Y-74.295
X150.876Y-145.288
X151.511Y-109.474
X152.273Y-125.222
X154.559Y-136.144
X154.94Y-137.287
X156.083Y-99.949
X158.877Y-104.521
X159.512Y-121.158
X159.766Y-132.461
X160.782Y-137.287
X161.544Y-78.486
X161.671Y-120.396
X164.084Y-117.983
X164.211Y-115.189
X164.338Y-74.295
X164.846Y-128.524
X165.227Y-121.158
X166.497Y-102.616
X169.164Y-99.949
X171.577Y-90.551
X172.466Y-121.412
X174.117Y-121.158
X174.244Y-87.884
X175.895Y-113.919
X175.895Y-115.316
X175.895Y-119.38
X176.022Y-82.804
X178.689Y-115.189
X178.689Y-133.858
X178.816Y-74.295
X180.594Y-109.474
X180.848Y-133.096
X181.737Y-113.538
X187.96Y-104.521
X188.087Y-102.997
X188.595Y-121.158
X188.722Y-113.538
X189.484Y-104.394
X190.5Y-119.761
X195.072Y-72.644
X195.834Y-103.505
X199.39Y-99.949
X202.692Y-89.027
X204.089Y-87.63
T3
X92.474Y-58.644
X92.728Y-90.14
X92.728Y-99.538
X92.728Y-130.78
X96.492Y-104.528
X96.492Y-126.028
X96.538Y-63.724
X96.538Y-85.06
X99.032Y-104.528
X99.032Y-126.028
X99.078Y-63.724
X99.078Y-85.06
X102.634Y-58.644
X102.888Y-90.14
X102.888Y-99.538
X102.888Y-130.78
X106.698Y-90.14
X106.952Y-58.644
X106.952Y-130.78
X107.206Y-99.538
X111.008Y-104.528
X111.008Y-126.028
X111.016Y-63.724
X111.016Y-85.314
X113.548Y-104.528
X113.548Y-126.028
X113.556Y-63.724
X113.556Y-85.314
X116.858Y-90.14
X117.112Y-58.644
X117.112Y-130.78
X117.366Y-99.538
X121.43Y-58.644
X121.43Y-90.14
X121.43Y-130.78
X121.684Y-99.538
X125.27Y-104.528
X125.27Y-126.028
X125.494Y-63.724
X125.494Y-85.314
X127.81Y-104.528
X127.81Y-126.028
X128.034Y-63.724
X128.034Y-85.314
X131.59Y-58.644
X131.59Y-90.14
X131.59Y-130.78
X131.844Y-99.538
X135.908Y-58.644
X135.908Y-99.538
X135.908Y-130.78
X136.162Y-90.14
X139.786Y-104.528
X139.786Y-126.028
X139.972Y-63.724
X139.972Y-85.314
X142.326Y-104.528
X142.326Y-126.028
X142.512Y-63.724
X142.512Y-85.314
X146.068Y-58.644
X146.068Y-99.538
X146.068Y-130.78
X146.322Y-90.14
X150.386Y-58.644
X150.386Y-99.538
X150.386Y-130.78
X150.64Y-90.14
X154.302Y-104.528
X154.302Y-126.028
X154.45Y-63.724
X154.45Y-85.314
X156.842Y-104.528
X156.842Y-126.028
X156.99Y-63.724
X156.99Y-85.314
X160.546Y-58.644
X160.546Y-99.538
X160.546Y-130.78
X160.8Y-90.14
X164.864Y-58.644
X164.864Y-90.14
X164.864Y-99.538
X164.864Y-130.78
X168.818Y-104.528
X168.818Y-126.028
X168.928Y-63.724
X168.928Y-85.314
X171.358Y-104.528
X171.358Y-126.028
X171.468Y-63.724
X171.468Y-85.314
X175.024Y-58.644
X175.024Y-90.14
X175.024Y-99.538
X175.024Y-130.78
X179.342Y-58.644
X179.342Y-99.538
X179.342Y-130.78
X179.596Y-90.14
X183.334Y-104.528
X183.334Y-126.028
X183.406Y-63.724
X183.406Y-85.314
X185.874Y-104.528
X185.874Y-126.028
X185.946Y-63.724
X185.946Y-85.314
X189.502Y-58.644
X189.502Y-99.538
X189.502Y-130.78
X189.756Y-90.14
X193.82Y-58.644
X193.82Y-130.78
X194.074Y-90.14
X194.074Y-99.538
X197.85Y-104.278
X197.85Y-126.028
X197.884Y-63.724
X197.884Y-85.314
X200.39Y-104.278
X200.39Y-126.028
X200.424Y-63.724
X200.424Y-85.314
X203.98Y-58.644
X203.98Y-130.78
X204.234Y-90.14
X204.234Y-99.538
T4
X88.435Y-94.155
X88.435Y-96.695
X88.435Y-142.415
X88.435Y-144.955
X90.975Y-94.155
X90.975Y-96.695
X90.975Y-142.415
X90.975Y-144.955
X93.515Y-94.155
X93.515Y-96.695
X93.515Y-142.415
X93.515Y-144.955
X96.055Y-94.155
X96.055Y-96.695
X96.055Y-142.415
X96.055Y-144.955
X98.595Y-94.155
X98.595Y-96.695
X98.595Y-142.415
X98.595Y-144.955
X101.135Y-94.155
X101.135Y-96.695
X101.135Y-142.415
X101.135Y-144.955
X103.675Y-94.155
X103.675Y-96.695
X103.675Y-142.415
X103.675Y-144.955
X106.215Y-94.155
X106.215Y-96.695
X106.215Y-142.415
X106.215Y-144.955
X108.755Y-94.155
X108.755Y-96.695
X108.755Y-142.415
X108.755Y-144.955
X111.295Y-94.155
X111.295Y-96.695
X111.295Y-142.415
X111.295Y-144.955
X113.835Y-94.155
X113.835Y-96.695
X113.835Y-142.415
X113.835Y-144.955
X116.375Y-94.155
X116.375Y-96.695
X116.375Y-142.415
X116.375Y-144.955
X118.915Y-94.155
X118.915Y-96.695
X118.915Y-142.415
X118.915Y-144.955
X121.455Y-94.155
X121.455Y-96.695
X121.455Y-142.415
X121.455Y-144.955
X123.995Y-94.155
X123.995Y-96.695
X123.995Y-142.415
X123.995Y-144.955
X126.535Y-94.155
X126.535Y-96.695
X126.535Y-142.415
X126.535Y-144.955
X129.075Y-94.155
X129.075Y-96.695
X129.075Y-142.415
X129.075Y-144.955
X131.615Y-94.155
X131.615Y-96.695
X131.615Y-142.415
X131.615Y-144.955
X134.155Y-94.155
X134.155Y-96.695
X134.155Y-142.415
X134.155Y-144.955
X136.695Y-94.155
X136.695Y-96.695
X136.695Y-142.415
X136.695Y-144.955
X139.235Y-94.155
X139.235Y-96.695
X139.235Y-142.415
X139.235Y-144.955
X141.775Y-94.155
X141.775Y-96.695
X141.775Y-142.415
X141.775Y-144.955
X144.315Y-94.155
X144.315Y-96.695
X144.315Y-142.415
X144.315Y-144.955
T5
X134.17Y-52.75
X136.67Y-52.75
X139.17Y-52.75
X157.792Y-52.75
X160.292Y-52.75
X162.792Y-52.75
T7
X131.37Y-45.75
X141.97Y-45.75
X154.992Y-45.75
X165.592Y-45.75
T8
X88.Y-41.
X88.Y-150.
X205.Y-41.
X205.Y-150.
T2
X95.2Y-111.73G85X99.7Y-111.73
G05
X95.2Y-118.83G85X99.7Y-118.83
G05
X95.558Y-70.842G85X100.058Y-70.842
G05
X95.558Y-77.942G85X100.058Y-77.942
G05
X109.754Y-111.728G85X114.254Y-111.728
G05
X109.754Y-118.828G85X114.254Y-118.828
G05
X110.036Y-70.842G85X114.536Y-70.842
G05
X110.036Y-77.942G85X114.536Y-77.942
G05
X124.27Y-111.728G85X128.77Y-111.728
G05
X124.27Y-118.828G85X128.77Y-118.828
G05
X124.514Y-70.842G85X129.014Y-70.842
G05
X124.514Y-77.942G85X129.014Y-77.942
G05
X138.786Y-111.728G85X143.286Y-111.728
G05
X138.786Y-118.828G85X143.286Y-118.828
G05
X138.992Y-70.842G85X143.492Y-70.842
G05
X138.992Y-77.942G85X143.492Y-77.942
G05
X153.302Y-111.728G85X157.802Y-111.728
G05
X153.302Y-118.828G85X157.802Y-118.828
G05
X153.47Y-70.842G85X157.97Y-70.842
G05
X153.47Y-77.942G85X157.97Y-77.942
G05
X167.818Y-111.728G85X172.318Y-111.728
G05
X167.818Y-118.828G85X172.318Y-118.828
G05
X167.948Y-70.842G85X172.448Y-70.842
G05
X167.948Y-77.942G85X172.448Y-77.942
G05
X182.334Y-111.728G85X186.834Y-111.728
G05
X182.334Y-118.828G85X186.834Y-118.828
G05
X182.426Y-70.842G85X186.926Y-70.842
G05
X182.426Y-77.942G85X186.926Y-77.942
G05
X196.85Y-111.728G85X201.35Y-111.728
G05
X196.85Y-118.828G85X201.35Y-118.828
G05
X196.904Y-70.842G85X201.404Y-70.842
G05
X196.904Y-77.942G85X201.404Y-77.942
G05
T6
X94.2Y-115.28G85X100.7Y-115.28
G05
X94.558Y-74.392G85X101.058Y-74.392
G05
X108.754Y-115.278G85X115.254Y-115.278
G05
X109.036Y-74.392G85X115.536Y-74.392
G05
X123.27Y-115.278G85X129.77Y-115.278
G05
X123.514Y-74.392G85X130.014Y-74.392
G05
X137.786Y-115.278G85X144.286Y-115.278
G05
X137.992Y-74.392G85X144.492Y-74.392
G05
X152.302Y-115.278G85X158.802Y-115.278
G05
X152.47Y-74.392G85X158.97Y-74.392
G05
X166.818Y-115.278G85X173.318Y-115.278
G05
X166.948Y-74.392G85X173.448Y-74.392
G05
X181.334Y-115.278G85X187.834Y-115.278
G05
X181.426Y-74.392G85X187.926Y-74.392
G05
X195.85Y-115.278G85X202.35Y-115.278
G05
X195.904Y-74.392G85X202.404Y-74.392
G05
T0
M30
