M48
;DRILL file {KiCad 0.201508280901+6131~28~ubuntu14.04.1-product} date Tue 03 Nov 2015 10:56:54 AM COT
;FORMAT={-:-/ absolute / metric / decimal}
FMAT,2
METRIC,TZ
T1C0.400
T2C0.650
T3C1.001
T4C1.016
T5C1.100
T6C1.500
T7C2.200
T8C3.200
%
G90
G05
M71
T1
X92.075Y-121.031
X93.726Y-113.792
X94.234Y-123.19
X101.854Y-72.898
X107.95Y-113.792
X108.204Y-72.898
X108.331Y-68.58
X109.728Y-143.637
X111.252Y-130.429
X113.284Y-140.335
X115.57Y-63.754
X115.57Y-127.889
X116.459Y-125.222
X116.84Y-129.032
X117.348Y-143.637
X119.888Y-91.44
X120.142Y-139.446
X120.65Y-111.379
X120.904Y-74.676
X122.428Y-113.792
X122.809Y-68.58
X123.317Y-125.095
X124.968Y-90.551
X125.349Y-109.093
X125.476Y-130.429
X127.127Y-140.97
X127.635Y-146.05
X129.667Y-140.081
X129.921Y-125.984
X130.048Y-63.754
X130.556Y-121.158
X132.588Y-73.279
X133.477Y-58.42
X133.858Y-140.081
X133.985Y-138.303
X134.366Y-147.701
X135.128Y-111.379
X135.128Y-118.491
X135.382Y-80.01
X137.287Y-68.58
X138.049Y-128.524
X139.446Y-68.199
X139.827Y-109.093
X141.605Y-121.412
X142.367Y-139.192
X142.748Y-90.551
X142.875Y-147.828
X144.145Y-133.35
X144.399Y-125.984
X145.923Y-96.774
X146.304Y-132.588
X146.431Y-146.939
X149.733Y-118.364
X150.368Y-125.73
X151.511Y-109.474
X151.511Y-127.381
X151.638Y-128.778
X152.273Y-125.222
X153.924Y-146.939
X154.178Y-109.22
X154.305Y-130.683
X155.702Y-145.161
X157.861Y-132.969
X158.877Y-126.111
X159.385Y-128.143
X160.02Y-126.238
X161.417Y-119.253
X162.179Y-128.143
X162.179Y-129.794
X163.322Y-127.254
X164.211Y-110.363
X166.497Y-102.616
X166.497Y-129.413
X168.91Y-109.093
X169.037Y-89.789
X169.164Y-99.949
X170.561Y-121.412
X171.577Y-130.683
X173.482Y-85.344
X173.482Y-125.984
X174.498Y-127.762
X174.625Y-126.238
X175.26Y-121.412
X178.689Y-111.379
X178.689Y-120.777
X178.689Y-123.571
X180.594Y-72.898
X180.594Y-109.474
X181.356Y-103.759
X183.515Y-89.789
X185.166Y-99.949
X187.96Y-85.344
X187.96Y-104.521
X195.072Y-72.898
X202.438Y-104.267
X203.581Y-88.011
T3
X92.474Y-58.644
X92.728Y-90.14
X92.728Y-99.538
X92.728Y-130.78
X96.492Y-104.528
X96.492Y-126.028
X96.538Y-63.724
X96.538Y-85.06
X99.032Y-104.528
X99.032Y-126.028
X99.078Y-63.724
X99.078Y-85.06
X102.634Y-58.644
X102.888Y-90.14
X102.888Y-99.538
X102.888Y-130.78
X106.698Y-90.14
X106.952Y-58.644
X106.952Y-130.78
X107.206Y-99.538
X111.008Y-104.528
X111.008Y-126.028
X111.016Y-63.724
X111.016Y-85.314
X113.548Y-104.528
X113.548Y-126.028
X113.556Y-63.724
X113.556Y-85.314
X116.858Y-90.14
X117.112Y-58.644
X117.112Y-130.78
X117.366Y-99.538
X121.43Y-58.644
X121.43Y-90.14
X121.43Y-130.78
X121.684Y-99.538
X125.27Y-104.528
X125.27Y-126.028
X125.494Y-63.724
X125.494Y-85.314
X127.81Y-104.528
X127.81Y-126.028
X128.034Y-63.724
X128.034Y-85.314
X131.59Y-58.644
X131.59Y-90.14
X131.59Y-130.78
X131.844Y-99.538
X135.908Y-58.644
X135.908Y-99.538
X135.908Y-130.78
X136.162Y-90.14
X139.786Y-104.528
X139.786Y-126.028
X139.972Y-63.724
X139.972Y-85.314
X142.326Y-104.528
X142.326Y-126.028
X142.512Y-63.724
X142.512Y-85.314
X146.068Y-58.644
X146.068Y-99.538
X146.068Y-130.78
X146.322Y-90.14
X150.386Y-58.644
X150.386Y-99.538
X150.386Y-130.78
X150.64Y-90.14
X154.302Y-104.528
X154.302Y-126.028
X154.45Y-63.724
X154.45Y-85.314
X156.842Y-104.528
X156.842Y-126.028
X156.99Y-63.724
X156.99Y-85.314
X160.546Y-58.644
X160.546Y-99.538
X160.546Y-130.78
X160.8Y-90.14
X164.864Y-58.644
X164.864Y-90.14
X164.864Y-99.538
X164.864Y-130.78
X168.818Y-104.528
X168.818Y-126.028
X168.928Y-63.724
X168.928Y-85.314
X171.358Y-104.528
X171.358Y-126.028
X171.468Y-63.724
X171.468Y-85.314
X175.024Y-58.644
X175.024Y-90.14
X175.024Y-99.538
X175.024Y-130.78
X179.342Y-58.644
X179.342Y-99.538
X179.342Y-130.78
X179.596Y-90.14
X183.334Y-104.528
X183.334Y-126.028
X183.406Y-63.724
X183.406Y-85.314
X185.874Y-104.528
X185.874Y-126.028
X185.946Y-63.724
X185.946Y-85.314
X189.502Y-58.644
X189.502Y-99.538
X189.502Y-130.78
X189.756Y-90.14
X193.82Y-58.644
X193.82Y-130.78
X194.074Y-90.14
X194.074Y-99.538
X197.85Y-104.278
X197.85Y-126.028
X197.884Y-63.724
X197.884Y-85.314
X200.39Y-104.278
X200.39Y-126.028
X200.424Y-63.724
X200.424Y-85.314
X203.98Y-58.644
X203.98Y-130.78
X204.234Y-90.14
X204.234Y-99.538
T4
X88.435Y-94.155
X88.435Y-96.695
X88.435Y-142.415
X88.435Y-144.955
X90.975Y-94.155
X90.975Y-96.695
X90.975Y-142.415
X90.975Y-144.955
X93.515Y-94.155
X93.515Y-96.695
X93.515Y-142.415
X93.515Y-144.955
X96.055Y-94.155
X96.055Y-96.695
X96.055Y-142.415
X96.055Y-144.955
X98.595Y-94.155
X98.595Y-96.695
X98.595Y-142.415
X98.595Y-144.955
X101.135Y-94.155
X101.135Y-96.695
X101.135Y-142.415
X101.135Y-144.955
X103.675Y-94.155
X103.675Y-96.695
X103.675Y-142.415
X103.675Y-144.955
X106.215Y-94.155
X106.215Y-96.695
X106.215Y-142.415
X106.215Y-144.955
X108.755Y-94.155
X108.755Y-96.695
X108.755Y-142.415
X108.755Y-144.955
X111.295Y-94.155
X111.295Y-96.695
X111.295Y-142.415
X111.295Y-144.955
X113.835Y-94.155
X113.835Y-96.695
X113.835Y-142.415
X113.835Y-144.955
X116.375Y-94.155
X116.375Y-96.695
X116.375Y-142.415
X116.375Y-144.955
X118.915Y-94.155
X118.915Y-96.695
X118.915Y-142.415
X118.915Y-144.955
X121.455Y-94.155
X121.455Y-96.695
X121.455Y-142.415
X121.455Y-144.955
X123.995Y-94.155
X123.995Y-96.695
X123.995Y-142.415
X123.995Y-144.955
X126.535Y-94.155
X126.535Y-96.695
X126.535Y-142.415
X126.535Y-144.955
X129.075Y-94.155
X129.075Y-96.695
X129.075Y-142.415
X129.075Y-144.955
X131.615Y-94.155
X131.615Y-96.695
X131.615Y-142.415
X131.615Y-144.955
X134.155Y-94.155
X134.155Y-96.695
X134.155Y-142.415
X134.155Y-144.955
X136.695Y-94.155
X136.695Y-96.695
X136.695Y-142.415
X136.695Y-144.955
X139.235Y-94.155
X139.235Y-96.695
X139.235Y-142.415
X139.235Y-144.955
X141.775Y-94.155
X141.775Y-96.695
X141.775Y-142.415
X141.775Y-144.955
X144.315Y-94.155
X144.315Y-96.695
X144.315Y-142.415
X144.315Y-144.955
T5
X134.17Y-52.75
X136.67Y-52.75
X139.17Y-52.75
X157.792Y-52.75
X160.292Y-52.75
X162.792Y-52.75
T7
X131.37Y-45.75
X141.97Y-45.75
X154.992Y-45.75
X165.592Y-45.75
T8
X88.Y-41.
X88.Y-150.
X205.Y-41.
X205.Y-150.
T2
X95.068Y-70.832G85X100.548Y-70.832
G05
X95.068Y-77.952G85X100.548Y-77.952
G05
X95.068Y-111.726G85X100.548Y-111.726
G05
X95.068Y-118.846G85X100.548Y-118.846
G05
X109.264Y-111.718G85X114.744Y-111.718
G05
X109.264Y-118.838G85X114.744Y-118.838
G05
X109.546Y-70.832G85X115.026Y-70.832
G05
X109.546Y-77.952G85X115.026Y-77.952
G05
X123.78Y-111.718G85X129.26Y-111.718
G05
X123.78Y-118.838G85X129.26Y-118.838
G05
X124.024Y-70.832G85X129.504Y-70.832
G05
X124.024Y-77.952G85X129.504Y-77.952
G05
X143.776Y-111.718G85X138.296Y-111.718
G05
X143.776Y-118.838G85X138.296Y-118.838
G05
X138.502Y-70.832G85X143.982Y-70.832
G05
X138.502Y-77.952G85X143.982Y-77.952
G05
X152.812Y-111.718G85X158.292Y-111.718
G05
X152.812Y-118.838G85X158.292Y-118.838
G05
X152.98Y-70.832G85X158.46Y-70.832
G05
X152.98Y-77.952G85X158.46Y-77.952
G05
X172.808Y-111.718G85X167.328Y-111.718
G05
X172.808Y-118.838G85X167.328Y-118.838
G05
X167.458Y-70.832G85X172.938Y-70.832
G05
X167.458Y-77.952G85X172.938Y-77.952
G05
X181.844Y-111.718G85X187.324Y-111.718
G05
X181.844Y-118.838G85X187.324Y-118.838
G05
X181.936Y-70.832G85X187.416Y-70.832
G05
X181.936Y-77.952G85X187.416Y-77.952
G05
X201.84Y-111.718G85X196.36Y-111.718
G05
X201.84Y-118.838G85X196.36Y-118.838
G05
X196.414Y-70.832G85X201.894Y-70.832
G05
X196.414Y-77.952G85X201.894Y-77.952
G05
T6
X94.483Y-74.392G85X101.133Y-74.392
G05
X94.483Y-115.286G85X101.133Y-115.286
G05
X108.679Y-115.278G85X115.329Y-115.278
G05
X108.961Y-74.392G85X115.611Y-74.392
G05
X123.195Y-115.278G85X129.845Y-115.278
G05
X123.439Y-74.392G85X130.089Y-74.392
G05
X144.361Y-115.278G85X137.711Y-115.278
G05
X137.917Y-74.392G85X144.567Y-74.392
G05
X152.227Y-115.278G85X158.877Y-115.278
G05
X152.395Y-74.392G85X159.045Y-74.392
G05
X173.393Y-115.278G85X166.743Y-115.278
G05
X166.873Y-74.392G85X173.523Y-74.392
G05
X181.259Y-115.278G85X187.909Y-115.278
G05
X181.351Y-74.392G85X188.001Y-74.392
G05
X202.425Y-115.278G85X195.775Y-115.278
G05
X195.829Y-74.392G85X202.479Y-74.392
G05
T0
M30
