G04 #@! TF.FileFunction,Other,ECO1*
%FSLAX46Y46*%
G04 Gerber Fmt 4.6, Leading zero omitted, Abs format (unit mm)*
G04 Created by KiCad (PCBNEW 0.201508280901+6131~28~ubuntu14.04.1-product) date Tue 20 Oct 2015 04:27:25 PM COT*
%MOMM*%
G01*
G04 APERTURE LIST*
%ADD10C,0.100000*%
%ADD11C,0.200000*%
G04 APERTURE END LIST*
D10*
D11*
X94840000Y-111490000D02*
X100780000Y-111490000D01*
X94850000Y-111490000D02*
X94850000Y-111940000D01*
X94840000Y-111940000D02*
X100780000Y-111940000D01*
X100780000Y-111940000D02*
X100780000Y-111490000D01*
X100790000Y-119050000D02*
X100790000Y-118600000D01*
X94850000Y-119050000D02*
X100790000Y-119050000D01*
X94860000Y-118600000D02*
X94860000Y-119050000D01*
X94850000Y-118600000D02*
X100790000Y-118600000D01*
X93840000Y-114620000D02*
X93840000Y-115920000D01*
X93840000Y-114620000D02*
X101790000Y-114620000D01*
X101790000Y-114620000D02*
X101790000Y-115920000D01*
X101790000Y-115920000D02*
X93840000Y-115920000D01*
X115980000Y-115930000D02*
X108030000Y-115930000D01*
X115980000Y-114630000D02*
X115980000Y-115930000D01*
X108030000Y-114630000D02*
X115980000Y-114630000D01*
X108030000Y-114630000D02*
X108030000Y-115930000D01*
X109040000Y-118610000D02*
X114980000Y-118610000D01*
X109050000Y-118610000D02*
X109050000Y-119060000D01*
X109040000Y-119060000D02*
X114980000Y-119060000D01*
X114980000Y-119060000D02*
X114980000Y-118610000D01*
X114970000Y-111950000D02*
X114970000Y-111500000D01*
X109030000Y-111950000D02*
X114970000Y-111950000D01*
X109040000Y-111500000D02*
X109040000Y-111950000D01*
X109030000Y-111500000D02*
X114970000Y-111500000D01*
X138060000Y-111490000D02*
X144000000Y-111490000D01*
X138070000Y-111490000D02*
X138070000Y-111940000D01*
X138060000Y-111940000D02*
X144000000Y-111940000D01*
X144000000Y-111940000D02*
X144000000Y-111490000D01*
X144010000Y-119050000D02*
X144010000Y-118600000D01*
X138070000Y-119050000D02*
X144010000Y-119050000D01*
X138080000Y-118600000D02*
X138080000Y-119050000D01*
X138070000Y-118600000D02*
X144010000Y-118600000D01*
X137060000Y-114620000D02*
X137060000Y-115920000D01*
X137060000Y-114620000D02*
X145010000Y-114620000D01*
X145010000Y-114620000D02*
X145010000Y-115920000D01*
X145010000Y-115920000D02*
X137060000Y-115920000D01*
X130510000Y-115930000D02*
X122560000Y-115930000D01*
X130510000Y-114630000D02*
X130510000Y-115930000D01*
X122560000Y-114630000D02*
X130510000Y-114630000D01*
X122560000Y-114630000D02*
X122560000Y-115930000D01*
X123570000Y-118610000D02*
X129510000Y-118610000D01*
X123580000Y-118610000D02*
X123580000Y-119060000D01*
X123570000Y-119060000D02*
X129510000Y-119060000D01*
X129510000Y-119060000D02*
X129510000Y-118610000D01*
X129500000Y-111950000D02*
X129500000Y-111500000D01*
X123560000Y-111950000D02*
X129500000Y-111950000D01*
X123570000Y-111500000D02*
X123570000Y-111950000D01*
X123560000Y-111500000D02*
X129500000Y-111500000D01*
X181610000Y-111490000D02*
X187550000Y-111490000D01*
X181620000Y-111490000D02*
X181620000Y-111940000D01*
X181610000Y-111940000D02*
X187550000Y-111940000D01*
X187550000Y-111940000D02*
X187550000Y-111490000D01*
X187560000Y-119050000D02*
X187560000Y-118600000D01*
X181620000Y-119050000D02*
X187560000Y-119050000D01*
X181630000Y-118600000D02*
X181630000Y-119050000D01*
X181620000Y-118600000D02*
X187560000Y-118600000D01*
X180610000Y-114620000D02*
X180610000Y-115920000D01*
X180610000Y-114620000D02*
X188560000Y-114620000D01*
X188560000Y-114620000D02*
X188560000Y-115920000D01*
X188560000Y-115920000D02*
X180610000Y-115920000D01*
X203080000Y-115920000D02*
X195130000Y-115920000D01*
X203080000Y-114620000D02*
X203080000Y-115920000D01*
X195130000Y-114620000D02*
X203080000Y-114620000D01*
X195130000Y-114620000D02*
X195130000Y-115920000D01*
X196140000Y-118600000D02*
X202080000Y-118600000D01*
X196150000Y-118600000D02*
X196150000Y-119050000D01*
X196140000Y-119050000D02*
X202080000Y-119050000D01*
X202080000Y-119050000D02*
X202080000Y-118600000D01*
X202070000Y-111940000D02*
X202070000Y-111490000D01*
X196130000Y-111940000D02*
X202070000Y-111940000D01*
X196140000Y-111490000D02*
X196140000Y-111940000D01*
X196130000Y-111490000D02*
X202070000Y-111490000D01*
X167070000Y-111500000D02*
X173010000Y-111500000D01*
X167080000Y-111500000D02*
X167080000Y-111950000D01*
X167070000Y-111950000D02*
X173010000Y-111950000D01*
X173010000Y-111950000D02*
X173010000Y-111500000D01*
X173020000Y-119060000D02*
X173020000Y-118610000D01*
X167080000Y-119060000D02*
X173020000Y-119060000D01*
X167090000Y-118610000D02*
X167090000Y-119060000D01*
X167080000Y-118610000D02*
X173020000Y-118610000D01*
X166070000Y-114630000D02*
X166070000Y-115930000D01*
X166070000Y-114630000D02*
X174020000Y-114630000D01*
X174020000Y-114630000D02*
X174020000Y-115930000D01*
X174020000Y-115930000D02*
X166070000Y-115930000D01*
X159540000Y-115920000D02*
X151590000Y-115920000D01*
X159540000Y-114620000D02*
X159540000Y-115920000D01*
X151590000Y-114620000D02*
X159540000Y-114620000D01*
X151590000Y-114620000D02*
X151590000Y-115920000D01*
X152600000Y-118600000D02*
X158540000Y-118600000D01*
X152610000Y-118600000D02*
X152610000Y-119050000D01*
X152600000Y-119050000D02*
X158540000Y-119050000D01*
X158540000Y-119050000D02*
X158540000Y-118600000D01*
X158530000Y-111940000D02*
X158530000Y-111490000D01*
X152590000Y-111940000D02*
X158530000Y-111940000D01*
X152600000Y-111490000D02*
X152600000Y-111940000D01*
X152590000Y-111490000D02*
X158530000Y-111490000D01*
X152730000Y-70610000D02*
X158670000Y-70610000D01*
X152740000Y-70610000D02*
X152740000Y-71060000D01*
X152730000Y-71060000D02*
X158670000Y-71060000D01*
X158670000Y-71060000D02*
X158670000Y-70610000D01*
X158680000Y-78170000D02*
X158680000Y-77720000D01*
X152740000Y-78170000D02*
X158680000Y-78170000D01*
X152750000Y-77720000D02*
X152750000Y-78170000D01*
X152740000Y-77720000D02*
X158680000Y-77720000D01*
X151730000Y-73740000D02*
X151730000Y-75040000D01*
X151730000Y-73740000D02*
X159680000Y-73740000D01*
X159680000Y-73740000D02*
X159680000Y-75040000D01*
X159680000Y-75040000D02*
X151730000Y-75040000D01*
X174160000Y-75050000D02*
X166210000Y-75050000D01*
X174160000Y-73750000D02*
X174160000Y-75050000D01*
X166210000Y-73750000D02*
X174160000Y-73750000D01*
X166210000Y-73750000D02*
X166210000Y-75050000D01*
X167220000Y-77730000D02*
X173160000Y-77730000D01*
X167230000Y-77730000D02*
X167230000Y-78180000D01*
X167220000Y-78180000D02*
X173160000Y-78180000D01*
X173160000Y-78180000D02*
X173160000Y-77730000D01*
X173150000Y-71070000D02*
X173150000Y-70620000D01*
X167210000Y-71070000D02*
X173150000Y-71070000D01*
X167220000Y-70620000D02*
X167220000Y-71070000D01*
X167210000Y-70620000D02*
X173150000Y-70620000D01*
X196180000Y-70610000D02*
X202120000Y-70610000D01*
X196190000Y-70610000D02*
X196190000Y-71060000D01*
X196180000Y-71060000D02*
X202120000Y-71060000D01*
X202120000Y-71060000D02*
X202120000Y-70610000D01*
X202130000Y-78170000D02*
X202130000Y-77720000D01*
X196190000Y-78170000D02*
X202130000Y-78170000D01*
X196200000Y-77720000D02*
X196200000Y-78170000D01*
X196190000Y-77720000D02*
X202130000Y-77720000D01*
X195180000Y-73740000D02*
X195180000Y-75040000D01*
X195180000Y-73740000D02*
X203130000Y-73740000D01*
X203130000Y-73740000D02*
X203130000Y-75040000D01*
X203130000Y-75040000D02*
X195180000Y-75040000D01*
X188650000Y-75030000D02*
X180700000Y-75030000D01*
X188650000Y-73730000D02*
X188650000Y-75030000D01*
X180700000Y-73730000D02*
X188650000Y-73730000D01*
X180700000Y-73730000D02*
X180700000Y-75030000D01*
X181710000Y-77710000D02*
X187650000Y-77710000D01*
X181720000Y-77710000D02*
X181720000Y-78160000D01*
X181710000Y-78160000D02*
X187650000Y-78160000D01*
X187650000Y-78160000D02*
X187650000Y-77710000D01*
X187640000Y-71050000D02*
X187640000Y-70600000D01*
X181700000Y-71050000D02*
X187640000Y-71050000D01*
X181710000Y-70600000D02*
X181710000Y-71050000D01*
X181700000Y-70600000D02*
X187640000Y-70600000D01*
X123800000Y-70600000D02*
X129740000Y-70600000D01*
X123810000Y-70600000D02*
X123810000Y-71050000D01*
X123800000Y-71050000D02*
X129740000Y-71050000D01*
X129740000Y-71050000D02*
X129740000Y-70600000D01*
X129750000Y-78160000D02*
X129750000Y-77710000D01*
X123810000Y-78160000D02*
X129750000Y-78160000D01*
X123820000Y-77710000D02*
X123820000Y-78160000D01*
X123810000Y-77710000D02*
X129750000Y-77710000D01*
X122800000Y-73730000D02*
X122800000Y-75030000D01*
X122800000Y-73730000D02*
X130750000Y-73730000D01*
X130750000Y-73730000D02*
X130750000Y-75030000D01*
X130750000Y-75030000D02*
X122800000Y-75030000D01*
X145230000Y-75040000D02*
X137280000Y-75040000D01*
X145230000Y-73740000D02*
X145230000Y-75040000D01*
X137280000Y-73740000D02*
X145230000Y-73740000D01*
X137280000Y-73740000D02*
X137280000Y-75040000D01*
X138290000Y-77720000D02*
X144230000Y-77720000D01*
X138300000Y-77720000D02*
X138300000Y-78170000D01*
X138290000Y-78170000D02*
X144230000Y-78170000D01*
X144230000Y-78170000D02*
X144230000Y-77720000D01*
X144220000Y-71060000D02*
X144220000Y-70610000D01*
X138280000Y-71060000D02*
X144220000Y-71060000D01*
X138290000Y-70610000D02*
X138290000Y-71060000D01*
X138280000Y-70610000D02*
X144220000Y-70610000D01*
X109310000Y-70620000D02*
X115250000Y-70620000D01*
X109320000Y-70620000D02*
X109320000Y-71070000D01*
X109310000Y-71070000D02*
X115250000Y-71070000D01*
X115250000Y-71070000D02*
X115250000Y-70620000D01*
X115260000Y-78180000D02*
X115260000Y-77730000D01*
X109320000Y-78180000D02*
X115260000Y-78180000D01*
X109330000Y-77730000D02*
X109330000Y-78180000D01*
X109320000Y-77730000D02*
X115260000Y-77730000D01*
X108310000Y-73750000D02*
X108310000Y-75050000D01*
X108310000Y-73750000D02*
X116260000Y-73750000D01*
X116260000Y-73750000D02*
X116260000Y-75050000D01*
X116260000Y-75050000D02*
X108310000Y-75050000D01*
X101780000Y-75040000D02*
X93830000Y-75040000D01*
X101780000Y-73740000D02*
X101780000Y-75040000D01*
X93830000Y-73740000D02*
X101780000Y-73740000D01*
X93830000Y-73740000D02*
X93830000Y-75040000D01*
X94840000Y-77720000D02*
X100780000Y-77720000D01*
X94850000Y-77720000D02*
X94850000Y-78170000D01*
X94840000Y-78170000D02*
X100780000Y-78170000D01*
X100780000Y-78170000D02*
X100780000Y-77720000D01*
X100770000Y-71060000D02*
X100770000Y-70610000D01*
X94830000Y-71060000D02*
X100770000Y-71060000D01*
X94840000Y-70610000D02*
X94840000Y-71060000D01*
X94830000Y-70610000D02*
X100770000Y-70610000D01*
M02*
