G04 #@! TF.FileFunction,Legend,Top*
%FSLAX46Y46*%
G04 Gerber Fmt 4.6, Leading zero omitted, Abs format (unit mm)*
G04 Created by KiCad (PCBNEW 0.201508280901+6131~28~ubuntu14.04.1-product) date Tue 03 Nov 2015 10:56:38 AM COT*
%MOMM*%
G01*
G04 APERTURE LIST*
%ADD10C,0.100000*%
%ADD11C,0.150000*%
G04 APERTURE END LIST*
D10*
D11*
X155792000Y-52250000D02*
X155792000Y-41250000D01*
X155792000Y-41250000D02*
X164792000Y-41250000D01*
X164792000Y-41250000D02*
X164792000Y-52250000D01*
X155792000Y-52250000D02*
X164792000Y-52250000D01*
X132170000Y-52250000D02*
X132170000Y-41250000D01*
X132170000Y-41250000D02*
X141170000Y-41250000D01*
X141170000Y-41250000D02*
X141170000Y-52250000D01*
X132170000Y-52250000D02*
X141170000Y-52250000D01*
X197685000Y-65038000D02*
X197685000Y-64838000D01*
X197685000Y-62444000D02*
X197685000Y-62624000D01*
X200912744Y-62754357D02*
G75*
G03X197685000Y-62438000I-1727744J-1003643D01*
G01*
X200237006Y-62624932D02*
G75*
G03X198134000Y-62624000I-1052006J-1133068D01*
G01*
X197697780Y-65064726D02*
G75*
G03X200935000Y-64718000I1497220J1306726D01*
G01*
X198171111Y-64837253D02*
G75*
G03X200219000Y-64818000I1013889J1079253D01*
G01*
X183207000Y-65038000D02*
X183207000Y-64838000D01*
X183207000Y-62444000D02*
X183207000Y-62624000D01*
X186434744Y-62754357D02*
G75*
G03X183207000Y-62438000I-1727744J-1003643D01*
G01*
X185759006Y-62624932D02*
G75*
G03X183656000Y-62624000I-1052006J-1133068D01*
G01*
X183219780Y-65064726D02*
G75*
G03X186457000Y-64718000I1497220J1306726D01*
G01*
X183693111Y-64837253D02*
G75*
G03X185741000Y-64818000I1013889J1079253D01*
G01*
X168729000Y-65038000D02*
X168729000Y-64838000D01*
X168729000Y-62444000D02*
X168729000Y-62624000D01*
X171956744Y-62754357D02*
G75*
G03X168729000Y-62438000I-1727744J-1003643D01*
G01*
X171281006Y-62624932D02*
G75*
G03X169178000Y-62624000I-1052006J-1133068D01*
G01*
X168741780Y-65064726D02*
G75*
G03X171979000Y-64718000I1497220J1306726D01*
G01*
X169215111Y-64837253D02*
G75*
G03X171263000Y-64818000I1013889J1079253D01*
G01*
X154251000Y-65038000D02*
X154251000Y-64838000D01*
X154251000Y-62444000D02*
X154251000Y-62624000D01*
X157478744Y-62754357D02*
G75*
G03X154251000Y-62438000I-1727744J-1003643D01*
G01*
X156803006Y-62624932D02*
G75*
G03X154700000Y-62624000I-1052006J-1133068D01*
G01*
X154263780Y-65064726D02*
G75*
G03X157501000Y-64718000I1497220J1306726D01*
G01*
X154737111Y-64837253D02*
G75*
G03X156785000Y-64818000I1013889J1079253D01*
G01*
X139773000Y-65038000D02*
X139773000Y-64838000D01*
X139773000Y-62444000D02*
X139773000Y-62624000D01*
X143000744Y-62754357D02*
G75*
G03X139773000Y-62438000I-1727744J-1003643D01*
G01*
X142325006Y-62624932D02*
G75*
G03X140222000Y-62624000I-1052006J-1133068D01*
G01*
X139785780Y-65064726D02*
G75*
G03X143023000Y-64718000I1497220J1306726D01*
G01*
X140259111Y-64837253D02*
G75*
G03X142307000Y-64818000I1013889J1079253D01*
G01*
X125295000Y-65038000D02*
X125295000Y-64838000D01*
X125295000Y-62444000D02*
X125295000Y-62624000D01*
X128522744Y-62754357D02*
G75*
G03X125295000Y-62438000I-1727744J-1003643D01*
G01*
X127847006Y-62624932D02*
G75*
G03X125744000Y-62624000I-1052006J-1133068D01*
G01*
X125307780Y-65064726D02*
G75*
G03X128545000Y-64718000I1497220J1306726D01*
G01*
X125781111Y-64837253D02*
G75*
G03X127829000Y-64818000I1013889J1079253D01*
G01*
X110817000Y-65038000D02*
X110817000Y-64838000D01*
X110817000Y-62444000D02*
X110817000Y-62624000D01*
X114044744Y-62754357D02*
G75*
G03X110817000Y-62438000I-1727744J-1003643D01*
G01*
X113369006Y-62624932D02*
G75*
G03X111266000Y-62624000I-1052006J-1133068D01*
G01*
X110829780Y-65064726D02*
G75*
G03X114067000Y-64718000I1497220J1306726D01*
G01*
X111303111Y-64837253D02*
G75*
G03X113351000Y-64818000I1013889J1079253D01*
G01*
X96339000Y-65038000D02*
X96339000Y-64838000D01*
X96339000Y-62444000D02*
X96339000Y-62624000D01*
X99566744Y-62754357D02*
G75*
G03X96339000Y-62438000I-1727744J-1003643D01*
G01*
X98891006Y-62624932D02*
G75*
G03X96788000Y-62624000I-1052006J-1133068D01*
G01*
X96351780Y-65064726D02*
G75*
G03X99589000Y-64718000I1497220J1306726D01*
G01*
X96825111Y-64837253D02*
G75*
G03X98873000Y-64818000I1013889J1079253D01*
G01*
X197651000Y-105592000D02*
X197651000Y-105392000D01*
X197651000Y-102998000D02*
X197651000Y-103178000D01*
X200878744Y-103308357D02*
G75*
G03X197651000Y-102992000I-1727744J-1003643D01*
G01*
X200203006Y-103178932D02*
G75*
G03X198100000Y-103178000I-1052006J-1133068D01*
G01*
X197663780Y-105618726D02*
G75*
G03X200901000Y-105272000I1497220J1306726D01*
G01*
X198137111Y-105391253D02*
G75*
G03X200185000Y-105372000I1013889J1079253D01*
G01*
X183135000Y-105842000D02*
X183135000Y-105642000D01*
X183135000Y-103248000D02*
X183135000Y-103428000D01*
X186362744Y-103558357D02*
G75*
G03X183135000Y-103242000I-1727744J-1003643D01*
G01*
X185687006Y-103428932D02*
G75*
G03X183584000Y-103428000I-1052006J-1133068D01*
G01*
X183147780Y-105868726D02*
G75*
G03X186385000Y-105522000I1497220J1306726D01*
G01*
X183621111Y-105641253D02*
G75*
G03X185669000Y-105622000I1013889J1079253D01*
G01*
X168619000Y-105842000D02*
X168619000Y-105642000D01*
X168619000Y-103248000D02*
X168619000Y-103428000D01*
X171846744Y-103558357D02*
G75*
G03X168619000Y-103242000I-1727744J-1003643D01*
G01*
X171171006Y-103428932D02*
G75*
G03X169068000Y-103428000I-1052006J-1133068D01*
G01*
X168631780Y-105868726D02*
G75*
G03X171869000Y-105522000I1497220J1306726D01*
G01*
X169105111Y-105641253D02*
G75*
G03X171153000Y-105622000I1013889J1079253D01*
G01*
X154103000Y-105842000D02*
X154103000Y-105642000D01*
X154103000Y-103248000D02*
X154103000Y-103428000D01*
X157330744Y-103558357D02*
G75*
G03X154103000Y-103242000I-1727744J-1003643D01*
G01*
X156655006Y-103428932D02*
G75*
G03X154552000Y-103428000I-1052006J-1133068D01*
G01*
X154115780Y-105868726D02*
G75*
G03X157353000Y-105522000I1497220J1306726D01*
G01*
X154589111Y-105641253D02*
G75*
G03X156637000Y-105622000I1013889J1079253D01*
G01*
X139587000Y-105842000D02*
X139587000Y-105642000D01*
X139587000Y-103248000D02*
X139587000Y-103428000D01*
X142814744Y-103558357D02*
G75*
G03X139587000Y-103242000I-1727744J-1003643D01*
G01*
X142139006Y-103428932D02*
G75*
G03X140036000Y-103428000I-1052006J-1133068D01*
G01*
X139599780Y-105868726D02*
G75*
G03X142837000Y-105522000I1497220J1306726D01*
G01*
X140073111Y-105641253D02*
G75*
G03X142121000Y-105622000I1013889J1079253D01*
G01*
X125071000Y-105842000D02*
X125071000Y-105642000D01*
X125071000Y-103248000D02*
X125071000Y-103428000D01*
X128298744Y-103558357D02*
G75*
G03X125071000Y-103242000I-1727744J-1003643D01*
G01*
X127623006Y-103428932D02*
G75*
G03X125520000Y-103428000I-1052006J-1133068D01*
G01*
X125083780Y-105868726D02*
G75*
G03X128321000Y-105522000I1497220J1306726D01*
G01*
X125557111Y-105641253D02*
G75*
G03X127605000Y-105622000I1013889J1079253D01*
G01*
X110809000Y-105842000D02*
X110809000Y-105642000D01*
X110809000Y-103248000D02*
X110809000Y-103428000D01*
X114036744Y-103558357D02*
G75*
G03X110809000Y-103242000I-1727744J-1003643D01*
G01*
X113361006Y-103428932D02*
G75*
G03X111258000Y-103428000I-1052006J-1133068D01*
G01*
X110821780Y-105868726D02*
G75*
G03X114059000Y-105522000I1497220J1306726D01*
G01*
X111295111Y-105641253D02*
G75*
G03X113343000Y-105622000I1013889J1079253D01*
G01*
X96293000Y-105842000D02*
X96293000Y-105642000D01*
X96293000Y-103248000D02*
X96293000Y-103428000D01*
X99520744Y-103558357D02*
G75*
G03X96293000Y-103242000I-1727744J-1003643D01*
G01*
X98845006Y-103428932D02*
G75*
G03X96742000Y-103428000I-1052006J-1133068D01*
G01*
X96305780Y-105868726D02*
G75*
G03X99543000Y-105522000I1497220J1306726D01*
G01*
X96779111Y-105641253D02*
G75*
G03X98827000Y-105622000I1013889J1079253D01*
G01*
X197685000Y-86628000D02*
X197685000Y-86428000D01*
X197685000Y-84034000D02*
X197685000Y-84214000D01*
X200912744Y-84344357D02*
G75*
G03X197685000Y-84028000I-1727744J-1003643D01*
G01*
X200237006Y-84214932D02*
G75*
G03X198134000Y-84214000I-1052006J-1133068D01*
G01*
X197697780Y-86654726D02*
G75*
G03X200935000Y-86308000I1497220J1306726D01*
G01*
X198171111Y-86427253D02*
G75*
G03X200219000Y-86408000I1013889J1079253D01*
G01*
X183207000Y-86628000D02*
X183207000Y-86428000D01*
X183207000Y-84034000D02*
X183207000Y-84214000D01*
X186434744Y-84344357D02*
G75*
G03X183207000Y-84028000I-1727744J-1003643D01*
G01*
X185759006Y-84214932D02*
G75*
G03X183656000Y-84214000I-1052006J-1133068D01*
G01*
X183219780Y-86654726D02*
G75*
G03X186457000Y-86308000I1497220J1306726D01*
G01*
X183693111Y-86427253D02*
G75*
G03X185741000Y-86408000I1013889J1079253D01*
G01*
X168729000Y-86628000D02*
X168729000Y-86428000D01*
X168729000Y-84034000D02*
X168729000Y-84214000D01*
X171956744Y-84344357D02*
G75*
G03X168729000Y-84028000I-1727744J-1003643D01*
G01*
X171281006Y-84214932D02*
G75*
G03X169178000Y-84214000I-1052006J-1133068D01*
G01*
X168741780Y-86654726D02*
G75*
G03X171979000Y-86308000I1497220J1306726D01*
G01*
X169215111Y-86427253D02*
G75*
G03X171263000Y-86408000I1013889J1079253D01*
G01*
X154251000Y-86628000D02*
X154251000Y-86428000D01*
X154251000Y-84034000D02*
X154251000Y-84214000D01*
X157478744Y-84344357D02*
G75*
G03X154251000Y-84028000I-1727744J-1003643D01*
G01*
X156803006Y-84214932D02*
G75*
G03X154700000Y-84214000I-1052006J-1133068D01*
G01*
X154263780Y-86654726D02*
G75*
G03X157501000Y-86308000I1497220J1306726D01*
G01*
X154737111Y-86427253D02*
G75*
G03X156785000Y-86408000I1013889J1079253D01*
G01*
X139773000Y-86628000D02*
X139773000Y-86428000D01*
X139773000Y-84034000D02*
X139773000Y-84214000D01*
X143000744Y-84344357D02*
G75*
G03X139773000Y-84028000I-1727744J-1003643D01*
G01*
X142325006Y-84214932D02*
G75*
G03X140222000Y-84214000I-1052006J-1133068D01*
G01*
X139785780Y-86654726D02*
G75*
G03X143023000Y-86308000I1497220J1306726D01*
G01*
X140259111Y-86427253D02*
G75*
G03X142307000Y-86408000I1013889J1079253D01*
G01*
X125295000Y-86628000D02*
X125295000Y-86428000D01*
X125295000Y-84034000D02*
X125295000Y-84214000D01*
X128522744Y-84344357D02*
G75*
G03X125295000Y-84028000I-1727744J-1003643D01*
G01*
X127847006Y-84214932D02*
G75*
G03X125744000Y-84214000I-1052006J-1133068D01*
G01*
X125307780Y-86654726D02*
G75*
G03X128545000Y-86308000I1497220J1306726D01*
G01*
X125781111Y-86427253D02*
G75*
G03X127829000Y-86408000I1013889J1079253D01*
G01*
X110817000Y-86628000D02*
X110817000Y-86428000D01*
X110817000Y-84034000D02*
X110817000Y-84214000D01*
X114044744Y-84344357D02*
G75*
G03X110817000Y-84028000I-1727744J-1003643D01*
G01*
X113369006Y-84214932D02*
G75*
G03X111266000Y-84214000I-1052006J-1133068D01*
G01*
X110829780Y-86654726D02*
G75*
G03X114067000Y-86308000I1497220J1306726D01*
G01*
X111303111Y-86427253D02*
G75*
G03X113351000Y-86408000I1013889J1079253D01*
G01*
X96339000Y-86374000D02*
X96339000Y-86174000D01*
X96339000Y-83780000D02*
X96339000Y-83960000D01*
X99566744Y-84090357D02*
G75*
G03X96339000Y-83774000I-1727744J-1003643D01*
G01*
X98891006Y-83960932D02*
G75*
G03X96788000Y-83960000I-1052006J-1133068D01*
G01*
X96351780Y-86400726D02*
G75*
G03X99589000Y-86054000I1497220J1306726D01*
G01*
X96825111Y-86173253D02*
G75*
G03X98873000Y-86154000I1013889J1079253D01*
G01*
X197651000Y-127342000D02*
X197651000Y-127142000D01*
X197651000Y-124748000D02*
X197651000Y-124928000D01*
X200878744Y-125058357D02*
G75*
G03X197651000Y-124742000I-1727744J-1003643D01*
G01*
X200203006Y-124928932D02*
G75*
G03X198100000Y-124928000I-1052006J-1133068D01*
G01*
X197663780Y-127368726D02*
G75*
G03X200901000Y-127022000I1497220J1306726D01*
G01*
X198137111Y-127141253D02*
G75*
G03X200185000Y-127122000I1013889J1079253D01*
G01*
X183135000Y-127342000D02*
X183135000Y-127142000D01*
X183135000Y-124748000D02*
X183135000Y-124928000D01*
X186362744Y-125058357D02*
G75*
G03X183135000Y-124742000I-1727744J-1003643D01*
G01*
X185687006Y-124928932D02*
G75*
G03X183584000Y-124928000I-1052006J-1133068D01*
G01*
X183147780Y-127368726D02*
G75*
G03X186385000Y-127022000I1497220J1306726D01*
G01*
X183621111Y-127141253D02*
G75*
G03X185669000Y-127122000I1013889J1079253D01*
G01*
X168619000Y-127342000D02*
X168619000Y-127142000D01*
X168619000Y-124748000D02*
X168619000Y-124928000D01*
X171846744Y-125058357D02*
G75*
G03X168619000Y-124742000I-1727744J-1003643D01*
G01*
X171171006Y-124928932D02*
G75*
G03X169068000Y-124928000I-1052006J-1133068D01*
G01*
X168631780Y-127368726D02*
G75*
G03X171869000Y-127022000I1497220J1306726D01*
G01*
X169105111Y-127141253D02*
G75*
G03X171153000Y-127122000I1013889J1079253D01*
G01*
X154103000Y-127342000D02*
X154103000Y-127142000D01*
X154103000Y-124748000D02*
X154103000Y-124928000D01*
X157330744Y-125058357D02*
G75*
G03X154103000Y-124742000I-1727744J-1003643D01*
G01*
X156655006Y-124928932D02*
G75*
G03X154552000Y-124928000I-1052006J-1133068D01*
G01*
X154115780Y-127368726D02*
G75*
G03X157353000Y-127022000I1497220J1306726D01*
G01*
X154589111Y-127141253D02*
G75*
G03X156637000Y-127122000I1013889J1079253D01*
G01*
X139587000Y-127342000D02*
X139587000Y-127142000D01*
X139587000Y-124748000D02*
X139587000Y-124928000D01*
X142814744Y-125058357D02*
G75*
G03X139587000Y-124742000I-1727744J-1003643D01*
G01*
X142139006Y-124928932D02*
G75*
G03X140036000Y-124928000I-1052006J-1133068D01*
G01*
X139599780Y-127368726D02*
G75*
G03X142837000Y-127022000I1497220J1306726D01*
G01*
X140073111Y-127141253D02*
G75*
G03X142121000Y-127122000I1013889J1079253D01*
G01*
X125071000Y-127342000D02*
X125071000Y-127142000D01*
X125071000Y-124748000D02*
X125071000Y-124928000D01*
X128298744Y-125058357D02*
G75*
G03X125071000Y-124742000I-1727744J-1003643D01*
G01*
X127623006Y-124928932D02*
G75*
G03X125520000Y-124928000I-1052006J-1133068D01*
G01*
X125083780Y-127368726D02*
G75*
G03X128321000Y-127022000I1497220J1306726D01*
G01*
X125557111Y-127141253D02*
G75*
G03X127605000Y-127122000I1013889J1079253D01*
G01*
X110809000Y-127342000D02*
X110809000Y-127142000D01*
X110809000Y-124748000D02*
X110809000Y-124928000D01*
X114036744Y-125058357D02*
G75*
G03X110809000Y-124742000I-1727744J-1003643D01*
G01*
X113361006Y-124928932D02*
G75*
G03X111258000Y-124928000I-1052006J-1133068D01*
G01*
X110821780Y-127368726D02*
G75*
G03X114059000Y-127022000I1497220J1306726D01*
G01*
X111295111Y-127141253D02*
G75*
G03X113343000Y-127122000I1013889J1079253D01*
G01*
X96293000Y-127342000D02*
X96293000Y-127142000D01*
X96293000Y-124748000D02*
X96293000Y-124928000D01*
X99520744Y-125058357D02*
G75*
G03X96293000Y-124742000I-1727744J-1003643D01*
G01*
X98845006Y-124928932D02*
G75*
G03X96742000Y-124928000I-1052006J-1133068D01*
G01*
X96305780Y-127368726D02*
G75*
G03X99543000Y-127022000I1497220J1306726D01*
G01*
X96779111Y-127141253D02*
G75*
G03X98827000Y-127122000I1013889J1079253D01*
G01*
X194154000Y-69392000D02*
X204154000Y-69392000D01*
X204154000Y-69392000D02*
X204154000Y-79392000D01*
X204154000Y-79392000D02*
X194154000Y-79392000D01*
X194154000Y-79392000D02*
X194154000Y-69392000D01*
X192154000Y-67392000D02*
X206154000Y-67392000D01*
X206154000Y-67392000D02*
X206154000Y-81392000D01*
X206154000Y-81392000D02*
X192154000Y-81392000D01*
X192154000Y-81392000D02*
X192154000Y-67392000D01*
X179676000Y-69392000D02*
X189676000Y-69392000D01*
X189676000Y-69392000D02*
X189676000Y-79392000D01*
X189676000Y-79392000D02*
X179676000Y-79392000D01*
X179676000Y-79392000D02*
X179676000Y-69392000D01*
X177676000Y-67392000D02*
X191676000Y-67392000D01*
X191676000Y-67392000D02*
X191676000Y-81392000D01*
X191676000Y-81392000D02*
X177676000Y-81392000D01*
X177676000Y-81392000D02*
X177676000Y-67392000D01*
X165198000Y-69392000D02*
X175198000Y-69392000D01*
X175198000Y-69392000D02*
X175198000Y-79392000D01*
X175198000Y-79392000D02*
X165198000Y-79392000D01*
X165198000Y-79392000D02*
X165198000Y-69392000D01*
X163198000Y-67392000D02*
X177198000Y-67392000D01*
X177198000Y-67392000D02*
X177198000Y-81392000D01*
X177198000Y-81392000D02*
X163198000Y-81392000D01*
X163198000Y-81392000D02*
X163198000Y-67392000D01*
X150720000Y-69392000D02*
X160720000Y-69392000D01*
X160720000Y-69392000D02*
X160720000Y-79392000D01*
X160720000Y-79392000D02*
X150720000Y-79392000D01*
X150720000Y-79392000D02*
X150720000Y-69392000D01*
X148720000Y-67392000D02*
X162720000Y-67392000D01*
X162720000Y-67392000D02*
X162720000Y-81392000D01*
X162720000Y-81392000D02*
X148720000Y-81392000D01*
X148720000Y-81392000D02*
X148720000Y-67392000D01*
X136242000Y-69392000D02*
X146242000Y-69392000D01*
X146242000Y-69392000D02*
X146242000Y-79392000D01*
X146242000Y-79392000D02*
X136242000Y-79392000D01*
X136242000Y-79392000D02*
X136242000Y-69392000D01*
X134242000Y-67392000D02*
X148242000Y-67392000D01*
X148242000Y-67392000D02*
X148242000Y-81392000D01*
X148242000Y-81392000D02*
X134242000Y-81392000D01*
X134242000Y-81392000D02*
X134242000Y-67392000D01*
X121764000Y-69392000D02*
X131764000Y-69392000D01*
X131764000Y-69392000D02*
X131764000Y-79392000D01*
X131764000Y-79392000D02*
X121764000Y-79392000D01*
X121764000Y-79392000D02*
X121764000Y-69392000D01*
X119764000Y-67392000D02*
X133764000Y-67392000D01*
X133764000Y-67392000D02*
X133764000Y-81392000D01*
X133764000Y-81392000D02*
X119764000Y-81392000D01*
X119764000Y-81392000D02*
X119764000Y-67392000D01*
X107286000Y-69392000D02*
X117286000Y-69392000D01*
X117286000Y-69392000D02*
X117286000Y-79392000D01*
X117286000Y-79392000D02*
X107286000Y-79392000D01*
X107286000Y-79392000D02*
X107286000Y-69392000D01*
X105286000Y-67392000D02*
X119286000Y-67392000D01*
X119286000Y-67392000D02*
X119286000Y-81392000D01*
X119286000Y-81392000D02*
X105286000Y-81392000D01*
X105286000Y-81392000D02*
X105286000Y-67392000D01*
X92808000Y-69392000D02*
X102808000Y-69392000D01*
X102808000Y-69392000D02*
X102808000Y-79392000D01*
X102808000Y-79392000D02*
X92808000Y-79392000D01*
X92808000Y-79392000D02*
X92808000Y-69392000D01*
X90808000Y-67392000D02*
X104808000Y-67392000D01*
X104808000Y-67392000D02*
X104808000Y-81392000D01*
X104808000Y-81392000D02*
X90808000Y-81392000D01*
X90808000Y-81392000D02*
X90808000Y-67392000D01*
X204100000Y-120278000D02*
X194100000Y-120278000D01*
X194100000Y-120278000D02*
X194100000Y-110278000D01*
X194100000Y-110278000D02*
X204100000Y-110278000D01*
X204100000Y-110278000D02*
X204100000Y-120278000D01*
X206100000Y-122278000D02*
X192100000Y-122278000D01*
X192100000Y-122278000D02*
X192100000Y-108278000D01*
X192100000Y-108278000D02*
X206100000Y-108278000D01*
X206100000Y-108278000D02*
X206100000Y-122278000D01*
X179584000Y-110278000D02*
X189584000Y-110278000D01*
X189584000Y-110278000D02*
X189584000Y-120278000D01*
X189584000Y-120278000D02*
X179584000Y-120278000D01*
X179584000Y-120278000D02*
X179584000Y-110278000D01*
X177584000Y-108278000D02*
X191584000Y-108278000D01*
X191584000Y-108278000D02*
X191584000Y-122278000D01*
X191584000Y-122278000D02*
X177584000Y-122278000D01*
X177584000Y-122278000D02*
X177584000Y-108278000D01*
X175068000Y-120278000D02*
X165068000Y-120278000D01*
X165068000Y-120278000D02*
X165068000Y-110278000D01*
X165068000Y-110278000D02*
X175068000Y-110278000D01*
X175068000Y-110278000D02*
X175068000Y-120278000D01*
X177068000Y-122278000D02*
X163068000Y-122278000D01*
X163068000Y-122278000D02*
X163068000Y-108278000D01*
X163068000Y-108278000D02*
X177068000Y-108278000D01*
X177068000Y-108278000D02*
X177068000Y-122278000D01*
X150552000Y-110278000D02*
X160552000Y-110278000D01*
X160552000Y-110278000D02*
X160552000Y-120278000D01*
X160552000Y-120278000D02*
X150552000Y-120278000D01*
X150552000Y-120278000D02*
X150552000Y-110278000D01*
X148552000Y-108278000D02*
X162552000Y-108278000D01*
X162552000Y-108278000D02*
X162552000Y-122278000D01*
X162552000Y-122278000D02*
X148552000Y-122278000D01*
X148552000Y-122278000D02*
X148552000Y-108278000D01*
X146036000Y-120278000D02*
X136036000Y-120278000D01*
X136036000Y-120278000D02*
X136036000Y-110278000D01*
X136036000Y-110278000D02*
X146036000Y-110278000D01*
X146036000Y-110278000D02*
X146036000Y-120278000D01*
X148036000Y-122278000D02*
X134036000Y-122278000D01*
X134036000Y-122278000D02*
X134036000Y-108278000D01*
X134036000Y-108278000D02*
X148036000Y-108278000D01*
X148036000Y-108278000D02*
X148036000Y-122278000D01*
X121520000Y-110278000D02*
X131520000Y-110278000D01*
X131520000Y-110278000D02*
X131520000Y-120278000D01*
X131520000Y-120278000D02*
X121520000Y-120278000D01*
X121520000Y-120278000D02*
X121520000Y-110278000D01*
X119520000Y-108278000D02*
X133520000Y-108278000D01*
X133520000Y-108278000D02*
X133520000Y-122278000D01*
X133520000Y-122278000D02*
X119520000Y-122278000D01*
X119520000Y-122278000D02*
X119520000Y-108278000D01*
X107004000Y-110278000D02*
X117004000Y-110278000D01*
X117004000Y-110278000D02*
X117004000Y-120278000D01*
X117004000Y-120278000D02*
X107004000Y-120278000D01*
X107004000Y-120278000D02*
X107004000Y-110278000D01*
X105004000Y-108278000D02*
X119004000Y-108278000D01*
X119004000Y-108278000D02*
X119004000Y-122278000D01*
X119004000Y-122278000D02*
X105004000Y-122278000D01*
X105004000Y-122278000D02*
X105004000Y-108278000D01*
X92808000Y-110286000D02*
X102808000Y-110286000D01*
X102808000Y-110286000D02*
X102808000Y-120286000D01*
X102808000Y-120286000D02*
X92808000Y-120286000D01*
X92808000Y-120286000D02*
X92808000Y-110286000D01*
X90808000Y-108286000D02*
X104808000Y-108286000D01*
X104808000Y-108286000D02*
X104808000Y-122286000D01*
X104808000Y-122286000D02*
X90808000Y-122286000D01*
X90808000Y-122286000D02*
X90808000Y-108286000D01*
X196360000Y-57374000D02*
X201440000Y-57374000D01*
X201440000Y-57374000D02*
X201440000Y-59914000D01*
X201440000Y-59914000D02*
X196360000Y-59914000D01*
X196360000Y-59914000D02*
X196360000Y-57374000D01*
X196360000Y-58644000D02*
X195090000Y-58644000D01*
X201440000Y-58644000D02*
X202710000Y-58644000D01*
X181882000Y-57374000D02*
X186962000Y-57374000D01*
X186962000Y-57374000D02*
X186962000Y-59914000D01*
X186962000Y-59914000D02*
X181882000Y-59914000D01*
X181882000Y-59914000D02*
X181882000Y-57374000D01*
X181882000Y-58644000D02*
X180612000Y-58644000D01*
X186962000Y-58644000D02*
X188232000Y-58644000D01*
X167404000Y-57374000D02*
X172484000Y-57374000D01*
X172484000Y-57374000D02*
X172484000Y-59914000D01*
X172484000Y-59914000D02*
X167404000Y-59914000D01*
X167404000Y-59914000D02*
X167404000Y-57374000D01*
X167404000Y-58644000D02*
X166134000Y-58644000D01*
X172484000Y-58644000D02*
X173754000Y-58644000D01*
X158006000Y-59914000D02*
X152926000Y-59914000D01*
X152926000Y-59914000D02*
X152926000Y-57374000D01*
X152926000Y-57374000D02*
X158006000Y-57374000D01*
X158006000Y-57374000D02*
X158006000Y-59914000D01*
X158006000Y-58644000D02*
X159276000Y-58644000D01*
X152926000Y-58644000D02*
X151656000Y-58644000D01*
X138448000Y-57374000D02*
X143528000Y-57374000D01*
X143528000Y-57374000D02*
X143528000Y-59914000D01*
X143528000Y-59914000D02*
X138448000Y-59914000D01*
X138448000Y-59914000D02*
X138448000Y-57374000D01*
X138448000Y-58644000D02*
X137178000Y-58644000D01*
X143528000Y-58644000D02*
X144798000Y-58644000D01*
X123970000Y-57374000D02*
X129050000Y-57374000D01*
X129050000Y-57374000D02*
X129050000Y-59914000D01*
X129050000Y-59914000D02*
X123970000Y-59914000D01*
X123970000Y-59914000D02*
X123970000Y-57374000D01*
X123970000Y-58644000D02*
X122700000Y-58644000D01*
X129050000Y-58644000D02*
X130320000Y-58644000D01*
X109492000Y-57374000D02*
X114572000Y-57374000D01*
X114572000Y-57374000D02*
X114572000Y-59914000D01*
X114572000Y-59914000D02*
X109492000Y-59914000D01*
X109492000Y-59914000D02*
X109492000Y-57374000D01*
X109492000Y-58644000D02*
X108222000Y-58644000D01*
X114572000Y-58644000D02*
X115842000Y-58644000D01*
X95014000Y-57374000D02*
X100094000Y-57374000D01*
X100094000Y-57374000D02*
X100094000Y-59914000D01*
X100094000Y-59914000D02*
X95014000Y-59914000D01*
X95014000Y-59914000D02*
X95014000Y-57374000D01*
X95014000Y-58644000D02*
X93744000Y-58644000D01*
X100094000Y-58644000D02*
X101364000Y-58644000D01*
X201694000Y-91410000D02*
X196614000Y-91410000D01*
X196614000Y-91410000D02*
X196614000Y-88870000D01*
X196614000Y-88870000D02*
X201694000Y-88870000D01*
X201694000Y-88870000D02*
X201694000Y-91410000D01*
X201694000Y-90140000D02*
X202964000Y-90140000D01*
X196614000Y-90140000D02*
X195344000Y-90140000D01*
X187216000Y-91410000D02*
X182136000Y-91410000D01*
X182136000Y-91410000D02*
X182136000Y-88870000D01*
X182136000Y-88870000D02*
X187216000Y-88870000D01*
X187216000Y-88870000D02*
X187216000Y-91410000D01*
X187216000Y-90140000D02*
X188486000Y-90140000D01*
X182136000Y-90140000D02*
X180866000Y-90140000D01*
X172484000Y-91410000D02*
X167404000Y-91410000D01*
X167404000Y-91410000D02*
X167404000Y-88870000D01*
X167404000Y-88870000D02*
X172484000Y-88870000D01*
X172484000Y-88870000D02*
X172484000Y-91410000D01*
X172484000Y-90140000D02*
X173754000Y-90140000D01*
X167404000Y-90140000D02*
X166134000Y-90140000D01*
X158260000Y-91410000D02*
X153180000Y-91410000D01*
X153180000Y-91410000D02*
X153180000Y-88870000D01*
X153180000Y-88870000D02*
X158260000Y-88870000D01*
X158260000Y-88870000D02*
X158260000Y-91410000D01*
X158260000Y-90140000D02*
X159530000Y-90140000D01*
X153180000Y-90140000D02*
X151910000Y-90140000D01*
X138702000Y-88870000D02*
X143782000Y-88870000D01*
X143782000Y-88870000D02*
X143782000Y-91410000D01*
X143782000Y-91410000D02*
X138702000Y-91410000D01*
X138702000Y-91410000D02*
X138702000Y-88870000D01*
X138702000Y-90140000D02*
X137432000Y-90140000D01*
X143782000Y-90140000D02*
X145052000Y-90140000D01*
X123970000Y-88870000D02*
X129050000Y-88870000D01*
X129050000Y-88870000D02*
X129050000Y-91410000D01*
X129050000Y-91410000D02*
X123970000Y-91410000D01*
X123970000Y-91410000D02*
X123970000Y-88870000D01*
X123970000Y-90140000D02*
X122700000Y-90140000D01*
X129050000Y-90140000D02*
X130320000Y-90140000D01*
X109238000Y-88870000D02*
X114318000Y-88870000D01*
X114318000Y-88870000D02*
X114318000Y-91410000D01*
X114318000Y-91410000D02*
X109238000Y-91410000D01*
X109238000Y-91410000D02*
X109238000Y-88870000D01*
X109238000Y-90140000D02*
X107968000Y-90140000D01*
X114318000Y-90140000D02*
X115588000Y-90140000D01*
X95268000Y-88870000D02*
X100348000Y-88870000D01*
X100348000Y-88870000D02*
X100348000Y-91410000D01*
X100348000Y-91410000D02*
X95268000Y-91410000D01*
X95268000Y-91410000D02*
X95268000Y-88870000D01*
X95268000Y-90140000D02*
X93998000Y-90140000D01*
X100348000Y-90140000D02*
X101618000Y-90140000D01*
X196614000Y-98268000D02*
X201694000Y-98268000D01*
X201694000Y-98268000D02*
X201694000Y-100808000D01*
X201694000Y-100808000D02*
X196614000Y-100808000D01*
X196614000Y-100808000D02*
X196614000Y-98268000D01*
X196614000Y-99538000D02*
X195344000Y-99538000D01*
X201694000Y-99538000D02*
X202964000Y-99538000D01*
X181882000Y-98268000D02*
X186962000Y-98268000D01*
X186962000Y-98268000D02*
X186962000Y-100808000D01*
X186962000Y-100808000D02*
X181882000Y-100808000D01*
X181882000Y-100808000D02*
X181882000Y-98268000D01*
X181882000Y-99538000D02*
X180612000Y-99538000D01*
X186962000Y-99538000D02*
X188232000Y-99538000D01*
X167404000Y-98268000D02*
X172484000Y-98268000D01*
X172484000Y-98268000D02*
X172484000Y-100808000D01*
X172484000Y-100808000D02*
X167404000Y-100808000D01*
X167404000Y-100808000D02*
X167404000Y-98268000D01*
X167404000Y-99538000D02*
X166134000Y-99538000D01*
X172484000Y-99538000D02*
X173754000Y-99538000D01*
X152926000Y-98268000D02*
X158006000Y-98268000D01*
X158006000Y-98268000D02*
X158006000Y-100808000D01*
X158006000Y-100808000D02*
X152926000Y-100808000D01*
X152926000Y-100808000D02*
X152926000Y-98268000D01*
X152926000Y-99538000D02*
X151656000Y-99538000D01*
X158006000Y-99538000D02*
X159276000Y-99538000D01*
X138448000Y-98268000D02*
X143528000Y-98268000D01*
X143528000Y-98268000D02*
X143528000Y-100808000D01*
X143528000Y-100808000D02*
X138448000Y-100808000D01*
X138448000Y-100808000D02*
X138448000Y-98268000D01*
X138448000Y-99538000D02*
X137178000Y-99538000D01*
X143528000Y-99538000D02*
X144798000Y-99538000D01*
X124224000Y-98268000D02*
X129304000Y-98268000D01*
X129304000Y-98268000D02*
X129304000Y-100808000D01*
X129304000Y-100808000D02*
X124224000Y-100808000D01*
X124224000Y-100808000D02*
X124224000Y-98268000D01*
X124224000Y-99538000D02*
X122954000Y-99538000D01*
X129304000Y-99538000D02*
X130574000Y-99538000D01*
X109746000Y-98268000D02*
X114826000Y-98268000D01*
X114826000Y-98268000D02*
X114826000Y-100808000D01*
X114826000Y-100808000D02*
X109746000Y-100808000D01*
X109746000Y-100808000D02*
X109746000Y-98268000D01*
X109746000Y-99538000D02*
X108476000Y-99538000D01*
X114826000Y-99538000D02*
X116096000Y-99538000D01*
X100348000Y-100808000D02*
X95268000Y-100808000D01*
X95268000Y-100808000D02*
X95268000Y-98268000D01*
X95268000Y-98268000D02*
X100348000Y-98268000D01*
X100348000Y-98268000D02*
X100348000Y-100808000D01*
X100348000Y-99538000D02*
X101618000Y-99538000D01*
X95268000Y-99538000D02*
X93998000Y-99538000D01*
X196360000Y-129510000D02*
X201440000Y-129510000D01*
X201440000Y-129510000D02*
X201440000Y-132050000D01*
X201440000Y-132050000D02*
X196360000Y-132050000D01*
X196360000Y-132050000D02*
X196360000Y-129510000D01*
X196360000Y-130780000D02*
X195090000Y-130780000D01*
X201440000Y-130780000D02*
X202710000Y-130780000D01*
X181882000Y-129510000D02*
X186962000Y-129510000D01*
X186962000Y-129510000D02*
X186962000Y-132050000D01*
X186962000Y-132050000D02*
X181882000Y-132050000D01*
X181882000Y-132050000D02*
X181882000Y-129510000D01*
X181882000Y-130780000D02*
X180612000Y-130780000D01*
X186962000Y-130780000D02*
X188232000Y-130780000D01*
X172484000Y-132050000D02*
X167404000Y-132050000D01*
X167404000Y-132050000D02*
X167404000Y-129510000D01*
X167404000Y-129510000D02*
X172484000Y-129510000D01*
X172484000Y-129510000D02*
X172484000Y-132050000D01*
X172484000Y-130780000D02*
X173754000Y-130780000D01*
X167404000Y-130780000D02*
X166134000Y-130780000D01*
X158006000Y-132050000D02*
X152926000Y-132050000D01*
X152926000Y-132050000D02*
X152926000Y-129510000D01*
X152926000Y-129510000D02*
X158006000Y-129510000D01*
X158006000Y-129510000D02*
X158006000Y-132050000D01*
X158006000Y-130780000D02*
X159276000Y-130780000D01*
X152926000Y-130780000D02*
X151656000Y-130780000D01*
X143528000Y-132050000D02*
X138448000Y-132050000D01*
X138448000Y-132050000D02*
X138448000Y-129510000D01*
X138448000Y-129510000D02*
X143528000Y-129510000D01*
X143528000Y-129510000D02*
X143528000Y-132050000D01*
X143528000Y-130780000D02*
X144798000Y-130780000D01*
X138448000Y-130780000D02*
X137178000Y-130780000D01*
X129050000Y-132050000D02*
X123970000Y-132050000D01*
X123970000Y-132050000D02*
X123970000Y-129510000D01*
X123970000Y-129510000D02*
X129050000Y-129510000D01*
X129050000Y-129510000D02*
X129050000Y-132050000D01*
X129050000Y-130780000D02*
X130320000Y-130780000D01*
X123970000Y-130780000D02*
X122700000Y-130780000D01*
X114572000Y-132050000D02*
X109492000Y-132050000D01*
X109492000Y-132050000D02*
X109492000Y-129510000D01*
X109492000Y-129510000D02*
X114572000Y-129510000D01*
X114572000Y-129510000D02*
X114572000Y-132050000D01*
X114572000Y-130780000D02*
X115842000Y-130780000D01*
X109492000Y-130780000D02*
X108222000Y-130780000D01*
X100348000Y-132050000D02*
X95268000Y-132050000D01*
X95268000Y-132050000D02*
X95268000Y-129510000D01*
X95268000Y-129510000D02*
X100348000Y-129510000D01*
X100348000Y-129510000D02*
X100348000Y-132050000D01*
X100348000Y-130780000D02*
X101618000Y-130780000D01*
X95268000Y-130780000D02*
X93998000Y-130780000D01*
X87261905Y-152992381D02*
X87261905Y-151992381D01*
X87642858Y-151992381D01*
X87738096Y-152040000D01*
X87785715Y-152087619D01*
X87833334Y-152182857D01*
X87833334Y-152325714D01*
X87785715Y-152420952D01*
X87738096Y-152468571D01*
X87642858Y-152516190D01*
X87261905Y-152516190D01*
X88690477Y-152325714D02*
X88690477Y-152992381D01*
X88452381Y-151944762D02*
X88214286Y-152659048D01*
X88833334Y-152659048D01*
X204261905Y-43992381D02*
X204261905Y-42992381D01*
X204642858Y-42992381D01*
X204738096Y-43040000D01*
X204785715Y-43087619D01*
X204833334Y-43182857D01*
X204833334Y-43325714D01*
X204785715Y-43420952D01*
X204738096Y-43468571D01*
X204642858Y-43516190D01*
X204261905Y-43516190D01*
X205166667Y-42992381D02*
X205785715Y-42992381D01*
X205452381Y-43373333D01*
X205595239Y-43373333D01*
X205690477Y-43420952D01*
X205738096Y-43468571D01*
X205785715Y-43563810D01*
X205785715Y-43801905D01*
X205738096Y-43897143D01*
X205690477Y-43944762D01*
X205595239Y-43992381D01*
X205309524Y-43992381D01*
X205214286Y-43944762D01*
X205166667Y-43897143D01*
X87261905Y-43992381D02*
X87261905Y-42992381D01*
X87642858Y-42992381D01*
X87738096Y-43040000D01*
X87785715Y-43087619D01*
X87833334Y-43182857D01*
X87833334Y-43325714D01*
X87785715Y-43420952D01*
X87738096Y-43468571D01*
X87642858Y-43516190D01*
X87261905Y-43516190D01*
X88738096Y-42992381D02*
X88261905Y-42992381D01*
X88214286Y-43468571D01*
X88261905Y-43420952D01*
X88357143Y-43373333D01*
X88595239Y-43373333D01*
X88690477Y-43420952D01*
X88738096Y-43468571D01*
X88785715Y-43563810D01*
X88785715Y-43801905D01*
X88738096Y-43897143D01*
X88690477Y-43944762D01*
X88595239Y-43992381D01*
X88357143Y-43992381D01*
X88261905Y-43944762D01*
X88214286Y-43897143D01*
X204261905Y-152992381D02*
X204261905Y-151992381D01*
X204642858Y-151992381D01*
X204738096Y-152040000D01*
X204785715Y-152087619D01*
X204833334Y-152182857D01*
X204833334Y-152325714D01*
X204785715Y-152420952D01*
X204738096Y-152468571D01*
X204642858Y-152516190D01*
X204261905Y-152516190D01*
X205214286Y-152087619D02*
X205261905Y-152040000D01*
X205357143Y-151992381D01*
X205595239Y-151992381D01*
X205690477Y-152040000D01*
X205738096Y-152087619D01*
X205785715Y-152182857D01*
X205785715Y-152278095D01*
X205738096Y-152420952D01*
X205166667Y-152992381D01*
X205785715Y-152992381D01*
X159696762Y-50702381D02*
X159363428Y-50226190D01*
X159125333Y-50702381D02*
X159125333Y-49702381D01*
X159506286Y-49702381D01*
X159601524Y-49750000D01*
X159649143Y-49797619D01*
X159696762Y-49892857D01*
X159696762Y-50035714D01*
X159649143Y-50130952D01*
X159601524Y-50178571D01*
X159506286Y-50226190D01*
X159125333Y-50226190D01*
X159982476Y-49702381D02*
X160315809Y-50702381D01*
X160649143Y-49702381D01*
X160934857Y-49797619D02*
X160982476Y-49750000D01*
X161077714Y-49702381D01*
X161315810Y-49702381D01*
X161411048Y-49750000D01*
X161458667Y-49797619D01*
X161506286Y-49892857D01*
X161506286Y-49988095D01*
X161458667Y-50130952D01*
X160887238Y-50702381D01*
X161506286Y-50702381D01*
X136074762Y-50702381D02*
X135741428Y-50226190D01*
X135503333Y-50702381D02*
X135503333Y-49702381D01*
X135884286Y-49702381D01*
X135979524Y-49750000D01*
X136027143Y-49797619D01*
X136074762Y-49892857D01*
X136074762Y-50035714D01*
X136027143Y-50130952D01*
X135979524Y-50178571D01*
X135884286Y-50226190D01*
X135503333Y-50226190D01*
X136360476Y-49702381D02*
X136693809Y-50702381D01*
X137027143Y-49702381D01*
X137884286Y-50702381D02*
X137312857Y-50702381D01*
X137598571Y-50702381D02*
X137598571Y-49702381D01*
X137503333Y-49845238D01*
X137408095Y-49940476D01*
X137312857Y-49988095D01*
X197722571Y-67236381D02*
X197722571Y-66236381D01*
X197960666Y-66236381D01*
X198103524Y-66284000D01*
X198198762Y-66379238D01*
X198246381Y-66474476D01*
X198294000Y-66664952D01*
X198294000Y-66807810D01*
X198246381Y-66998286D01*
X198198762Y-67093524D01*
X198103524Y-67188762D01*
X197960666Y-67236381D01*
X197722571Y-67236381D01*
X198674952Y-66331619D02*
X198722571Y-66284000D01*
X198817809Y-66236381D01*
X199055905Y-66236381D01*
X199151143Y-66284000D01*
X199198762Y-66331619D01*
X199246381Y-66426857D01*
X199246381Y-66522095D01*
X199198762Y-66664952D01*
X198627333Y-67236381D01*
X199246381Y-67236381D01*
X199436857Y-67331619D02*
X200198762Y-67331619D01*
X200960667Y-67236381D02*
X200389238Y-67236381D01*
X200674952Y-67236381D02*
X200674952Y-66236381D01*
X200579714Y-66379238D01*
X200484476Y-66474476D01*
X200389238Y-66522095D01*
X201865429Y-66236381D02*
X201389238Y-66236381D01*
X201341619Y-66712571D01*
X201389238Y-66664952D01*
X201484476Y-66617333D01*
X201722572Y-66617333D01*
X201817810Y-66664952D01*
X201865429Y-66712571D01*
X201913048Y-66807810D01*
X201913048Y-67045905D01*
X201865429Y-67141143D01*
X201817810Y-67188762D01*
X201722572Y-67236381D01*
X201484476Y-67236381D01*
X201389238Y-67188762D01*
X201341619Y-67141143D01*
X195932095Y-65916381D02*
X195932095Y-64916381D01*
X196503524Y-65916381D02*
X196074952Y-65344952D01*
X196503524Y-64916381D02*
X195932095Y-65487810D01*
X183244571Y-67236381D02*
X183244571Y-66236381D01*
X183482666Y-66236381D01*
X183625524Y-66284000D01*
X183720762Y-66379238D01*
X183768381Y-66474476D01*
X183816000Y-66664952D01*
X183816000Y-66807810D01*
X183768381Y-66998286D01*
X183720762Y-67093524D01*
X183625524Y-67188762D01*
X183482666Y-67236381D01*
X183244571Y-67236381D01*
X184196952Y-66331619D02*
X184244571Y-66284000D01*
X184339809Y-66236381D01*
X184577905Y-66236381D01*
X184673143Y-66284000D01*
X184720762Y-66331619D01*
X184768381Y-66426857D01*
X184768381Y-66522095D01*
X184720762Y-66664952D01*
X184149333Y-67236381D01*
X184768381Y-67236381D01*
X184958857Y-67331619D02*
X185720762Y-67331619D01*
X186482667Y-67236381D02*
X185911238Y-67236381D01*
X186196952Y-67236381D02*
X186196952Y-66236381D01*
X186101714Y-66379238D01*
X186006476Y-66474476D01*
X185911238Y-66522095D01*
X187339810Y-66569714D02*
X187339810Y-67236381D01*
X187101714Y-66188762D02*
X186863619Y-66903048D01*
X187482667Y-66903048D01*
X181454095Y-65916381D02*
X181454095Y-64916381D01*
X182025524Y-65916381D02*
X181596952Y-65344952D01*
X182025524Y-64916381D02*
X181454095Y-65487810D01*
X168766571Y-67236381D02*
X168766571Y-66236381D01*
X169004666Y-66236381D01*
X169147524Y-66284000D01*
X169242762Y-66379238D01*
X169290381Y-66474476D01*
X169338000Y-66664952D01*
X169338000Y-66807810D01*
X169290381Y-66998286D01*
X169242762Y-67093524D01*
X169147524Y-67188762D01*
X169004666Y-67236381D01*
X168766571Y-67236381D01*
X169718952Y-66331619D02*
X169766571Y-66284000D01*
X169861809Y-66236381D01*
X170099905Y-66236381D01*
X170195143Y-66284000D01*
X170242762Y-66331619D01*
X170290381Y-66426857D01*
X170290381Y-66522095D01*
X170242762Y-66664952D01*
X169671333Y-67236381D01*
X170290381Y-67236381D01*
X170480857Y-67331619D02*
X171242762Y-67331619D01*
X172004667Y-67236381D02*
X171433238Y-67236381D01*
X171718952Y-67236381D02*
X171718952Y-66236381D01*
X171623714Y-66379238D01*
X171528476Y-66474476D01*
X171433238Y-66522095D01*
X172338000Y-66236381D02*
X172957048Y-66236381D01*
X172623714Y-66617333D01*
X172766572Y-66617333D01*
X172861810Y-66664952D01*
X172909429Y-66712571D01*
X172957048Y-66807810D01*
X172957048Y-67045905D01*
X172909429Y-67141143D01*
X172861810Y-67188762D01*
X172766572Y-67236381D01*
X172480857Y-67236381D01*
X172385619Y-67188762D01*
X172338000Y-67141143D01*
X166976095Y-65916381D02*
X166976095Y-64916381D01*
X167547524Y-65916381D02*
X167118952Y-65344952D01*
X167547524Y-64916381D02*
X166976095Y-65487810D01*
X154288571Y-67236381D02*
X154288571Y-66236381D01*
X154526666Y-66236381D01*
X154669524Y-66284000D01*
X154764762Y-66379238D01*
X154812381Y-66474476D01*
X154860000Y-66664952D01*
X154860000Y-66807810D01*
X154812381Y-66998286D01*
X154764762Y-67093524D01*
X154669524Y-67188762D01*
X154526666Y-67236381D01*
X154288571Y-67236381D01*
X155240952Y-66331619D02*
X155288571Y-66284000D01*
X155383809Y-66236381D01*
X155621905Y-66236381D01*
X155717143Y-66284000D01*
X155764762Y-66331619D01*
X155812381Y-66426857D01*
X155812381Y-66522095D01*
X155764762Y-66664952D01*
X155193333Y-67236381D01*
X155812381Y-67236381D01*
X156002857Y-67331619D02*
X156764762Y-67331619D01*
X157526667Y-67236381D02*
X156955238Y-67236381D01*
X157240952Y-67236381D02*
X157240952Y-66236381D01*
X157145714Y-66379238D01*
X157050476Y-66474476D01*
X156955238Y-66522095D01*
X157907619Y-66331619D02*
X157955238Y-66284000D01*
X158050476Y-66236381D01*
X158288572Y-66236381D01*
X158383810Y-66284000D01*
X158431429Y-66331619D01*
X158479048Y-66426857D01*
X158479048Y-66522095D01*
X158431429Y-66664952D01*
X157860000Y-67236381D01*
X158479048Y-67236381D01*
X152498095Y-65916381D02*
X152498095Y-64916381D01*
X153069524Y-65916381D02*
X152640952Y-65344952D01*
X153069524Y-64916381D02*
X152498095Y-65487810D01*
X139810571Y-67236381D02*
X139810571Y-66236381D01*
X140048666Y-66236381D01*
X140191524Y-66284000D01*
X140286762Y-66379238D01*
X140334381Y-66474476D01*
X140382000Y-66664952D01*
X140382000Y-66807810D01*
X140334381Y-66998286D01*
X140286762Y-67093524D01*
X140191524Y-67188762D01*
X140048666Y-67236381D01*
X139810571Y-67236381D01*
X140762952Y-66331619D02*
X140810571Y-66284000D01*
X140905809Y-66236381D01*
X141143905Y-66236381D01*
X141239143Y-66284000D01*
X141286762Y-66331619D01*
X141334381Y-66426857D01*
X141334381Y-66522095D01*
X141286762Y-66664952D01*
X140715333Y-67236381D01*
X141334381Y-67236381D01*
X141524857Y-67331619D02*
X142286762Y-67331619D01*
X143048667Y-67236381D02*
X142477238Y-67236381D01*
X142762952Y-67236381D02*
X142762952Y-66236381D01*
X142667714Y-66379238D01*
X142572476Y-66474476D01*
X142477238Y-66522095D01*
X144001048Y-67236381D02*
X143429619Y-67236381D01*
X143715333Y-67236381D02*
X143715333Y-66236381D01*
X143620095Y-66379238D01*
X143524857Y-66474476D01*
X143429619Y-66522095D01*
X138020095Y-65916381D02*
X138020095Y-64916381D01*
X138591524Y-65916381D02*
X138162952Y-65344952D01*
X138591524Y-64916381D02*
X138020095Y-65487810D01*
X125332571Y-67236381D02*
X125332571Y-66236381D01*
X125570666Y-66236381D01*
X125713524Y-66284000D01*
X125808762Y-66379238D01*
X125856381Y-66474476D01*
X125904000Y-66664952D01*
X125904000Y-66807810D01*
X125856381Y-66998286D01*
X125808762Y-67093524D01*
X125713524Y-67188762D01*
X125570666Y-67236381D01*
X125332571Y-67236381D01*
X126284952Y-66331619D02*
X126332571Y-66284000D01*
X126427809Y-66236381D01*
X126665905Y-66236381D01*
X126761143Y-66284000D01*
X126808762Y-66331619D01*
X126856381Y-66426857D01*
X126856381Y-66522095D01*
X126808762Y-66664952D01*
X126237333Y-67236381D01*
X126856381Y-67236381D01*
X127046857Y-67331619D02*
X127808762Y-67331619D01*
X128570667Y-67236381D02*
X127999238Y-67236381D01*
X128284952Y-67236381D02*
X128284952Y-66236381D01*
X128189714Y-66379238D01*
X128094476Y-66474476D01*
X127999238Y-66522095D01*
X129189714Y-66236381D02*
X129284953Y-66236381D01*
X129380191Y-66284000D01*
X129427810Y-66331619D01*
X129475429Y-66426857D01*
X129523048Y-66617333D01*
X129523048Y-66855429D01*
X129475429Y-67045905D01*
X129427810Y-67141143D01*
X129380191Y-67188762D01*
X129284953Y-67236381D01*
X129189714Y-67236381D01*
X129094476Y-67188762D01*
X129046857Y-67141143D01*
X128999238Y-67045905D01*
X128951619Y-66855429D01*
X128951619Y-66617333D01*
X128999238Y-66426857D01*
X129046857Y-66331619D01*
X129094476Y-66284000D01*
X129189714Y-66236381D01*
X123542095Y-65916381D02*
X123542095Y-64916381D01*
X124113524Y-65916381D02*
X123684952Y-65344952D01*
X124113524Y-64916381D02*
X123542095Y-65487810D01*
X111330762Y-67236381D02*
X111330762Y-66236381D01*
X111568857Y-66236381D01*
X111711715Y-66284000D01*
X111806953Y-66379238D01*
X111854572Y-66474476D01*
X111902191Y-66664952D01*
X111902191Y-66807810D01*
X111854572Y-66998286D01*
X111806953Y-67093524D01*
X111711715Y-67188762D01*
X111568857Y-67236381D01*
X111330762Y-67236381D01*
X112283143Y-66331619D02*
X112330762Y-66284000D01*
X112426000Y-66236381D01*
X112664096Y-66236381D01*
X112759334Y-66284000D01*
X112806953Y-66331619D01*
X112854572Y-66426857D01*
X112854572Y-66522095D01*
X112806953Y-66664952D01*
X112235524Y-67236381D01*
X112854572Y-67236381D01*
X113045048Y-67331619D02*
X113806953Y-67331619D01*
X114092667Y-67236381D02*
X114283143Y-67236381D01*
X114378382Y-67188762D01*
X114426001Y-67141143D01*
X114521239Y-66998286D01*
X114568858Y-66807810D01*
X114568858Y-66426857D01*
X114521239Y-66331619D01*
X114473620Y-66284000D01*
X114378382Y-66236381D01*
X114187905Y-66236381D01*
X114092667Y-66284000D01*
X114045048Y-66331619D01*
X113997429Y-66426857D01*
X113997429Y-66664952D01*
X114045048Y-66760190D01*
X114092667Y-66807810D01*
X114187905Y-66855429D01*
X114378382Y-66855429D01*
X114473620Y-66807810D01*
X114521239Y-66760190D01*
X114568858Y-66664952D01*
X109064095Y-65916381D02*
X109064095Y-64916381D01*
X109635524Y-65916381D02*
X109206952Y-65344952D01*
X109635524Y-64916381D02*
X109064095Y-65487810D01*
X96852762Y-67236381D02*
X96852762Y-66236381D01*
X97090857Y-66236381D01*
X97233715Y-66284000D01*
X97328953Y-66379238D01*
X97376572Y-66474476D01*
X97424191Y-66664952D01*
X97424191Y-66807810D01*
X97376572Y-66998286D01*
X97328953Y-67093524D01*
X97233715Y-67188762D01*
X97090857Y-67236381D01*
X96852762Y-67236381D01*
X97805143Y-66331619D02*
X97852762Y-66284000D01*
X97948000Y-66236381D01*
X98186096Y-66236381D01*
X98281334Y-66284000D01*
X98328953Y-66331619D01*
X98376572Y-66426857D01*
X98376572Y-66522095D01*
X98328953Y-66664952D01*
X97757524Y-67236381D01*
X98376572Y-67236381D01*
X98567048Y-67331619D02*
X99328953Y-67331619D01*
X99709905Y-66664952D02*
X99614667Y-66617333D01*
X99567048Y-66569714D01*
X99519429Y-66474476D01*
X99519429Y-66426857D01*
X99567048Y-66331619D01*
X99614667Y-66284000D01*
X99709905Y-66236381D01*
X99900382Y-66236381D01*
X99995620Y-66284000D01*
X100043239Y-66331619D01*
X100090858Y-66426857D01*
X100090858Y-66474476D01*
X100043239Y-66569714D01*
X99995620Y-66617333D01*
X99900382Y-66664952D01*
X99709905Y-66664952D01*
X99614667Y-66712571D01*
X99567048Y-66760190D01*
X99519429Y-66855429D01*
X99519429Y-67045905D01*
X99567048Y-67141143D01*
X99614667Y-67188762D01*
X99709905Y-67236381D01*
X99900382Y-67236381D01*
X99995620Y-67188762D01*
X100043239Y-67141143D01*
X100090858Y-67045905D01*
X100090858Y-66855429D01*
X100043239Y-66760190D01*
X99995620Y-66712571D01*
X99900382Y-66664952D01*
X94586095Y-65916381D02*
X94586095Y-64916381D01*
X95157524Y-65916381D02*
X94728952Y-65344952D01*
X95157524Y-64916381D02*
X94586095Y-65487810D01*
X198164762Y-107790381D02*
X198164762Y-106790381D01*
X198402857Y-106790381D01*
X198545715Y-106838000D01*
X198640953Y-106933238D01*
X198688572Y-107028476D01*
X198736191Y-107218952D01*
X198736191Y-107361810D01*
X198688572Y-107552286D01*
X198640953Y-107647524D01*
X198545715Y-107742762D01*
X198402857Y-107790381D01*
X198164762Y-107790381D01*
X199117143Y-106885619D02*
X199164762Y-106838000D01*
X199260000Y-106790381D01*
X199498096Y-106790381D01*
X199593334Y-106838000D01*
X199640953Y-106885619D01*
X199688572Y-106980857D01*
X199688572Y-107076095D01*
X199640953Y-107218952D01*
X199069524Y-107790381D01*
X199688572Y-107790381D01*
X199879048Y-107885619D02*
X200640953Y-107885619D01*
X200783810Y-106790381D02*
X201450477Y-106790381D01*
X201021905Y-107790381D01*
X195898095Y-106470381D02*
X195898095Y-105470381D01*
X196469524Y-106470381D02*
X196040952Y-105898952D01*
X196469524Y-105470381D02*
X195898095Y-106041810D01*
X183648762Y-108040381D02*
X183648762Y-107040381D01*
X183886857Y-107040381D01*
X184029715Y-107088000D01*
X184124953Y-107183238D01*
X184172572Y-107278476D01*
X184220191Y-107468952D01*
X184220191Y-107611810D01*
X184172572Y-107802286D01*
X184124953Y-107897524D01*
X184029715Y-107992762D01*
X183886857Y-108040381D01*
X183648762Y-108040381D01*
X184601143Y-107135619D02*
X184648762Y-107088000D01*
X184744000Y-107040381D01*
X184982096Y-107040381D01*
X185077334Y-107088000D01*
X185124953Y-107135619D01*
X185172572Y-107230857D01*
X185172572Y-107326095D01*
X185124953Y-107468952D01*
X184553524Y-108040381D01*
X185172572Y-108040381D01*
X185363048Y-108135619D02*
X186124953Y-108135619D01*
X186791620Y-107040381D02*
X186601143Y-107040381D01*
X186505905Y-107088000D01*
X186458286Y-107135619D01*
X186363048Y-107278476D01*
X186315429Y-107468952D01*
X186315429Y-107849905D01*
X186363048Y-107945143D01*
X186410667Y-107992762D01*
X186505905Y-108040381D01*
X186696382Y-108040381D01*
X186791620Y-107992762D01*
X186839239Y-107945143D01*
X186886858Y-107849905D01*
X186886858Y-107611810D01*
X186839239Y-107516571D01*
X186791620Y-107468952D01*
X186696382Y-107421333D01*
X186505905Y-107421333D01*
X186410667Y-107468952D01*
X186363048Y-107516571D01*
X186315429Y-107611810D01*
X181382095Y-106720381D02*
X181382095Y-105720381D01*
X181953524Y-106720381D02*
X181524952Y-106148952D01*
X181953524Y-105720381D02*
X181382095Y-106291810D01*
X169132762Y-108040381D02*
X169132762Y-107040381D01*
X169370857Y-107040381D01*
X169513715Y-107088000D01*
X169608953Y-107183238D01*
X169656572Y-107278476D01*
X169704191Y-107468952D01*
X169704191Y-107611810D01*
X169656572Y-107802286D01*
X169608953Y-107897524D01*
X169513715Y-107992762D01*
X169370857Y-108040381D01*
X169132762Y-108040381D01*
X170085143Y-107135619D02*
X170132762Y-107088000D01*
X170228000Y-107040381D01*
X170466096Y-107040381D01*
X170561334Y-107088000D01*
X170608953Y-107135619D01*
X170656572Y-107230857D01*
X170656572Y-107326095D01*
X170608953Y-107468952D01*
X170037524Y-108040381D01*
X170656572Y-108040381D01*
X170847048Y-108135619D02*
X171608953Y-108135619D01*
X172323239Y-107040381D02*
X171847048Y-107040381D01*
X171799429Y-107516571D01*
X171847048Y-107468952D01*
X171942286Y-107421333D01*
X172180382Y-107421333D01*
X172275620Y-107468952D01*
X172323239Y-107516571D01*
X172370858Y-107611810D01*
X172370858Y-107849905D01*
X172323239Y-107945143D01*
X172275620Y-107992762D01*
X172180382Y-108040381D01*
X171942286Y-108040381D01*
X171847048Y-107992762D01*
X171799429Y-107945143D01*
X166866095Y-106720381D02*
X166866095Y-105720381D01*
X167437524Y-106720381D02*
X167008952Y-106148952D01*
X167437524Y-105720381D02*
X166866095Y-106291810D01*
X154616762Y-108040381D02*
X154616762Y-107040381D01*
X154854857Y-107040381D01*
X154997715Y-107088000D01*
X155092953Y-107183238D01*
X155140572Y-107278476D01*
X155188191Y-107468952D01*
X155188191Y-107611810D01*
X155140572Y-107802286D01*
X155092953Y-107897524D01*
X154997715Y-107992762D01*
X154854857Y-108040381D01*
X154616762Y-108040381D01*
X155569143Y-107135619D02*
X155616762Y-107088000D01*
X155712000Y-107040381D01*
X155950096Y-107040381D01*
X156045334Y-107088000D01*
X156092953Y-107135619D01*
X156140572Y-107230857D01*
X156140572Y-107326095D01*
X156092953Y-107468952D01*
X155521524Y-108040381D01*
X156140572Y-108040381D01*
X156331048Y-108135619D02*
X157092953Y-108135619D01*
X157759620Y-107373714D02*
X157759620Y-108040381D01*
X157521524Y-106992762D02*
X157283429Y-107707048D01*
X157902477Y-107707048D01*
X152350095Y-106720381D02*
X152350095Y-105720381D01*
X152921524Y-106720381D02*
X152492952Y-106148952D01*
X152921524Y-105720381D02*
X152350095Y-106291810D01*
X140100762Y-108040381D02*
X140100762Y-107040381D01*
X140338857Y-107040381D01*
X140481715Y-107088000D01*
X140576953Y-107183238D01*
X140624572Y-107278476D01*
X140672191Y-107468952D01*
X140672191Y-107611810D01*
X140624572Y-107802286D01*
X140576953Y-107897524D01*
X140481715Y-107992762D01*
X140338857Y-108040381D01*
X140100762Y-108040381D01*
X141053143Y-107135619D02*
X141100762Y-107088000D01*
X141196000Y-107040381D01*
X141434096Y-107040381D01*
X141529334Y-107088000D01*
X141576953Y-107135619D01*
X141624572Y-107230857D01*
X141624572Y-107326095D01*
X141576953Y-107468952D01*
X141005524Y-108040381D01*
X141624572Y-108040381D01*
X141815048Y-108135619D02*
X142576953Y-108135619D01*
X142719810Y-107040381D02*
X143338858Y-107040381D01*
X143005524Y-107421333D01*
X143148382Y-107421333D01*
X143243620Y-107468952D01*
X143291239Y-107516571D01*
X143338858Y-107611810D01*
X143338858Y-107849905D01*
X143291239Y-107945143D01*
X143243620Y-107992762D01*
X143148382Y-108040381D01*
X142862667Y-108040381D01*
X142767429Y-107992762D01*
X142719810Y-107945143D01*
X137834095Y-106720381D02*
X137834095Y-105720381D01*
X138405524Y-106720381D02*
X137976952Y-106148952D01*
X138405524Y-105720381D02*
X137834095Y-106291810D01*
X125584762Y-108040381D02*
X125584762Y-107040381D01*
X125822857Y-107040381D01*
X125965715Y-107088000D01*
X126060953Y-107183238D01*
X126108572Y-107278476D01*
X126156191Y-107468952D01*
X126156191Y-107611810D01*
X126108572Y-107802286D01*
X126060953Y-107897524D01*
X125965715Y-107992762D01*
X125822857Y-108040381D01*
X125584762Y-108040381D01*
X126537143Y-107135619D02*
X126584762Y-107088000D01*
X126680000Y-107040381D01*
X126918096Y-107040381D01*
X127013334Y-107088000D01*
X127060953Y-107135619D01*
X127108572Y-107230857D01*
X127108572Y-107326095D01*
X127060953Y-107468952D01*
X126489524Y-108040381D01*
X127108572Y-108040381D01*
X127299048Y-108135619D02*
X128060953Y-108135619D01*
X128251429Y-107135619D02*
X128299048Y-107088000D01*
X128394286Y-107040381D01*
X128632382Y-107040381D01*
X128727620Y-107088000D01*
X128775239Y-107135619D01*
X128822858Y-107230857D01*
X128822858Y-107326095D01*
X128775239Y-107468952D01*
X128203810Y-108040381D01*
X128822858Y-108040381D01*
X123318095Y-106720381D02*
X123318095Y-105720381D01*
X123889524Y-106720381D02*
X123460952Y-106148952D01*
X123889524Y-105720381D02*
X123318095Y-106291810D01*
X111322762Y-108040381D02*
X111322762Y-107040381D01*
X111560857Y-107040381D01*
X111703715Y-107088000D01*
X111798953Y-107183238D01*
X111846572Y-107278476D01*
X111894191Y-107468952D01*
X111894191Y-107611810D01*
X111846572Y-107802286D01*
X111798953Y-107897524D01*
X111703715Y-107992762D01*
X111560857Y-108040381D01*
X111322762Y-108040381D01*
X112275143Y-107135619D02*
X112322762Y-107088000D01*
X112418000Y-107040381D01*
X112656096Y-107040381D01*
X112751334Y-107088000D01*
X112798953Y-107135619D01*
X112846572Y-107230857D01*
X112846572Y-107326095D01*
X112798953Y-107468952D01*
X112227524Y-108040381D01*
X112846572Y-108040381D01*
X113037048Y-108135619D02*
X113798953Y-108135619D01*
X114560858Y-108040381D02*
X113989429Y-108040381D01*
X114275143Y-108040381D02*
X114275143Y-107040381D01*
X114179905Y-107183238D01*
X114084667Y-107278476D01*
X113989429Y-107326095D01*
X109056095Y-106720381D02*
X109056095Y-105720381D01*
X109627524Y-106720381D02*
X109198952Y-106148952D01*
X109627524Y-105720381D02*
X109056095Y-106291810D01*
X96806762Y-108040381D02*
X96806762Y-107040381D01*
X97044857Y-107040381D01*
X97187715Y-107088000D01*
X97282953Y-107183238D01*
X97330572Y-107278476D01*
X97378191Y-107468952D01*
X97378191Y-107611810D01*
X97330572Y-107802286D01*
X97282953Y-107897524D01*
X97187715Y-107992762D01*
X97044857Y-108040381D01*
X96806762Y-108040381D01*
X97759143Y-107135619D02*
X97806762Y-107088000D01*
X97902000Y-107040381D01*
X98140096Y-107040381D01*
X98235334Y-107088000D01*
X98282953Y-107135619D01*
X98330572Y-107230857D01*
X98330572Y-107326095D01*
X98282953Y-107468952D01*
X97711524Y-108040381D01*
X98330572Y-108040381D01*
X98521048Y-108135619D02*
X99282953Y-108135619D01*
X99711524Y-107040381D02*
X99806763Y-107040381D01*
X99902001Y-107088000D01*
X99949620Y-107135619D01*
X99997239Y-107230857D01*
X100044858Y-107421333D01*
X100044858Y-107659429D01*
X99997239Y-107849905D01*
X99949620Y-107945143D01*
X99902001Y-107992762D01*
X99806763Y-108040381D01*
X99711524Y-108040381D01*
X99616286Y-107992762D01*
X99568667Y-107945143D01*
X99521048Y-107849905D01*
X99473429Y-107659429D01*
X99473429Y-107421333D01*
X99521048Y-107230857D01*
X99568667Y-107135619D01*
X99616286Y-107088000D01*
X99711524Y-107040381D01*
X94540095Y-106720381D02*
X94540095Y-105720381D01*
X95111524Y-106720381D02*
X94682952Y-106148952D01*
X95111524Y-105720381D02*
X94540095Y-106291810D01*
X197722571Y-88826381D02*
X197722571Y-87826381D01*
X197960666Y-87826381D01*
X198103524Y-87874000D01*
X198198762Y-87969238D01*
X198246381Y-88064476D01*
X198294000Y-88254952D01*
X198294000Y-88397810D01*
X198246381Y-88588286D01*
X198198762Y-88683524D01*
X198103524Y-88778762D01*
X197960666Y-88826381D01*
X197722571Y-88826381D01*
X199246381Y-88826381D02*
X198674952Y-88826381D01*
X198960666Y-88826381D02*
X198960666Y-87826381D01*
X198865428Y-87969238D01*
X198770190Y-88064476D01*
X198674952Y-88112095D01*
X199436857Y-88921619D02*
X200198762Y-88921619D01*
X200960667Y-88826381D02*
X200389238Y-88826381D01*
X200674952Y-88826381D02*
X200674952Y-87826381D01*
X200579714Y-87969238D01*
X200484476Y-88064476D01*
X200389238Y-88112095D01*
X201865429Y-87826381D02*
X201389238Y-87826381D01*
X201341619Y-88302571D01*
X201389238Y-88254952D01*
X201484476Y-88207333D01*
X201722572Y-88207333D01*
X201817810Y-88254952D01*
X201865429Y-88302571D01*
X201913048Y-88397810D01*
X201913048Y-88635905D01*
X201865429Y-88731143D01*
X201817810Y-88778762D01*
X201722572Y-88826381D01*
X201484476Y-88826381D01*
X201389238Y-88778762D01*
X201341619Y-88731143D01*
X195932095Y-87506381D02*
X195932095Y-86506381D01*
X196503524Y-87506381D02*
X196074952Y-86934952D01*
X196503524Y-86506381D02*
X195932095Y-87077810D01*
X183244571Y-88826381D02*
X183244571Y-87826381D01*
X183482666Y-87826381D01*
X183625524Y-87874000D01*
X183720762Y-87969238D01*
X183768381Y-88064476D01*
X183816000Y-88254952D01*
X183816000Y-88397810D01*
X183768381Y-88588286D01*
X183720762Y-88683524D01*
X183625524Y-88778762D01*
X183482666Y-88826381D01*
X183244571Y-88826381D01*
X184768381Y-88826381D02*
X184196952Y-88826381D01*
X184482666Y-88826381D02*
X184482666Y-87826381D01*
X184387428Y-87969238D01*
X184292190Y-88064476D01*
X184196952Y-88112095D01*
X184958857Y-88921619D02*
X185720762Y-88921619D01*
X186482667Y-88826381D02*
X185911238Y-88826381D01*
X186196952Y-88826381D02*
X186196952Y-87826381D01*
X186101714Y-87969238D01*
X186006476Y-88064476D01*
X185911238Y-88112095D01*
X187339810Y-88159714D02*
X187339810Y-88826381D01*
X187101714Y-87778762D02*
X186863619Y-88493048D01*
X187482667Y-88493048D01*
X181454095Y-87506381D02*
X181454095Y-86506381D01*
X182025524Y-87506381D02*
X181596952Y-86934952D01*
X182025524Y-86506381D02*
X181454095Y-87077810D01*
X168766571Y-88826381D02*
X168766571Y-87826381D01*
X169004666Y-87826381D01*
X169147524Y-87874000D01*
X169242762Y-87969238D01*
X169290381Y-88064476D01*
X169338000Y-88254952D01*
X169338000Y-88397810D01*
X169290381Y-88588286D01*
X169242762Y-88683524D01*
X169147524Y-88778762D01*
X169004666Y-88826381D01*
X168766571Y-88826381D01*
X170290381Y-88826381D02*
X169718952Y-88826381D01*
X170004666Y-88826381D02*
X170004666Y-87826381D01*
X169909428Y-87969238D01*
X169814190Y-88064476D01*
X169718952Y-88112095D01*
X170480857Y-88921619D02*
X171242762Y-88921619D01*
X172004667Y-88826381D02*
X171433238Y-88826381D01*
X171718952Y-88826381D02*
X171718952Y-87826381D01*
X171623714Y-87969238D01*
X171528476Y-88064476D01*
X171433238Y-88112095D01*
X172338000Y-87826381D02*
X172957048Y-87826381D01*
X172623714Y-88207333D01*
X172766572Y-88207333D01*
X172861810Y-88254952D01*
X172909429Y-88302571D01*
X172957048Y-88397810D01*
X172957048Y-88635905D01*
X172909429Y-88731143D01*
X172861810Y-88778762D01*
X172766572Y-88826381D01*
X172480857Y-88826381D01*
X172385619Y-88778762D01*
X172338000Y-88731143D01*
X166976095Y-87506381D02*
X166976095Y-86506381D01*
X167547524Y-87506381D02*
X167118952Y-86934952D01*
X167547524Y-86506381D02*
X166976095Y-87077810D01*
X154288571Y-88826381D02*
X154288571Y-87826381D01*
X154526666Y-87826381D01*
X154669524Y-87874000D01*
X154764762Y-87969238D01*
X154812381Y-88064476D01*
X154860000Y-88254952D01*
X154860000Y-88397810D01*
X154812381Y-88588286D01*
X154764762Y-88683524D01*
X154669524Y-88778762D01*
X154526666Y-88826381D01*
X154288571Y-88826381D01*
X155812381Y-88826381D02*
X155240952Y-88826381D01*
X155526666Y-88826381D02*
X155526666Y-87826381D01*
X155431428Y-87969238D01*
X155336190Y-88064476D01*
X155240952Y-88112095D01*
X156002857Y-88921619D02*
X156764762Y-88921619D01*
X157526667Y-88826381D02*
X156955238Y-88826381D01*
X157240952Y-88826381D02*
X157240952Y-87826381D01*
X157145714Y-87969238D01*
X157050476Y-88064476D01*
X156955238Y-88112095D01*
X157907619Y-87921619D02*
X157955238Y-87874000D01*
X158050476Y-87826381D01*
X158288572Y-87826381D01*
X158383810Y-87874000D01*
X158431429Y-87921619D01*
X158479048Y-88016857D01*
X158479048Y-88112095D01*
X158431429Y-88254952D01*
X157860000Y-88826381D01*
X158479048Y-88826381D01*
X152498095Y-87506381D02*
X152498095Y-86506381D01*
X153069524Y-87506381D02*
X152640952Y-86934952D01*
X153069524Y-86506381D02*
X152498095Y-87077810D01*
X139810571Y-88826381D02*
X139810571Y-87826381D01*
X140048666Y-87826381D01*
X140191524Y-87874000D01*
X140286762Y-87969238D01*
X140334381Y-88064476D01*
X140382000Y-88254952D01*
X140382000Y-88397810D01*
X140334381Y-88588286D01*
X140286762Y-88683524D01*
X140191524Y-88778762D01*
X140048666Y-88826381D01*
X139810571Y-88826381D01*
X141334381Y-88826381D02*
X140762952Y-88826381D01*
X141048666Y-88826381D02*
X141048666Y-87826381D01*
X140953428Y-87969238D01*
X140858190Y-88064476D01*
X140762952Y-88112095D01*
X141524857Y-88921619D02*
X142286762Y-88921619D01*
X143048667Y-88826381D02*
X142477238Y-88826381D01*
X142762952Y-88826381D02*
X142762952Y-87826381D01*
X142667714Y-87969238D01*
X142572476Y-88064476D01*
X142477238Y-88112095D01*
X144001048Y-88826381D02*
X143429619Y-88826381D01*
X143715333Y-88826381D02*
X143715333Y-87826381D01*
X143620095Y-87969238D01*
X143524857Y-88064476D01*
X143429619Y-88112095D01*
X138020095Y-87506381D02*
X138020095Y-86506381D01*
X138591524Y-87506381D02*
X138162952Y-86934952D01*
X138591524Y-86506381D02*
X138020095Y-87077810D01*
X125332571Y-88826381D02*
X125332571Y-87826381D01*
X125570666Y-87826381D01*
X125713524Y-87874000D01*
X125808762Y-87969238D01*
X125856381Y-88064476D01*
X125904000Y-88254952D01*
X125904000Y-88397810D01*
X125856381Y-88588286D01*
X125808762Y-88683524D01*
X125713524Y-88778762D01*
X125570666Y-88826381D01*
X125332571Y-88826381D01*
X126856381Y-88826381D02*
X126284952Y-88826381D01*
X126570666Y-88826381D02*
X126570666Y-87826381D01*
X126475428Y-87969238D01*
X126380190Y-88064476D01*
X126284952Y-88112095D01*
X127046857Y-88921619D02*
X127808762Y-88921619D01*
X128570667Y-88826381D02*
X127999238Y-88826381D01*
X128284952Y-88826381D02*
X128284952Y-87826381D01*
X128189714Y-87969238D01*
X128094476Y-88064476D01*
X127999238Y-88112095D01*
X129189714Y-87826381D02*
X129284953Y-87826381D01*
X129380191Y-87874000D01*
X129427810Y-87921619D01*
X129475429Y-88016857D01*
X129523048Y-88207333D01*
X129523048Y-88445429D01*
X129475429Y-88635905D01*
X129427810Y-88731143D01*
X129380191Y-88778762D01*
X129284953Y-88826381D01*
X129189714Y-88826381D01*
X129094476Y-88778762D01*
X129046857Y-88731143D01*
X128999238Y-88635905D01*
X128951619Y-88445429D01*
X128951619Y-88207333D01*
X128999238Y-88016857D01*
X129046857Y-87921619D01*
X129094476Y-87874000D01*
X129189714Y-87826381D01*
X123542095Y-87506381D02*
X123542095Y-86506381D01*
X124113524Y-87506381D02*
X123684952Y-86934952D01*
X124113524Y-86506381D02*
X123542095Y-87077810D01*
X111330762Y-88826381D02*
X111330762Y-87826381D01*
X111568857Y-87826381D01*
X111711715Y-87874000D01*
X111806953Y-87969238D01*
X111854572Y-88064476D01*
X111902191Y-88254952D01*
X111902191Y-88397810D01*
X111854572Y-88588286D01*
X111806953Y-88683524D01*
X111711715Y-88778762D01*
X111568857Y-88826381D01*
X111330762Y-88826381D01*
X112854572Y-88826381D02*
X112283143Y-88826381D01*
X112568857Y-88826381D02*
X112568857Y-87826381D01*
X112473619Y-87969238D01*
X112378381Y-88064476D01*
X112283143Y-88112095D01*
X113045048Y-88921619D02*
X113806953Y-88921619D01*
X114092667Y-88826381D02*
X114283143Y-88826381D01*
X114378382Y-88778762D01*
X114426001Y-88731143D01*
X114521239Y-88588286D01*
X114568858Y-88397810D01*
X114568858Y-88016857D01*
X114521239Y-87921619D01*
X114473620Y-87874000D01*
X114378382Y-87826381D01*
X114187905Y-87826381D01*
X114092667Y-87874000D01*
X114045048Y-87921619D01*
X113997429Y-88016857D01*
X113997429Y-88254952D01*
X114045048Y-88350190D01*
X114092667Y-88397810D01*
X114187905Y-88445429D01*
X114378382Y-88445429D01*
X114473620Y-88397810D01*
X114521239Y-88350190D01*
X114568858Y-88254952D01*
X109064095Y-87506381D02*
X109064095Y-86506381D01*
X109635524Y-87506381D02*
X109206952Y-86934952D01*
X109635524Y-86506381D02*
X109064095Y-87077810D01*
X96852762Y-88572381D02*
X96852762Y-87572381D01*
X97090857Y-87572381D01*
X97233715Y-87620000D01*
X97328953Y-87715238D01*
X97376572Y-87810476D01*
X97424191Y-88000952D01*
X97424191Y-88143810D01*
X97376572Y-88334286D01*
X97328953Y-88429524D01*
X97233715Y-88524762D01*
X97090857Y-88572381D01*
X96852762Y-88572381D01*
X98376572Y-88572381D02*
X97805143Y-88572381D01*
X98090857Y-88572381D02*
X98090857Y-87572381D01*
X97995619Y-87715238D01*
X97900381Y-87810476D01*
X97805143Y-87858095D01*
X98567048Y-88667619D02*
X99328953Y-88667619D01*
X99709905Y-88000952D02*
X99614667Y-87953333D01*
X99567048Y-87905714D01*
X99519429Y-87810476D01*
X99519429Y-87762857D01*
X99567048Y-87667619D01*
X99614667Y-87620000D01*
X99709905Y-87572381D01*
X99900382Y-87572381D01*
X99995620Y-87620000D01*
X100043239Y-87667619D01*
X100090858Y-87762857D01*
X100090858Y-87810476D01*
X100043239Y-87905714D01*
X99995620Y-87953333D01*
X99900382Y-88000952D01*
X99709905Y-88000952D01*
X99614667Y-88048571D01*
X99567048Y-88096190D01*
X99519429Y-88191429D01*
X99519429Y-88381905D01*
X99567048Y-88477143D01*
X99614667Y-88524762D01*
X99709905Y-88572381D01*
X99900382Y-88572381D01*
X99995620Y-88524762D01*
X100043239Y-88477143D01*
X100090858Y-88381905D01*
X100090858Y-88191429D01*
X100043239Y-88096190D01*
X99995620Y-88048571D01*
X99900382Y-88000952D01*
X94586095Y-87252381D02*
X94586095Y-86252381D01*
X95157524Y-87252381D02*
X94728952Y-86680952D01*
X95157524Y-86252381D02*
X94586095Y-86823810D01*
X198164762Y-129540381D02*
X198164762Y-128540381D01*
X198402857Y-128540381D01*
X198545715Y-128588000D01*
X198640953Y-128683238D01*
X198688572Y-128778476D01*
X198736191Y-128968952D01*
X198736191Y-129111810D01*
X198688572Y-129302286D01*
X198640953Y-129397524D01*
X198545715Y-129492762D01*
X198402857Y-129540381D01*
X198164762Y-129540381D01*
X199688572Y-129540381D02*
X199117143Y-129540381D01*
X199402857Y-129540381D02*
X199402857Y-128540381D01*
X199307619Y-128683238D01*
X199212381Y-128778476D01*
X199117143Y-128826095D01*
X199879048Y-129635619D02*
X200640953Y-129635619D01*
X200783810Y-128540381D02*
X201450477Y-128540381D01*
X201021905Y-129540381D01*
X195898095Y-128220381D02*
X195898095Y-127220381D01*
X196469524Y-128220381D02*
X196040952Y-127648952D01*
X196469524Y-127220381D02*
X195898095Y-127791810D01*
X183648762Y-129540381D02*
X183648762Y-128540381D01*
X183886857Y-128540381D01*
X184029715Y-128588000D01*
X184124953Y-128683238D01*
X184172572Y-128778476D01*
X184220191Y-128968952D01*
X184220191Y-129111810D01*
X184172572Y-129302286D01*
X184124953Y-129397524D01*
X184029715Y-129492762D01*
X183886857Y-129540381D01*
X183648762Y-129540381D01*
X185172572Y-129540381D02*
X184601143Y-129540381D01*
X184886857Y-129540381D02*
X184886857Y-128540381D01*
X184791619Y-128683238D01*
X184696381Y-128778476D01*
X184601143Y-128826095D01*
X185363048Y-129635619D02*
X186124953Y-129635619D01*
X186791620Y-128540381D02*
X186601143Y-128540381D01*
X186505905Y-128588000D01*
X186458286Y-128635619D01*
X186363048Y-128778476D01*
X186315429Y-128968952D01*
X186315429Y-129349905D01*
X186363048Y-129445143D01*
X186410667Y-129492762D01*
X186505905Y-129540381D01*
X186696382Y-129540381D01*
X186791620Y-129492762D01*
X186839239Y-129445143D01*
X186886858Y-129349905D01*
X186886858Y-129111810D01*
X186839239Y-129016571D01*
X186791620Y-128968952D01*
X186696382Y-128921333D01*
X186505905Y-128921333D01*
X186410667Y-128968952D01*
X186363048Y-129016571D01*
X186315429Y-129111810D01*
X181382095Y-128220381D02*
X181382095Y-127220381D01*
X181953524Y-128220381D02*
X181524952Y-127648952D01*
X181953524Y-127220381D02*
X181382095Y-127791810D01*
X169132762Y-129540381D02*
X169132762Y-128540381D01*
X169370857Y-128540381D01*
X169513715Y-128588000D01*
X169608953Y-128683238D01*
X169656572Y-128778476D01*
X169704191Y-128968952D01*
X169704191Y-129111810D01*
X169656572Y-129302286D01*
X169608953Y-129397524D01*
X169513715Y-129492762D01*
X169370857Y-129540381D01*
X169132762Y-129540381D01*
X170656572Y-129540381D02*
X170085143Y-129540381D01*
X170370857Y-129540381D02*
X170370857Y-128540381D01*
X170275619Y-128683238D01*
X170180381Y-128778476D01*
X170085143Y-128826095D01*
X170847048Y-129635619D02*
X171608953Y-129635619D01*
X172323239Y-128540381D02*
X171847048Y-128540381D01*
X171799429Y-129016571D01*
X171847048Y-128968952D01*
X171942286Y-128921333D01*
X172180382Y-128921333D01*
X172275620Y-128968952D01*
X172323239Y-129016571D01*
X172370858Y-129111810D01*
X172370858Y-129349905D01*
X172323239Y-129445143D01*
X172275620Y-129492762D01*
X172180382Y-129540381D01*
X171942286Y-129540381D01*
X171847048Y-129492762D01*
X171799429Y-129445143D01*
X166866095Y-128220381D02*
X166866095Y-127220381D01*
X167437524Y-128220381D02*
X167008952Y-127648952D01*
X167437524Y-127220381D02*
X166866095Y-127791810D01*
X154616762Y-129540381D02*
X154616762Y-128540381D01*
X154854857Y-128540381D01*
X154997715Y-128588000D01*
X155092953Y-128683238D01*
X155140572Y-128778476D01*
X155188191Y-128968952D01*
X155188191Y-129111810D01*
X155140572Y-129302286D01*
X155092953Y-129397524D01*
X154997715Y-129492762D01*
X154854857Y-129540381D01*
X154616762Y-129540381D01*
X156140572Y-129540381D02*
X155569143Y-129540381D01*
X155854857Y-129540381D02*
X155854857Y-128540381D01*
X155759619Y-128683238D01*
X155664381Y-128778476D01*
X155569143Y-128826095D01*
X156331048Y-129635619D02*
X157092953Y-129635619D01*
X157759620Y-128873714D02*
X157759620Y-129540381D01*
X157521524Y-128492762D02*
X157283429Y-129207048D01*
X157902477Y-129207048D01*
X152350095Y-128220381D02*
X152350095Y-127220381D01*
X152921524Y-128220381D02*
X152492952Y-127648952D01*
X152921524Y-127220381D02*
X152350095Y-127791810D01*
X140100762Y-129540381D02*
X140100762Y-128540381D01*
X140338857Y-128540381D01*
X140481715Y-128588000D01*
X140576953Y-128683238D01*
X140624572Y-128778476D01*
X140672191Y-128968952D01*
X140672191Y-129111810D01*
X140624572Y-129302286D01*
X140576953Y-129397524D01*
X140481715Y-129492762D01*
X140338857Y-129540381D01*
X140100762Y-129540381D01*
X141624572Y-129540381D02*
X141053143Y-129540381D01*
X141338857Y-129540381D02*
X141338857Y-128540381D01*
X141243619Y-128683238D01*
X141148381Y-128778476D01*
X141053143Y-128826095D01*
X141815048Y-129635619D02*
X142576953Y-129635619D01*
X142719810Y-128540381D02*
X143338858Y-128540381D01*
X143005524Y-128921333D01*
X143148382Y-128921333D01*
X143243620Y-128968952D01*
X143291239Y-129016571D01*
X143338858Y-129111810D01*
X143338858Y-129349905D01*
X143291239Y-129445143D01*
X143243620Y-129492762D01*
X143148382Y-129540381D01*
X142862667Y-129540381D01*
X142767429Y-129492762D01*
X142719810Y-129445143D01*
X137834095Y-128220381D02*
X137834095Y-127220381D01*
X138405524Y-128220381D02*
X137976952Y-127648952D01*
X138405524Y-127220381D02*
X137834095Y-127791810D01*
X125584762Y-129540381D02*
X125584762Y-128540381D01*
X125822857Y-128540381D01*
X125965715Y-128588000D01*
X126060953Y-128683238D01*
X126108572Y-128778476D01*
X126156191Y-128968952D01*
X126156191Y-129111810D01*
X126108572Y-129302286D01*
X126060953Y-129397524D01*
X125965715Y-129492762D01*
X125822857Y-129540381D01*
X125584762Y-129540381D01*
X127108572Y-129540381D02*
X126537143Y-129540381D01*
X126822857Y-129540381D02*
X126822857Y-128540381D01*
X126727619Y-128683238D01*
X126632381Y-128778476D01*
X126537143Y-128826095D01*
X127299048Y-129635619D02*
X128060953Y-129635619D01*
X128251429Y-128635619D02*
X128299048Y-128588000D01*
X128394286Y-128540381D01*
X128632382Y-128540381D01*
X128727620Y-128588000D01*
X128775239Y-128635619D01*
X128822858Y-128730857D01*
X128822858Y-128826095D01*
X128775239Y-128968952D01*
X128203810Y-129540381D01*
X128822858Y-129540381D01*
X123318095Y-128220381D02*
X123318095Y-127220381D01*
X123889524Y-128220381D02*
X123460952Y-127648952D01*
X123889524Y-127220381D02*
X123318095Y-127791810D01*
X111322762Y-129540381D02*
X111322762Y-128540381D01*
X111560857Y-128540381D01*
X111703715Y-128588000D01*
X111798953Y-128683238D01*
X111846572Y-128778476D01*
X111894191Y-128968952D01*
X111894191Y-129111810D01*
X111846572Y-129302286D01*
X111798953Y-129397524D01*
X111703715Y-129492762D01*
X111560857Y-129540381D01*
X111322762Y-129540381D01*
X112846572Y-129540381D02*
X112275143Y-129540381D01*
X112560857Y-129540381D02*
X112560857Y-128540381D01*
X112465619Y-128683238D01*
X112370381Y-128778476D01*
X112275143Y-128826095D01*
X113037048Y-129635619D02*
X113798953Y-129635619D01*
X114560858Y-129540381D02*
X113989429Y-129540381D01*
X114275143Y-129540381D02*
X114275143Y-128540381D01*
X114179905Y-128683238D01*
X114084667Y-128778476D01*
X113989429Y-128826095D01*
X109056095Y-128220381D02*
X109056095Y-127220381D01*
X109627524Y-128220381D02*
X109198952Y-127648952D01*
X109627524Y-127220381D02*
X109056095Y-127791810D01*
X96806762Y-129540381D02*
X96806762Y-128540381D01*
X97044857Y-128540381D01*
X97187715Y-128588000D01*
X97282953Y-128683238D01*
X97330572Y-128778476D01*
X97378191Y-128968952D01*
X97378191Y-129111810D01*
X97330572Y-129302286D01*
X97282953Y-129397524D01*
X97187715Y-129492762D01*
X97044857Y-129540381D01*
X96806762Y-129540381D01*
X98330572Y-129540381D02*
X97759143Y-129540381D01*
X98044857Y-129540381D02*
X98044857Y-128540381D01*
X97949619Y-128683238D01*
X97854381Y-128778476D01*
X97759143Y-128826095D01*
X98521048Y-129635619D02*
X99282953Y-129635619D01*
X99711524Y-128540381D02*
X99806763Y-128540381D01*
X99902001Y-128588000D01*
X99949620Y-128635619D01*
X99997239Y-128730857D01*
X100044858Y-128921333D01*
X100044858Y-129159429D01*
X99997239Y-129349905D01*
X99949620Y-129445143D01*
X99902001Y-129492762D01*
X99806763Y-129540381D01*
X99711524Y-129540381D01*
X99616286Y-129492762D01*
X99568667Y-129445143D01*
X99521048Y-129349905D01*
X99473429Y-129159429D01*
X99473429Y-128921333D01*
X99521048Y-128730857D01*
X99568667Y-128635619D01*
X99616286Y-128588000D01*
X99711524Y-128540381D01*
X94540095Y-128220381D02*
X94540095Y-127220381D01*
X95111524Y-128220381D02*
X94682952Y-127648952D01*
X95111524Y-127220381D02*
X94540095Y-127791810D01*
X197344476Y-76621762D02*
X197487333Y-76669381D01*
X197725429Y-76669381D01*
X197820667Y-76621762D01*
X197868286Y-76574143D01*
X197915905Y-76478905D01*
X197915905Y-76383667D01*
X197868286Y-76288429D01*
X197820667Y-76240810D01*
X197725429Y-76193190D01*
X197534952Y-76145571D01*
X197439714Y-76097952D01*
X197392095Y-76050333D01*
X197344476Y-75955095D01*
X197344476Y-75859857D01*
X197392095Y-75764619D01*
X197439714Y-75717000D01*
X197534952Y-75669381D01*
X197773048Y-75669381D01*
X197915905Y-75717000D01*
X198249238Y-75669381D02*
X198487333Y-76669381D01*
X198677810Y-75955095D01*
X198868286Y-76669381D01*
X199106381Y-75669381D01*
X200011143Y-76669381D02*
X199439714Y-76669381D01*
X199725428Y-76669381D02*
X199725428Y-75669381D01*
X199630190Y-75812238D01*
X199534952Y-75907476D01*
X199439714Y-75955095D01*
X200915905Y-75669381D02*
X200439714Y-75669381D01*
X200392095Y-76145571D01*
X200439714Y-76097952D01*
X200534952Y-76050333D01*
X200773048Y-76050333D01*
X200868286Y-76097952D01*
X200915905Y-76145571D01*
X200963524Y-76240810D01*
X200963524Y-76478905D01*
X200915905Y-76574143D01*
X200868286Y-76621762D01*
X200773048Y-76669381D01*
X200534952Y-76669381D01*
X200439714Y-76621762D01*
X200392095Y-76574143D01*
X182866476Y-76621762D02*
X183009333Y-76669381D01*
X183247429Y-76669381D01*
X183342667Y-76621762D01*
X183390286Y-76574143D01*
X183437905Y-76478905D01*
X183437905Y-76383667D01*
X183390286Y-76288429D01*
X183342667Y-76240810D01*
X183247429Y-76193190D01*
X183056952Y-76145571D01*
X182961714Y-76097952D01*
X182914095Y-76050333D01*
X182866476Y-75955095D01*
X182866476Y-75859857D01*
X182914095Y-75764619D01*
X182961714Y-75717000D01*
X183056952Y-75669381D01*
X183295048Y-75669381D01*
X183437905Y-75717000D01*
X183771238Y-75669381D02*
X184009333Y-76669381D01*
X184199810Y-75955095D01*
X184390286Y-76669381D01*
X184628381Y-75669381D01*
X185533143Y-76669381D02*
X184961714Y-76669381D01*
X185247428Y-76669381D02*
X185247428Y-75669381D01*
X185152190Y-75812238D01*
X185056952Y-75907476D01*
X184961714Y-75955095D01*
X186390286Y-76002714D02*
X186390286Y-76669381D01*
X186152190Y-75621762D02*
X185914095Y-76336048D01*
X186533143Y-76336048D01*
X168388476Y-76621762D02*
X168531333Y-76669381D01*
X168769429Y-76669381D01*
X168864667Y-76621762D01*
X168912286Y-76574143D01*
X168959905Y-76478905D01*
X168959905Y-76383667D01*
X168912286Y-76288429D01*
X168864667Y-76240810D01*
X168769429Y-76193190D01*
X168578952Y-76145571D01*
X168483714Y-76097952D01*
X168436095Y-76050333D01*
X168388476Y-75955095D01*
X168388476Y-75859857D01*
X168436095Y-75764619D01*
X168483714Y-75717000D01*
X168578952Y-75669381D01*
X168817048Y-75669381D01*
X168959905Y-75717000D01*
X169293238Y-75669381D02*
X169531333Y-76669381D01*
X169721810Y-75955095D01*
X169912286Y-76669381D01*
X170150381Y-75669381D01*
X171055143Y-76669381D02*
X170483714Y-76669381D01*
X170769428Y-76669381D02*
X170769428Y-75669381D01*
X170674190Y-75812238D01*
X170578952Y-75907476D01*
X170483714Y-75955095D01*
X171388476Y-75669381D02*
X172007524Y-75669381D01*
X171674190Y-76050333D01*
X171817048Y-76050333D01*
X171912286Y-76097952D01*
X171959905Y-76145571D01*
X172007524Y-76240810D01*
X172007524Y-76478905D01*
X171959905Y-76574143D01*
X171912286Y-76621762D01*
X171817048Y-76669381D01*
X171531333Y-76669381D01*
X171436095Y-76621762D01*
X171388476Y-76574143D01*
X153910476Y-76621762D02*
X154053333Y-76669381D01*
X154291429Y-76669381D01*
X154386667Y-76621762D01*
X154434286Y-76574143D01*
X154481905Y-76478905D01*
X154481905Y-76383667D01*
X154434286Y-76288429D01*
X154386667Y-76240810D01*
X154291429Y-76193190D01*
X154100952Y-76145571D01*
X154005714Y-76097952D01*
X153958095Y-76050333D01*
X153910476Y-75955095D01*
X153910476Y-75859857D01*
X153958095Y-75764619D01*
X154005714Y-75717000D01*
X154100952Y-75669381D01*
X154339048Y-75669381D01*
X154481905Y-75717000D01*
X154815238Y-75669381D02*
X155053333Y-76669381D01*
X155243810Y-75955095D01*
X155434286Y-76669381D01*
X155672381Y-75669381D01*
X156577143Y-76669381D02*
X156005714Y-76669381D01*
X156291428Y-76669381D02*
X156291428Y-75669381D01*
X156196190Y-75812238D01*
X156100952Y-75907476D01*
X156005714Y-75955095D01*
X156958095Y-75764619D02*
X157005714Y-75717000D01*
X157100952Y-75669381D01*
X157339048Y-75669381D01*
X157434286Y-75717000D01*
X157481905Y-75764619D01*
X157529524Y-75859857D01*
X157529524Y-75955095D01*
X157481905Y-76097952D01*
X156910476Y-76669381D01*
X157529524Y-76669381D01*
X139432476Y-76621762D02*
X139575333Y-76669381D01*
X139813429Y-76669381D01*
X139908667Y-76621762D01*
X139956286Y-76574143D01*
X140003905Y-76478905D01*
X140003905Y-76383667D01*
X139956286Y-76288429D01*
X139908667Y-76240810D01*
X139813429Y-76193190D01*
X139622952Y-76145571D01*
X139527714Y-76097952D01*
X139480095Y-76050333D01*
X139432476Y-75955095D01*
X139432476Y-75859857D01*
X139480095Y-75764619D01*
X139527714Y-75717000D01*
X139622952Y-75669381D01*
X139861048Y-75669381D01*
X140003905Y-75717000D01*
X140337238Y-75669381D02*
X140575333Y-76669381D01*
X140765810Y-75955095D01*
X140956286Y-76669381D01*
X141194381Y-75669381D01*
X142099143Y-76669381D02*
X141527714Y-76669381D01*
X141813428Y-76669381D02*
X141813428Y-75669381D01*
X141718190Y-75812238D01*
X141622952Y-75907476D01*
X141527714Y-75955095D01*
X143051524Y-76669381D02*
X142480095Y-76669381D01*
X142765809Y-76669381D02*
X142765809Y-75669381D01*
X142670571Y-75812238D01*
X142575333Y-75907476D01*
X142480095Y-75955095D01*
X124954476Y-76621762D02*
X125097333Y-76669381D01*
X125335429Y-76669381D01*
X125430667Y-76621762D01*
X125478286Y-76574143D01*
X125525905Y-76478905D01*
X125525905Y-76383667D01*
X125478286Y-76288429D01*
X125430667Y-76240810D01*
X125335429Y-76193190D01*
X125144952Y-76145571D01*
X125049714Y-76097952D01*
X125002095Y-76050333D01*
X124954476Y-75955095D01*
X124954476Y-75859857D01*
X125002095Y-75764619D01*
X125049714Y-75717000D01*
X125144952Y-75669381D01*
X125383048Y-75669381D01*
X125525905Y-75717000D01*
X125859238Y-75669381D02*
X126097333Y-76669381D01*
X126287810Y-75955095D01*
X126478286Y-76669381D01*
X126716381Y-75669381D01*
X127621143Y-76669381D02*
X127049714Y-76669381D01*
X127335428Y-76669381D02*
X127335428Y-75669381D01*
X127240190Y-75812238D01*
X127144952Y-75907476D01*
X127049714Y-75955095D01*
X128240190Y-75669381D02*
X128335429Y-75669381D01*
X128430667Y-75717000D01*
X128478286Y-75764619D01*
X128525905Y-75859857D01*
X128573524Y-76050333D01*
X128573524Y-76288429D01*
X128525905Y-76478905D01*
X128478286Y-76574143D01*
X128430667Y-76621762D01*
X128335429Y-76669381D01*
X128240190Y-76669381D01*
X128144952Y-76621762D01*
X128097333Y-76574143D01*
X128049714Y-76478905D01*
X128002095Y-76288429D01*
X128002095Y-76050333D01*
X128049714Y-75859857D01*
X128097333Y-75764619D01*
X128144952Y-75717000D01*
X128240190Y-75669381D01*
X110952667Y-76621762D02*
X111095524Y-76669381D01*
X111333620Y-76669381D01*
X111428858Y-76621762D01*
X111476477Y-76574143D01*
X111524096Y-76478905D01*
X111524096Y-76383667D01*
X111476477Y-76288429D01*
X111428858Y-76240810D01*
X111333620Y-76193190D01*
X111143143Y-76145571D01*
X111047905Y-76097952D01*
X111000286Y-76050333D01*
X110952667Y-75955095D01*
X110952667Y-75859857D01*
X111000286Y-75764619D01*
X111047905Y-75717000D01*
X111143143Y-75669381D01*
X111381239Y-75669381D01*
X111524096Y-75717000D01*
X111857429Y-75669381D02*
X112095524Y-76669381D01*
X112286001Y-75955095D01*
X112476477Y-76669381D01*
X112714572Y-75669381D01*
X113143143Y-76669381D02*
X113333619Y-76669381D01*
X113428858Y-76621762D01*
X113476477Y-76574143D01*
X113571715Y-76431286D01*
X113619334Y-76240810D01*
X113619334Y-75859857D01*
X113571715Y-75764619D01*
X113524096Y-75717000D01*
X113428858Y-75669381D01*
X113238381Y-75669381D01*
X113143143Y-75717000D01*
X113095524Y-75764619D01*
X113047905Y-75859857D01*
X113047905Y-76097952D01*
X113095524Y-76193190D01*
X113143143Y-76240810D01*
X113238381Y-76288429D01*
X113428858Y-76288429D01*
X113524096Y-76240810D01*
X113571715Y-76193190D01*
X113619334Y-76097952D01*
X96474667Y-76621762D02*
X96617524Y-76669381D01*
X96855620Y-76669381D01*
X96950858Y-76621762D01*
X96998477Y-76574143D01*
X97046096Y-76478905D01*
X97046096Y-76383667D01*
X96998477Y-76288429D01*
X96950858Y-76240810D01*
X96855620Y-76193190D01*
X96665143Y-76145571D01*
X96569905Y-76097952D01*
X96522286Y-76050333D01*
X96474667Y-75955095D01*
X96474667Y-75859857D01*
X96522286Y-75764619D01*
X96569905Y-75717000D01*
X96665143Y-75669381D01*
X96903239Y-75669381D01*
X97046096Y-75717000D01*
X97379429Y-75669381D02*
X97617524Y-76669381D01*
X97808001Y-75955095D01*
X97998477Y-76669381D01*
X98236572Y-75669381D01*
X98760381Y-76097952D02*
X98665143Y-76050333D01*
X98617524Y-76002714D01*
X98569905Y-75907476D01*
X98569905Y-75859857D01*
X98617524Y-75764619D01*
X98665143Y-75717000D01*
X98760381Y-75669381D01*
X98950858Y-75669381D01*
X99046096Y-75717000D01*
X99093715Y-75764619D01*
X99141334Y-75859857D01*
X99141334Y-75907476D01*
X99093715Y-76002714D01*
X99046096Y-76050333D01*
X98950858Y-76097952D01*
X98760381Y-76097952D01*
X98665143Y-76145571D01*
X98617524Y-76193190D01*
X98569905Y-76288429D01*
X98569905Y-76478905D01*
X98617524Y-76574143D01*
X98665143Y-76621762D01*
X98760381Y-76669381D01*
X98950858Y-76669381D01*
X99046096Y-76621762D01*
X99093715Y-76574143D01*
X99141334Y-76478905D01*
X99141334Y-76288429D01*
X99093715Y-76193190D01*
X99046096Y-76145571D01*
X98950858Y-76097952D01*
X197766667Y-113857762D02*
X197909524Y-113905381D01*
X198147620Y-113905381D01*
X198242858Y-113857762D01*
X198290477Y-113810143D01*
X198338096Y-113714905D01*
X198338096Y-113619667D01*
X198290477Y-113524429D01*
X198242858Y-113476810D01*
X198147620Y-113429190D01*
X197957143Y-113381571D01*
X197861905Y-113333952D01*
X197814286Y-113286333D01*
X197766667Y-113191095D01*
X197766667Y-113095857D01*
X197814286Y-113000619D01*
X197861905Y-112953000D01*
X197957143Y-112905381D01*
X198195239Y-112905381D01*
X198338096Y-112953000D01*
X198671429Y-112905381D02*
X198909524Y-113905381D01*
X199100001Y-113191095D01*
X199290477Y-113905381D01*
X199528572Y-112905381D01*
X199814286Y-112905381D02*
X200480953Y-112905381D01*
X200052381Y-113905381D01*
X183250667Y-117507762D02*
X183393524Y-117555381D01*
X183631620Y-117555381D01*
X183726858Y-117507762D01*
X183774477Y-117460143D01*
X183822096Y-117364905D01*
X183822096Y-117269667D01*
X183774477Y-117174429D01*
X183726858Y-117126810D01*
X183631620Y-117079190D01*
X183441143Y-117031571D01*
X183345905Y-116983952D01*
X183298286Y-116936333D01*
X183250667Y-116841095D01*
X183250667Y-116745857D01*
X183298286Y-116650619D01*
X183345905Y-116603000D01*
X183441143Y-116555381D01*
X183679239Y-116555381D01*
X183822096Y-116603000D01*
X184155429Y-116555381D02*
X184393524Y-117555381D01*
X184584001Y-116841095D01*
X184774477Y-117555381D01*
X185012572Y-116555381D01*
X185822096Y-116555381D02*
X185631619Y-116555381D01*
X185536381Y-116603000D01*
X185488762Y-116650619D01*
X185393524Y-116793476D01*
X185345905Y-116983952D01*
X185345905Y-117364905D01*
X185393524Y-117460143D01*
X185441143Y-117507762D01*
X185536381Y-117555381D01*
X185726858Y-117555381D01*
X185822096Y-117507762D01*
X185869715Y-117460143D01*
X185917334Y-117364905D01*
X185917334Y-117126810D01*
X185869715Y-117031571D01*
X185822096Y-116983952D01*
X185726858Y-116936333D01*
X185536381Y-116936333D01*
X185441143Y-116983952D01*
X185393524Y-117031571D01*
X185345905Y-117126810D01*
X168734667Y-113857762D02*
X168877524Y-113905381D01*
X169115620Y-113905381D01*
X169210858Y-113857762D01*
X169258477Y-113810143D01*
X169306096Y-113714905D01*
X169306096Y-113619667D01*
X169258477Y-113524429D01*
X169210858Y-113476810D01*
X169115620Y-113429190D01*
X168925143Y-113381571D01*
X168829905Y-113333952D01*
X168782286Y-113286333D01*
X168734667Y-113191095D01*
X168734667Y-113095857D01*
X168782286Y-113000619D01*
X168829905Y-112953000D01*
X168925143Y-112905381D01*
X169163239Y-112905381D01*
X169306096Y-112953000D01*
X169639429Y-112905381D02*
X169877524Y-113905381D01*
X170068001Y-113191095D01*
X170258477Y-113905381D01*
X170496572Y-112905381D01*
X171353715Y-112905381D02*
X170877524Y-112905381D01*
X170829905Y-113381571D01*
X170877524Y-113333952D01*
X170972762Y-113286333D01*
X171210858Y-113286333D01*
X171306096Y-113333952D01*
X171353715Y-113381571D01*
X171401334Y-113476810D01*
X171401334Y-113714905D01*
X171353715Y-113810143D01*
X171306096Y-113857762D01*
X171210858Y-113905381D01*
X170972762Y-113905381D01*
X170877524Y-113857762D01*
X170829905Y-113810143D01*
X154218667Y-117507762D02*
X154361524Y-117555381D01*
X154599620Y-117555381D01*
X154694858Y-117507762D01*
X154742477Y-117460143D01*
X154790096Y-117364905D01*
X154790096Y-117269667D01*
X154742477Y-117174429D01*
X154694858Y-117126810D01*
X154599620Y-117079190D01*
X154409143Y-117031571D01*
X154313905Y-116983952D01*
X154266286Y-116936333D01*
X154218667Y-116841095D01*
X154218667Y-116745857D01*
X154266286Y-116650619D01*
X154313905Y-116603000D01*
X154409143Y-116555381D01*
X154647239Y-116555381D01*
X154790096Y-116603000D01*
X155123429Y-116555381D02*
X155361524Y-117555381D01*
X155552001Y-116841095D01*
X155742477Y-117555381D01*
X155980572Y-116555381D01*
X156790096Y-116888714D02*
X156790096Y-117555381D01*
X156552000Y-116507762D02*
X156313905Y-117222048D01*
X156932953Y-117222048D01*
X139702667Y-113857762D02*
X139845524Y-113905381D01*
X140083620Y-113905381D01*
X140178858Y-113857762D01*
X140226477Y-113810143D01*
X140274096Y-113714905D01*
X140274096Y-113619667D01*
X140226477Y-113524429D01*
X140178858Y-113476810D01*
X140083620Y-113429190D01*
X139893143Y-113381571D01*
X139797905Y-113333952D01*
X139750286Y-113286333D01*
X139702667Y-113191095D01*
X139702667Y-113095857D01*
X139750286Y-113000619D01*
X139797905Y-112953000D01*
X139893143Y-112905381D01*
X140131239Y-112905381D01*
X140274096Y-112953000D01*
X140607429Y-112905381D02*
X140845524Y-113905381D01*
X141036001Y-113191095D01*
X141226477Y-113905381D01*
X141464572Y-112905381D01*
X141750286Y-112905381D02*
X142369334Y-112905381D01*
X142036000Y-113286333D01*
X142178858Y-113286333D01*
X142274096Y-113333952D01*
X142321715Y-113381571D01*
X142369334Y-113476810D01*
X142369334Y-113714905D01*
X142321715Y-113810143D01*
X142274096Y-113857762D01*
X142178858Y-113905381D01*
X141893143Y-113905381D01*
X141797905Y-113857762D01*
X141750286Y-113810143D01*
X125186667Y-117507762D02*
X125329524Y-117555381D01*
X125567620Y-117555381D01*
X125662858Y-117507762D01*
X125710477Y-117460143D01*
X125758096Y-117364905D01*
X125758096Y-117269667D01*
X125710477Y-117174429D01*
X125662858Y-117126810D01*
X125567620Y-117079190D01*
X125377143Y-117031571D01*
X125281905Y-116983952D01*
X125234286Y-116936333D01*
X125186667Y-116841095D01*
X125186667Y-116745857D01*
X125234286Y-116650619D01*
X125281905Y-116603000D01*
X125377143Y-116555381D01*
X125615239Y-116555381D01*
X125758096Y-116603000D01*
X126091429Y-116555381D02*
X126329524Y-117555381D01*
X126520001Y-116841095D01*
X126710477Y-117555381D01*
X126948572Y-116555381D01*
X127281905Y-116650619D02*
X127329524Y-116603000D01*
X127424762Y-116555381D01*
X127662858Y-116555381D01*
X127758096Y-116603000D01*
X127805715Y-116650619D01*
X127853334Y-116745857D01*
X127853334Y-116841095D01*
X127805715Y-116983952D01*
X127234286Y-117555381D01*
X127853334Y-117555381D01*
X110670667Y-117507762D02*
X110813524Y-117555381D01*
X111051620Y-117555381D01*
X111146858Y-117507762D01*
X111194477Y-117460143D01*
X111242096Y-117364905D01*
X111242096Y-117269667D01*
X111194477Y-117174429D01*
X111146858Y-117126810D01*
X111051620Y-117079190D01*
X110861143Y-117031571D01*
X110765905Y-116983952D01*
X110718286Y-116936333D01*
X110670667Y-116841095D01*
X110670667Y-116745857D01*
X110718286Y-116650619D01*
X110765905Y-116603000D01*
X110861143Y-116555381D01*
X111099239Y-116555381D01*
X111242096Y-116603000D01*
X111575429Y-116555381D02*
X111813524Y-117555381D01*
X112004001Y-116841095D01*
X112194477Y-117555381D01*
X112432572Y-116555381D01*
X113337334Y-117555381D02*
X112765905Y-117555381D01*
X113051619Y-117555381D02*
X113051619Y-116555381D01*
X112956381Y-116698238D01*
X112861143Y-116793476D01*
X112765905Y-116841095D01*
X96474667Y-117515762D02*
X96617524Y-117563381D01*
X96855620Y-117563381D01*
X96950858Y-117515762D01*
X96998477Y-117468143D01*
X97046096Y-117372905D01*
X97046096Y-117277667D01*
X96998477Y-117182429D01*
X96950858Y-117134810D01*
X96855620Y-117087190D01*
X96665143Y-117039571D01*
X96569905Y-116991952D01*
X96522286Y-116944333D01*
X96474667Y-116849095D01*
X96474667Y-116753857D01*
X96522286Y-116658619D01*
X96569905Y-116611000D01*
X96665143Y-116563381D01*
X96903239Y-116563381D01*
X97046096Y-116611000D01*
X97379429Y-116563381D02*
X97617524Y-117563381D01*
X97808001Y-116849095D01*
X97998477Y-117563381D01*
X98236572Y-116563381D01*
X98808000Y-116563381D02*
X98903239Y-116563381D01*
X98998477Y-116611000D01*
X99046096Y-116658619D01*
X99093715Y-116753857D01*
X99141334Y-116944333D01*
X99141334Y-117182429D01*
X99093715Y-117372905D01*
X99046096Y-117468143D01*
X98998477Y-117515762D01*
X98903239Y-117563381D01*
X98808000Y-117563381D01*
X98712762Y-117515762D01*
X98665143Y-117468143D01*
X98617524Y-117372905D01*
X98569905Y-117182429D01*
X98569905Y-116944333D01*
X98617524Y-116753857D01*
X98665143Y-116658619D01*
X98712762Y-116611000D01*
X98808000Y-116563381D01*
X197648920Y-55596261D02*
X197315586Y-55120070D01*
X197077491Y-55596261D02*
X197077491Y-54596261D01*
X197458444Y-54596261D01*
X197553682Y-54643880D01*
X197601301Y-54691499D01*
X197648920Y-54786737D01*
X197648920Y-54929594D01*
X197601301Y-55024832D01*
X197553682Y-55072451D01*
X197458444Y-55120070D01*
X197077491Y-55120070D01*
X198029872Y-54691499D02*
X198077491Y-54643880D01*
X198172729Y-54596261D01*
X198410825Y-54596261D01*
X198506063Y-54643880D01*
X198553682Y-54691499D01*
X198601301Y-54786737D01*
X198601301Y-54881975D01*
X198553682Y-55024832D01*
X197982253Y-55596261D01*
X198601301Y-55596261D01*
X198791777Y-55691499D02*
X199553682Y-55691499D01*
X200315587Y-55596261D02*
X199744158Y-55596261D01*
X200029872Y-55596261D02*
X200029872Y-54596261D01*
X199934634Y-54739118D01*
X199839396Y-54834356D01*
X199744158Y-54881975D01*
X201220349Y-54596261D02*
X200744158Y-54596261D01*
X200696539Y-55072451D01*
X200744158Y-55024832D01*
X200839396Y-54977213D01*
X201077492Y-54977213D01*
X201172730Y-55024832D01*
X201220349Y-55072451D01*
X201267968Y-55167690D01*
X201267968Y-55405785D01*
X201220349Y-55501023D01*
X201172730Y-55548642D01*
X201077492Y-55596261D01*
X200839396Y-55596261D01*
X200744158Y-55548642D01*
X200696539Y-55501023D01*
X183170920Y-55596261D02*
X182837586Y-55120070D01*
X182599491Y-55596261D02*
X182599491Y-54596261D01*
X182980444Y-54596261D01*
X183075682Y-54643880D01*
X183123301Y-54691499D01*
X183170920Y-54786737D01*
X183170920Y-54929594D01*
X183123301Y-55024832D01*
X183075682Y-55072451D01*
X182980444Y-55120070D01*
X182599491Y-55120070D01*
X183551872Y-54691499D02*
X183599491Y-54643880D01*
X183694729Y-54596261D01*
X183932825Y-54596261D01*
X184028063Y-54643880D01*
X184075682Y-54691499D01*
X184123301Y-54786737D01*
X184123301Y-54881975D01*
X184075682Y-55024832D01*
X183504253Y-55596261D01*
X184123301Y-55596261D01*
X184313777Y-55691499D02*
X185075682Y-55691499D01*
X185837587Y-55596261D02*
X185266158Y-55596261D01*
X185551872Y-55596261D02*
X185551872Y-54596261D01*
X185456634Y-54739118D01*
X185361396Y-54834356D01*
X185266158Y-54881975D01*
X186694730Y-54929594D02*
X186694730Y-55596261D01*
X186456634Y-54548642D02*
X186218539Y-55262928D01*
X186837587Y-55262928D01*
X168692920Y-55596261D02*
X168359586Y-55120070D01*
X168121491Y-55596261D02*
X168121491Y-54596261D01*
X168502444Y-54596261D01*
X168597682Y-54643880D01*
X168645301Y-54691499D01*
X168692920Y-54786737D01*
X168692920Y-54929594D01*
X168645301Y-55024832D01*
X168597682Y-55072451D01*
X168502444Y-55120070D01*
X168121491Y-55120070D01*
X169073872Y-54691499D02*
X169121491Y-54643880D01*
X169216729Y-54596261D01*
X169454825Y-54596261D01*
X169550063Y-54643880D01*
X169597682Y-54691499D01*
X169645301Y-54786737D01*
X169645301Y-54881975D01*
X169597682Y-55024832D01*
X169026253Y-55596261D01*
X169645301Y-55596261D01*
X169835777Y-55691499D02*
X170597682Y-55691499D01*
X171359587Y-55596261D02*
X170788158Y-55596261D01*
X171073872Y-55596261D02*
X171073872Y-54596261D01*
X170978634Y-54739118D01*
X170883396Y-54834356D01*
X170788158Y-54881975D01*
X171692920Y-54596261D02*
X172311968Y-54596261D01*
X171978634Y-54977213D01*
X172121492Y-54977213D01*
X172216730Y-55024832D01*
X172264349Y-55072451D01*
X172311968Y-55167690D01*
X172311968Y-55405785D01*
X172264349Y-55501023D01*
X172216730Y-55548642D01*
X172121492Y-55596261D01*
X171835777Y-55596261D01*
X171740539Y-55548642D01*
X171692920Y-55501023D01*
X153717080Y-62596501D02*
X153383746Y-62120310D01*
X153145651Y-62596501D02*
X153145651Y-61596501D01*
X153526604Y-61596501D01*
X153621842Y-61644120D01*
X153669461Y-61691739D01*
X153717080Y-61786977D01*
X153717080Y-61929834D01*
X153669461Y-62025072D01*
X153621842Y-62072691D01*
X153526604Y-62120310D01*
X153145651Y-62120310D01*
X154098032Y-61691739D02*
X154145651Y-61644120D01*
X154240889Y-61596501D01*
X154478985Y-61596501D01*
X154574223Y-61644120D01*
X154621842Y-61691739D01*
X154669461Y-61786977D01*
X154669461Y-61882215D01*
X154621842Y-62025072D01*
X154050413Y-62596501D01*
X154669461Y-62596501D01*
X154859937Y-62691739D02*
X155621842Y-62691739D01*
X156383747Y-62596501D02*
X155812318Y-62596501D01*
X156098032Y-62596501D02*
X156098032Y-61596501D01*
X156002794Y-61739358D01*
X155907556Y-61834596D01*
X155812318Y-61882215D01*
X156764699Y-61691739D02*
X156812318Y-61644120D01*
X156907556Y-61596501D01*
X157145652Y-61596501D01*
X157240890Y-61644120D01*
X157288509Y-61691739D01*
X157336128Y-61786977D01*
X157336128Y-61882215D01*
X157288509Y-62025072D01*
X156717080Y-62596501D01*
X157336128Y-62596501D01*
X139736920Y-55596261D02*
X139403586Y-55120070D01*
X139165491Y-55596261D02*
X139165491Y-54596261D01*
X139546444Y-54596261D01*
X139641682Y-54643880D01*
X139689301Y-54691499D01*
X139736920Y-54786737D01*
X139736920Y-54929594D01*
X139689301Y-55024832D01*
X139641682Y-55072451D01*
X139546444Y-55120070D01*
X139165491Y-55120070D01*
X140117872Y-54691499D02*
X140165491Y-54643880D01*
X140260729Y-54596261D01*
X140498825Y-54596261D01*
X140594063Y-54643880D01*
X140641682Y-54691499D01*
X140689301Y-54786737D01*
X140689301Y-54881975D01*
X140641682Y-55024832D01*
X140070253Y-55596261D01*
X140689301Y-55596261D01*
X140879777Y-55691499D02*
X141641682Y-55691499D01*
X142403587Y-55596261D02*
X141832158Y-55596261D01*
X142117872Y-55596261D02*
X142117872Y-54596261D01*
X142022634Y-54739118D01*
X141927396Y-54834356D01*
X141832158Y-54881975D01*
X143355968Y-55596261D02*
X142784539Y-55596261D01*
X143070253Y-55596261D02*
X143070253Y-54596261D01*
X142975015Y-54739118D01*
X142879777Y-54834356D01*
X142784539Y-54881975D01*
X125258920Y-55596261D02*
X124925586Y-55120070D01*
X124687491Y-55596261D02*
X124687491Y-54596261D01*
X125068444Y-54596261D01*
X125163682Y-54643880D01*
X125211301Y-54691499D01*
X125258920Y-54786737D01*
X125258920Y-54929594D01*
X125211301Y-55024832D01*
X125163682Y-55072451D01*
X125068444Y-55120070D01*
X124687491Y-55120070D01*
X125639872Y-54691499D02*
X125687491Y-54643880D01*
X125782729Y-54596261D01*
X126020825Y-54596261D01*
X126116063Y-54643880D01*
X126163682Y-54691499D01*
X126211301Y-54786737D01*
X126211301Y-54881975D01*
X126163682Y-55024832D01*
X125592253Y-55596261D01*
X126211301Y-55596261D01*
X126401777Y-55691499D02*
X127163682Y-55691499D01*
X127925587Y-55596261D02*
X127354158Y-55596261D01*
X127639872Y-55596261D02*
X127639872Y-54596261D01*
X127544634Y-54739118D01*
X127449396Y-54834356D01*
X127354158Y-54881975D01*
X128544634Y-54596261D02*
X128639873Y-54596261D01*
X128735111Y-54643880D01*
X128782730Y-54691499D01*
X128830349Y-54786737D01*
X128877968Y-54977213D01*
X128877968Y-55215309D01*
X128830349Y-55405785D01*
X128782730Y-55501023D01*
X128735111Y-55548642D01*
X128639873Y-55596261D01*
X128544634Y-55596261D01*
X128449396Y-55548642D01*
X128401777Y-55501023D01*
X128354158Y-55405785D01*
X128306539Y-55215309D01*
X128306539Y-54977213D01*
X128354158Y-54786737D01*
X128401777Y-54691499D01*
X128449396Y-54643880D01*
X128544634Y-54596261D01*
X111257111Y-55596261D02*
X110923777Y-55120070D01*
X110685682Y-55596261D02*
X110685682Y-54596261D01*
X111066635Y-54596261D01*
X111161873Y-54643880D01*
X111209492Y-54691499D01*
X111257111Y-54786737D01*
X111257111Y-54929594D01*
X111209492Y-55024832D01*
X111161873Y-55072451D01*
X111066635Y-55120070D01*
X110685682Y-55120070D01*
X111638063Y-54691499D02*
X111685682Y-54643880D01*
X111780920Y-54596261D01*
X112019016Y-54596261D01*
X112114254Y-54643880D01*
X112161873Y-54691499D01*
X112209492Y-54786737D01*
X112209492Y-54881975D01*
X112161873Y-55024832D01*
X111590444Y-55596261D01*
X112209492Y-55596261D01*
X112399968Y-55691499D02*
X113161873Y-55691499D01*
X113447587Y-55596261D02*
X113638063Y-55596261D01*
X113733302Y-55548642D01*
X113780921Y-55501023D01*
X113876159Y-55358166D01*
X113923778Y-55167690D01*
X113923778Y-54786737D01*
X113876159Y-54691499D01*
X113828540Y-54643880D01*
X113733302Y-54596261D01*
X113542825Y-54596261D01*
X113447587Y-54643880D01*
X113399968Y-54691499D01*
X113352349Y-54786737D01*
X113352349Y-55024832D01*
X113399968Y-55120070D01*
X113447587Y-55167690D01*
X113542825Y-55215309D01*
X113733302Y-55215309D01*
X113828540Y-55167690D01*
X113876159Y-55120070D01*
X113923778Y-55024832D01*
X96779111Y-55596261D02*
X96445777Y-55120070D01*
X96207682Y-55596261D02*
X96207682Y-54596261D01*
X96588635Y-54596261D01*
X96683873Y-54643880D01*
X96731492Y-54691499D01*
X96779111Y-54786737D01*
X96779111Y-54929594D01*
X96731492Y-55024832D01*
X96683873Y-55072451D01*
X96588635Y-55120070D01*
X96207682Y-55120070D01*
X97160063Y-54691499D02*
X97207682Y-54643880D01*
X97302920Y-54596261D01*
X97541016Y-54596261D01*
X97636254Y-54643880D01*
X97683873Y-54691499D01*
X97731492Y-54786737D01*
X97731492Y-54881975D01*
X97683873Y-55024832D01*
X97112444Y-55596261D01*
X97731492Y-55596261D01*
X97921968Y-55691499D02*
X98683873Y-55691499D01*
X99064825Y-55024832D02*
X98969587Y-54977213D01*
X98921968Y-54929594D01*
X98874349Y-54834356D01*
X98874349Y-54786737D01*
X98921968Y-54691499D01*
X98969587Y-54643880D01*
X99064825Y-54596261D01*
X99255302Y-54596261D01*
X99350540Y-54643880D01*
X99398159Y-54691499D01*
X99445778Y-54786737D01*
X99445778Y-54834356D01*
X99398159Y-54929594D01*
X99350540Y-54977213D01*
X99255302Y-55024832D01*
X99064825Y-55024832D01*
X98969587Y-55072451D01*
X98921968Y-55120070D01*
X98874349Y-55215309D01*
X98874349Y-55405785D01*
X98921968Y-55501023D01*
X98969587Y-55548642D01*
X99064825Y-55596261D01*
X99255302Y-55596261D01*
X99350540Y-55548642D01*
X99398159Y-55501023D01*
X99445778Y-55405785D01*
X99445778Y-55215309D01*
X99398159Y-55120070D01*
X99350540Y-55072451D01*
X99255302Y-55024832D01*
X197405080Y-94092501D02*
X197071746Y-93616310D01*
X196833651Y-94092501D02*
X196833651Y-93092501D01*
X197214604Y-93092501D01*
X197309842Y-93140120D01*
X197357461Y-93187739D01*
X197405080Y-93282977D01*
X197405080Y-93425834D01*
X197357461Y-93521072D01*
X197309842Y-93568691D01*
X197214604Y-93616310D01*
X196833651Y-93616310D01*
X198357461Y-94092501D02*
X197786032Y-94092501D01*
X198071746Y-94092501D02*
X198071746Y-93092501D01*
X197976508Y-93235358D01*
X197881270Y-93330596D01*
X197786032Y-93378215D01*
X198547937Y-94187739D02*
X199309842Y-94187739D01*
X200071747Y-94092501D02*
X199500318Y-94092501D01*
X199786032Y-94092501D02*
X199786032Y-93092501D01*
X199690794Y-93235358D01*
X199595556Y-93330596D01*
X199500318Y-93378215D01*
X200976509Y-93092501D02*
X200500318Y-93092501D01*
X200452699Y-93568691D01*
X200500318Y-93521072D01*
X200595556Y-93473453D01*
X200833652Y-93473453D01*
X200928890Y-93521072D01*
X200976509Y-93568691D01*
X201024128Y-93663930D01*
X201024128Y-93902025D01*
X200976509Y-93997263D01*
X200928890Y-94044882D01*
X200833652Y-94092501D01*
X200595556Y-94092501D01*
X200500318Y-94044882D01*
X200452699Y-93997263D01*
X182927080Y-94092501D02*
X182593746Y-93616310D01*
X182355651Y-94092501D02*
X182355651Y-93092501D01*
X182736604Y-93092501D01*
X182831842Y-93140120D01*
X182879461Y-93187739D01*
X182927080Y-93282977D01*
X182927080Y-93425834D01*
X182879461Y-93521072D01*
X182831842Y-93568691D01*
X182736604Y-93616310D01*
X182355651Y-93616310D01*
X183879461Y-94092501D02*
X183308032Y-94092501D01*
X183593746Y-94092501D02*
X183593746Y-93092501D01*
X183498508Y-93235358D01*
X183403270Y-93330596D01*
X183308032Y-93378215D01*
X184069937Y-94187739D02*
X184831842Y-94187739D01*
X185593747Y-94092501D02*
X185022318Y-94092501D01*
X185308032Y-94092501D02*
X185308032Y-93092501D01*
X185212794Y-93235358D01*
X185117556Y-93330596D01*
X185022318Y-93378215D01*
X186450890Y-93425834D02*
X186450890Y-94092501D01*
X186212794Y-93044882D02*
X185974699Y-93759168D01*
X186593747Y-93759168D01*
X168195080Y-94092501D02*
X167861746Y-93616310D01*
X167623651Y-94092501D02*
X167623651Y-93092501D01*
X168004604Y-93092501D01*
X168099842Y-93140120D01*
X168147461Y-93187739D01*
X168195080Y-93282977D01*
X168195080Y-93425834D01*
X168147461Y-93521072D01*
X168099842Y-93568691D01*
X168004604Y-93616310D01*
X167623651Y-93616310D01*
X169147461Y-94092501D02*
X168576032Y-94092501D01*
X168861746Y-94092501D02*
X168861746Y-93092501D01*
X168766508Y-93235358D01*
X168671270Y-93330596D01*
X168576032Y-93378215D01*
X169337937Y-94187739D02*
X170099842Y-94187739D01*
X170861747Y-94092501D02*
X170290318Y-94092501D01*
X170576032Y-94092501D02*
X170576032Y-93092501D01*
X170480794Y-93235358D01*
X170385556Y-93330596D01*
X170290318Y-93378215D01*
X171195080Y-93092501D02*
X171814128Y-93092501D01*
X171480794Y-93473453D01*
X171623652Y-93473453D01*
X171718890Y-93521072D01*
X171766509Y-93568691D01*
X171814128Y-93663930D01*
X171814128Y-93902025D01*
X171766509Y-93997263D01*
X171718890Y-94044882D01*
X171623652Y-94092501D01*
X171337937Y-94092501D01*
X171242699Y-94044882D01*
X171195080Y-93997263D01*
X153971080Y-94092501D02*
X153637746Y-93616310D01*
X153399651Y-94092501D02*
X153399651Y-93092501D01*
X153780604Y-93092501D01*
X153875842Y-93140120D01*
X153923461Y-93187739D01*
X153971080Y-93282977D01*
X153971080Y-93425834D01*
X153923461Y-93521072D01*
X153875842Y-93568691D01*
X153780604Y-93616310D01*
X153399651Y-93616310D01*
X154923461Y-94092501D02*
X154352032Y-94092501D01*
X154637746Y-94092501D02*
X154637746Y-93092501D01*
X154542508Y-93235358D01*
X154447270Y-93330596D01*
X154352032Y-93378215D01*
X155113937Y-94187739D02*
X155875842Y-94187739D01*
X156637747Y-94092501D02*
X156066318Y-94092501D01*
X156352032Y-94092501D02*
X156352032Y-93092501D01*
X156256794Y-93235358D01*
X156161556Y-93330596D01*
X156066318Y-93378215D01*
X157018699Y-93187739D02*
X157066318Y-93140120D01*
X157161556Y-93092501D01*
X157399652Y-93092501D01*
X157494890Y-93140120D01*
X157542509Y-93187739D01*
X157590128Y-93282977D01*
X157590128Y-93378215D01*
X157542509Y-93521072D01*
X156971080Y-94092501D01*
X157590128Y-94092501D01*
X139990920Y-87092261D02*
X139657586Y-86616070D01*
X139419491Y-87092261D02*
X139419491Y-86092261D01*
X139800444Y-86092261D01*
X139895682Y-86139880D01*
X139943301Y-86187499D01*
X139990920Y-86282737D01*
X139990920Y-86425594D01*
X139943301Y-86520832D01*
X139895682Y-86568451D01*
X139800444Y-86616070D01*
X139419491Y-86616070D01*
X140943301Y-87092261D02*
X140371872Y-87092261D01*
X140657586Y-87092261D02*
X140657586Y-86092261D01*
X140562348Y-86235118D01*
X140467110Y-86330356D01*
X140371872Y-86377975D01*
X141133777Y-87187499D02*
X141895682Y-87187499D01*
X142657587Y-87092261D02*
X142086158Y-87092261D01*
X142371872Y-87092261D02*
X142371872Y-86092261D01*
X142276634Y-86235118D01*
X142181396Y-86330356D01*
X142086158Y-86377975D01*
X143609968Y-87092261D02*
X143038539Y-87092261D01*
X143324253Y-87092261D02*
X143324253Y-86092261D01*
X143229015Y-86235118D01*
X143133777Y-86330356D01*
X143038539Y-86377975D01*
X125258920Y-87092261D02*
X124925586Y-86616070D01*
X124687491Y-87092261D02*
X124687491Y-86092261D01*
X125068444Y-86092261D01*
X125163682Y-86139880D01*
X125211301Y-86187499D01*
X125258920Y-86282737D01*
X125258920Y-86425594D01*
X125211301Y-86520832D01*
X125163682Y-86568451D01*
X125068444Y-86616070D01*
X124687491Y-86616070D01*
X126211301Y-87092261D02*
X125639872Y-87092261D01*
X125925586Y-87092261D02*
X125925586Y-86092261D01*
X125830348Y-86235118D01*
X125735110Y-86330356D01*
X125639872Y-86377975D01*
X126401777Y-87187499D02*
X127163682Y-87187499D01*
X127925587Y-87092261D02*
X127354158Y-87092261D01*
X127639872Y-87092261D02*
X127639872Y-86092261D01*
X127544634Y-86235118D01*
X127449396Y-86330356D01*
X127354158Y-86377975D01*
X128544634Y-86092261D02*
X128639873Y-86092261D01*
X128735111Y-86139880D01*
X128782730Y-86187499D01*
X128830349Y-86282737D01*
X128877968Y-86473213D01*
X128877968Y-86711309D01*
X128830349Y-86901785D01*
X128782730Y-86997023D01*
X128735111Y-87044642D01*
X128639873Y-87092261D01*
X128544634Y-87092261D01*
X128449396Y-87044642D01*
X128401777Y-86997023D01*
X128354158Y-86901785D01*
X128306539Y-86711309D01*
X128306539Y-86473213D01*
X128354158Y-86282737D01*
X128401777Y-86187499D01*
X128449396Y-86139880D01*
X128544634Y-86092261D01*
X111003111Y-87092261D02*
X110669777Y-86616070D01*
X110431682Y-87092261D02*
X110431682Y-86092261D01*
X110812635Y-86092261D01*
X110907873Y-86139880D01*
X110955492Y-86187499D01*
X111003111Y-86282737D01*
X111003111Y-86425594D01*
X110955492Y-86520832D01*
X110907873Y-86568451D01*
X110812635Y-86616070D01*
X110431682Y-86616070D01*
X111955492Y-87092261D02*
X111384063Y-87092261D01*
X111669777Y-87092261D02*
X111669777Y-86092261D01*
X111574539Y-86235118D01*
X111479301Y-86330356D01*
X111384063Y-86377975D01*
X112145968Y-87187499D02*
X112907873Y-87187499D01*
X113193587Y-87092261D02*
X113384063Y-87092261D01*
X113479302Y-87044642D01*
X113526921Y-86997023D01*
X113622159Y-86854166D01*
X113669778Y-86663690D01*
X113669778Y-86282737D01*
X113622159Y-86187499D01*
X113574540Y-86139880D01*
X113479302Y-86092261D01*
X113288825Y-86092261D01*
X113193587Y-86139880D01*
X113145968Y-86187499D01*
X113098349Y-86282737D01*
X113098349Y-86520832D01*
X113145968Y-86616070D01*
X113193587Y-86663690D01*
X113288825Y-86711309D01*
X113479302Y-86711309D01*
X113574540Y-86663690D01*
X113622159Y-86616070D01*
X113669778Y-86520832D01*
X97033111Y-87092261D02*
X96699777Y-86616070D01*
X96461682Y-87092261D02*
X96461682Y-86092261D01*
X96842635Y-86092261D01*
X96937873Y-86139880D01*
X96985492Y-86187499D01*
X97033111Y-86282737D01*
X97033111Y-86425594D01*
X96985492Y-86520832D01*
X96937873Y-86568451D01*
X96842635Y-86616070D01*
X96461682Y-86616070D01*
X97985492Y-87092261D02*
X97414063Y-87092261D01*
X97699777Y-87092261D02*
X97699777Y-86092261D01*
X97604539Y-86235118D01*
X97509301Y-86330356D01*
X97414063Y-86377975D01*
X98175968Y-87187499D02*
X98937873Y-87187499D01*
X99318825Y-86520832D02*
X99223587Y-86473213D01*
X99175968Y-86425594D01*
X99128349Y-86330356D01*
X99128349Y-86282737D01*
X99175968Y-86187499D01*
X99223587Y-86139880D01*
X99318825Y-86092261D01*
X99509302Y-86092261D01*
X99604540Y-86139880D01*
X99652159Y-86187499D01*
X99699778Y-86282737D01*
X99699778Y-86330356D01*
X99652159Y-86425594D01*
X99604540Y-86473213D01*
X99509302Y-86520832D01*
X99318825Y-86520832D01*
X99223587Y-86568451D01*
X99175968Y-86616070D01*
X99128349Y-86711309D01*
X99128349Y-86901785D01*
X99175968Y-86997023D01*
X99223587Y-87044642D01*
X99318825Y-87092261D01*
X99509302Y-87092261D01*
X99604540Y-87044642D01*
X99652159Y-86997023D01*
X99699778Y-86901785D01*
X99699778Y-86711309D01*
X99652159Y-86616070D01*
X99604540Y-86568451D01*
X99509302Y-86520832D01*
X198379111Y-96490261D02*
X198045777Y-96014070D01*
X197807682Y-96490261D02*
X197807682Y-95490261D01*
X198188635Y-95490261D01*
X198283873Y-95537880D01*
X198331492Y-95585499D01*
X198379111Y-95680737D01*
X198379111Y-95823594D01*
X198331492Y-95918832D01*
X198283873Y-95966451D01*
X198188635Y-96014070D01*
X197807682Y-96014070D01*
X198760063Y-95585499D02*
X198807682Y-95537880D01*
X198902920Y-95490261D01*
X199141016Y-95490261D01*
X199236254Y-95537880D01*
X199283873Y-95585499D01*
X199331492Y-95680737D01*
X199331492Y-95775975D01*
X199283873Y-95918832D01*
X198712444Y-96490261D01*
X199331492Y-96490261D01*
X199521968Y-96585499D02*
X200283873Y-96585499D01*
X200426730Y-95490261D02*
X201093397Y-95490261D01*
X200664825Y-96490261D01*
X183647111Y-96490261D02*
X183313777Y-96014070D01*
X183075682Y-96490261D02*
X183075682Y-95490261D01*
X183456635Y-95490261D01*
X183551873Y-95537880D01*
X183599492Y-95585499D01*
X183647111Y-95680737D01*
X183647111Y-95823594D01*
X183599492Y-95918832D01*
X183551873Y-95966451D01*
X183456635Y-96014070D01*
X183075682Y-96014070D01*
X184028063Y-95585499D02*
X184075682Y-95537880D01*
X184170920Y-95490261D01*
X184409016Y-95490261D01*
X184504254Y-95537880D01*
X184551873Y-95585499D01*
X184599492Y-95680737D01*
X184599492Y-95775975D01*
X184551873Y-95918832D01*
X183980444Y-96490261D01*
X184599492Y-96490261D01*
X184789968Y-96585499D02*
X185551873Y-96585499D01*
X186218540Y-95490261D02*
X186028063Y-95490261D01*
X185932825Y-95537880D01*
X185885206Y-95585499D01*
X185789968Y-95728356D01*
X185742349Y-95918832D01*
X185742349Y-96299785D01*
X185789968Y-96395023D01*
X185837587Y-96442642D01*
X185932825Y-96490261D01*
X186123302Y-96490261D01*
X186218540Y-96442642D01*
X186266159Y-96395023D01*
X186313778Y-96299785D01*
X186313778Y-96061690D01*
X186266159Y-95966451D01*
X186218540Y-95918832D01*
X186123302Y-95871213D01*
X185932825Y-95871213D01*
X185837587Y-95918832D01*
X185789968Y-95966451D01*
X185742349Y-96061690D01*
X169169111Y-96490261D02*
X168835777Y-96014070D01*
X168597682Y-96490261D02*
X168597682Y-95490261D01*
X168978635Y-95490261D01*
X169073873Y-95537880D01*
X169121492Y-95585499D01*
X169169111Y-95680737D01*
X169169111Y-95823594D01*
X169121492Y-95918832D01*
X169073873Y-95966451D01*
X168978635Y-96014070D01*
X168597682Y-96014070D01*
X169550063Y-95585499D02*
X169597682Y-95537880D01*
X169692920Y-95490261D01*
X169931016Y-95490261D01*
X170026254Y-95537880D01*
X170073873Y-95585499D01*
X170121492Y-95680737D01*
X170121492Y-95775975D01*
X170073873Y-95918832D01*
X169502444Y-96490261D01*
X170121492Y-96490261D01*
X170311968Y-96585499D02*
X171073873Y-96585499D01*
X171788159Y-95490261D02*
X171311968Y-95490261D01*
X171264349Y-95966451D01*
X171311968Y-95918832D01*
X171407206Y-95871213D01*
X171645302Y-95871213D01*
X171740540Y-95918832D01*
X171788159Y-95966451D01*
X171835778Y-96061690D01*
X171835778Y-96299785D01*
X171788159Y-96395023D01*
X171740540Y-96442642D01*
X171645302Y-96490261D01*
X171407206Y-96490261D01*
X171311968Y-96442642D01*
X171264349Y-96395023D01*
X154691111Y-96490261D02*
X154357777Y-96014070D01*
X154119682Y-96490261D02*
X154119682Y-95490261D01*
X154500635Y-95490261D01*
X154595873Y-95537880D01*
X154643492Y-95585499D01*
X154691111Y-95680737D01*
X154691111Y-95823594D01*
X154643492Y-95918832D01*
X154595873Y-95966451D01*
X154500635Y-96014070D01*
X154119682Y-96014070D01*
X155072063Y-95585499D02*
X155119682Y-95537880D01*
X155214920Y-95490261D01*
X155453016Y-95490261D01*
X155548254Y-95537880D01*
X155595873Y-95585499D01*
X155643492Y-95680737D01*
X155643492Y-95775975D01*
X155595873Y-95918832D01*
X155024444Y-96490261D01*
X155643492Y-96490261D01*
X155833968Y-96585499D02*
X156595873Y-96585499D01*
X157262540Y-95823594D02*
X157262540Y-96490261D01*
X157024444Y-95442642D02*
X156786349Y-96156928D01*
X157405397Y-96156928D01*
X140213111Y-96490261D02*
X139879777Y-96014070D01*
X139641682Y-96490261D02*
X139641682Y-95490261D01*
X140022635Y-95490261D01*
X140117873Y-95537880D01*
X140165492Y-95585499D01*
X140213111Y-95680737D01*
X140213111Y-95823594D01*
X140165492Y-95918832D01*
X140117873Y-95966451D01*
X140022635Y-96014070D01*
X139641682Y-96014070D01*
X140594063Y-95585499D02*
X140641682Y-95537880D01*
X140736920Y-95490261D01*
X140975016Y-95490261D01*
X141070254Y-95537880D01*
X141117873Y-95585499D01*
X141165492Y-95680737D01*
X141165492Y-95775975D01*
X141117873Y-95918832D01*
X140546444Y-96490261D01*
X141165492Y-96490261D01*
X141355968Y-96585499D02*
X142117873Y-96585499D01*
X142260730Y-95490261D02*
X142879778Y-95490261D01*
X142546444Y-95871213D01*
X142689302Y-95871213D01*
X142784540Y-95918832D01*
X142832159Y-95966451D01*
X142879778Y-96061690D01*
X142879778Y-96299785D01*
X142832159Y-96395023D01*
X142784540Y-96442642D01*
X142689302Y-96490261D01*
X142403587Y-96490261D01*
X142308349Y-96442642D01*
X142260730Y-96395023D01*
X125989111Y-96490261D02*
X125655777Y-96014070D01*
X125417682Y-96490261D02*
X125417682Y-95490261D01*
X125798635Y-95490261D01*
X125893873Y-95537880D01*
X125941492Y-95585499D01*
X125989111Y-95680737D01*
X125989111Y-95823594D01*
X125941492Y-95918832D01*
X125893873Y-95966451D01*
X125798635Y-96014070D01*
X125417682Y-96014070D01*
X126370063Y-95585499D02*
X126417682Y-95537880D01*
X126512920Y-95490261D01*
X126751016Y-95490261D01*
X126846254Y-95537880D01*
X126893873Y-95585499D01*
X126941492Y-95680737D01*
X126941492Y-95775975D01*
X126893873Y-95918832D01*
X126322444Y-96490261D01*
X126941492Y-96490261D01*
X127131968Y-96585499D02*
X127893873Y-96585499D01*
X128084349Y-95585499D02*
X128131968Y-95537880D01*
X128227206Y-95490261D01*
X128465302Y-95490261D01*
X128560540Y-95537880D01*
X128608159Y-95585499D01*
X128655778Y-95680737D01*
X128655778Y-95775975D01*
X128608159Y-95918832D01*
X128036730Y-96490261D01*
X128655778Y-96490261D01*
X111511111Y-96490261D02*
X111177777Y-96014070D01*
X110939682Y-96490261D02*
X110939682Y-95490261D01*
X111320635Y-95490261D01*
X111415873Y-95537880D01*
X111463492Y-95585499D01*
X111511111Y-95680737D01*
X111511111Y-95823594D01*
X111463492Y-95918832D01*
X111415873Y-95966451D01*
X111320635Y-96014070D01*
X110939682Y-96014070D01*
X111892063Y-95585499D02*
X111939682Y-95537880D01*
X112034920Y-95490261D01*
X112273016Y-95490261D01*
X112368254Y-95537880D01*
X112415873Y-95585499D01*
X112463492Y-95680737D01*
X112463492Y-95775975D01*
X112415873Y-95918832D01*
X111844444Y-96490261D01*
X112463492Y-96490261D01*
X112653968Y-96585499D02*
X113415873Y-96585499D01*
X114177778Y-96490261D02*
X113606349Y-96490261D01*
X113892063Y-96490261D02*
X113892063Y-95490261D01*
X113796825Y-95633118D01*
X113701587Y-95728356D01*
X113606349Y-95775975D01*
X96535271Y-103490501D02*
X96201937Y-103014310D01*
X95963842Y-103490501D02*
X95963842Y-102490501D01*
X96344795Y-102490501D01*
X96440033Y-102538120D01*
X96487652Y-102585739D01*
X96535271Y-102680977D01*
X96535271Y-102823834D01*
X96487652Y-102919072D01*
X96440033Y-102966691D01*
X96344795Y-103014310D01*
X95963842Y-103014310D01*
X96916223Y-102585739D02*
X96963842Y-102538120D01*
X97059080Y-102490501D01*
X97297176Y-102490501D01*
X97392414Y-102538120D01*
X97440033Y-102585739D01*
X97487652Y-102680977D01*
X97487652Y-102776215D01*
X97440033Y-102919072D01*
X96868604Y-103490501D01*
X97487652Y-103490501D01*
X97678128Y-103585739D02*
X98440033Y-103585739D01*
X98868604Y-102490501D02*
X98963843Y-102490501D01*
X99059081Y-102538120D01*
X99106700Y-102585739D01*
X99154319Y-102680977D01*
X99201938Y-102871453D01*
X99201938Y-103109549D01*
X99154319Y-103300025D01*
X99106700Y-103395263D01*
X99059081Y-103442882D01*
X98963843Y-103490501D01*
X98868604Y-103490501D01*
X98773366Y-103442882D01*
X98725747Y-103395263D01*
X98678128Y-103300025D01*
X98630509Y-103109549D01*
X98630509Y-102871453D01*
X98678128Y-102680977D01*
X98725747Y-102585739D01*
X98773366Y-102538120D01*
X98868604Y-102490501D01*
X198125111Y-127732261D02*
X197791777Y-127256070D01*
X197553682Y-127732261D02*
X197553682Y-126732261D01*
X197934635Y-126732261D01*
X198029873Y-126779880D01*
X198077492Y-126827499D01*
X198125111Y-126922737D01*
X198125111Y-127065594D01*
X198077492Y-127160832D01*
X198029873Y-127208451D01*
X197934635Y-127256070D01*
X197553682Y-127256070D01*
X199077492Y-127732261D02*
X198506063Y-127732261D01*
X198791777Y-127732261D02*
X198791777Y-126732261D01*
X198696539Y-126875118D01*
X198601301Y-126970356D01*
X198506063Y-127017975D01*
X199267968Y-127827499D02*
X200029873Y-127827499D01*
X200172730Y-126732261D02*
X200839397Y-126732261D01*
X200410825Y-127732261D01*
X183647111Y-127732261D02*
X183313777Y-127256070D01*
X183075682Y-127732261D02*
X183075682Y-126732261D01*
X183456635Y-126732261D01*
X183551873Y-126779880D01*
X183599492Y-126827499D01*
X183647111Y-126922737D01*
X183647111Y-127065594D01*
X183599492Y-127160832D01*
X183551873Y-127208451D01*
X183456635Y-127256070D01*
X183075682Y-127256070D01*
X184599492Y-127732261D02*
X184028063Y-127732261D01*
X184313777Y-127732261D02*
X184313777Y-126732261D01*
X184218539Y-126875118D01*
X184123301Y-126970356D01*
X184028063Y-127017975D01*
X184789968Y-127827499D02*
X185551873Y-127827499D01*
X186218540Y-126732261D02*
X186028063Y-126732261D01*
X185932825Y-126779880D01*
X185885206Y-126827499D01*
X185789968Y-126970356D01*
X185742349Y-127160832D01*
X185742349Y-127541785D01*
X185789968Y-127637023D01*
X185837587Y-127684642D01*
X185932825Y-127732261D01*
X186123302Y-127732261D01*
X186218540Y-127684642D01*
X186266159Y-127637023D01*
X186313778Y-127541785D01*
X186313778Y-127303690D01*
X186266159Y-127208451D01*
X186218540Y-127160832D01*
X186123302Y-127113213D01*
X185932825Y-127113213D01*
X185837587Y-127160832D01*
X185789968Y-127208451D01*
X185742349Y-127303690D01*
X168671271Y-134732501D02*
X168337937Y-134256310D01*
X168099842Y-134732501D02*
X168099842Y-133732501D01*
X168480795Y-133732501D01*
X168576033Y-133780120D01*
X168623652Y-133827739D01*
X168671271Y-133922977D01*
X168671271Y-134065834D01*
X168623652Y-134161072D01*
X168576033Y-134208691D01*
X168480795Y-134256310D01*
X168099842Y-134256310D01*
X169623652Y-134732501D02*
X169052223Y-134732501D01*
X169337937Y-134732501D02*
X169337937Y-133732501D01*
X169242699Y-133875358D01*
X169147461Y-133970596D01*
X169052223Y-134018215D01*
X169814128Y-134827739D02*
X170576033Y-134827739D01*
X171290319Y-133732501D02*
X170814128Y-133732501D01*
X170766509Y-134208691D01*
X170814128Y-134161072D01*
X170909366Y-134113453D01*
X171147462Y-134113453D01*
X171242700Y-134161072D01*
X171290319Y-134208691D01*
X171337938Y-134303930D01*
X171337938Y-134542025D01*
X171290319Y-134637263D01*
X171242700Y-134684882D01*
X171147462Y-134732501D01*
X170909366Y-134732501D01*
X170814128Y-134684882D01*
X170766509Y-134637263D01*
X154193271Y-134732501D02*
X153859937Y-134256310D01*
X153621842Y-134732501D02*
X153621842Y-133732501D01*
X154002795Y-133732501D01*
X154098033Y-133780120D01*
X154145652Y-133827739D01*
X154193271Y-133922977D01*
X154193271Y-134065834D01*
X154145652Y-134161072D01*
X154098033Y-134208691D01*
X154002795Y-134256310D01*
X153621842Y-134256310D01*
X155145652Y-134732501D02*
X154574223Y-134732501D01*
X154859937Y-134732501D02*
X154859937Y-133732501D01*
X154764699Y-133875358D01*
X154669461Y-133970596D01*
X154574223Y-134018215D01*
X155336128Y-134827739D02*
X156098033Y-134827739D01*
X156764700Y-134065834D02*
X156764700Y-134732501D01*
X156526604Y-133684882D02*
X156288509Y-134399168D01*
X156907557Y-134399168D01*
X139715271Y-134732501D02*
X139381937Y-134256310D01*
X139143842Y-134732501D02*
X139143842Y-133732501D01*
X139524795Y-133732501D01*
X139620033Y-133780120D01*
X139667652Y-133827739D01*
X139715271Y-133922977D01*
X139715271Y-134065834D01*
X139667652Y-134161072D01*
X139620033Y-134208691D01*
X139524795Y-134256310D01*
X139143842Y-134256310D01*
X140667652Y-134732501D02*
X140096223Y-134732501D01*
X140381937Y-134732501D02*
X140381937Y-133732501D01*
X140286699Y-133875358D01*
X140191461Y-133970596D01*
X140096223Y-134018215D01*
X140858128Y-134827739D02*
X141620033Y-134827739D01*
X141762890Y-133732501D02*
X142381938Y-133732501D01*
X142048604Y-134113453D01*
X142191462Y-134113453D01*
X142286700Y-134161072D01*
X142334319Y-134208691D01*
X142381938Y-134303930D01*
X142381938Y-134542025D01*
X142334319Y-134637263D01*
X142286700Y-134684882D01*
X142191462Y-134732501D01*
X141905747Y-134732501D01*
X141810509Y-134684882D01*
X141762890Y-134637263D01*
X125237271Y-134732501D02*
X124903937Y-134256310D01*
X124665842Y-134732501D02*
X124665842Y-133732501D01*
X125046795Y-133732501D01*
X125142033Y-133780120D01*
X125189652Y-133827739D01*
X125237271Y-133922977D01*
X125237271Y-134065834D01*
X125189652Y-134161072D01*
X125142033Y-134208691D01*
X125046795Y-134256310D01*
X124665842Y-134256310D01*
X126189652Y-134732501D02*
X125618223Y-134732501D01*
X125903937Y-134732501D02*
X125903937Y-133732501D01*
X125808699Y-133875358D01*
X125713461Y-133970596D01*
X125618223Y-134018215D01*
X126380128Y-134827739D02*
X127142033Y-134827739D01*
X127332509Y-133827739D02*
X127380128Y-133780120D01*
X127475366Y-133732501D01*
X127713462Y-133732501D01*
X127808700Y-133780120D01*
X127856319Y-133827739D01*
X127903938Y-133922977D01*
X127903938Y-134018215D01*
X127856319Y-134161072D01*
X127284890Y-134732501D01*
X127903938Y-134732501D01*
X110759271Y-134732501D02*
X110425937Y-134256310D01*
X110187842Y-134732501D02*
X110187842Y-133732501D01*
X110568795Y-133732501D01*
X110664033Y-133780120D01*
X110711652Y-133827739D01*
X110759271Y-133922977D01*
X110759271Y-134065834D01*
X110711652Y-134161072D01*
X110664033Y-134208691D01*
X110568795Y-134256310D01*
X110187842Y-134256310D01*
X111711652Y-134732501D02*
X111140223Y-134732501D01*
X111425937Y-134732501D02*
X111425937Y-133732501D01*
X111330699Y-133875358D01*
X111235461Y-133970596D01*
X111140223Y-134018215D01*
X111902128Y-134827739D02*
X112664033Y-134827739D01*
X113425938Y-134732501D02*
X112854509Y-134732501D01*
X113140223Y-134732501D02*
X113140223Y-133732501D01*
X113044985Y-133875358D01*
X112949747Y-133970596D01*
X112854509Y-134018215D01*
X96535271Y-134732501D02*
X96201937Y-134256310D01*
X95963842Y-134732501D02*
X95963842Y-133732501D01*
X96344795Y-133732501D01*
X96440033Y-133780120D01*
X96487652Y-133827739D01*
X96535271Y-133922977D01*
X96535271Y-134065834D01*
X96487652Y-134161072D01*
X96440033Y-134208691D01*
X96344795Y-134256310D01*
X95963842Y-134256310D01*
X97487652Y-134732501D02*
X96916223Y-134732501D01*
X97201937Y-134732501D02*
X97201937Y-133732501D01*
X97106699Y-133875358D01*
X97011461Y-133970596D01*
X96916223Y-134018215D01*
X97678128Y-134827739D02*
X98440033Y-134827739D01*
X98868604Y-133732501D02*
X98963843Y-133732501D01*
X99059081Y-133780120D01*
X99106700Y-133827739D01*
X99154319Y-133922977D01*
X99201938Y-134113453D01*
X99201938Y-134351549D01*
X99154319Y-134542025D01*
X99106700Y-134637263D01*
X99059081Y-134684882D01*
X98963843Y-134732501D01*
X98868604Y-134732501D01*
X98773366Y-134684882D01*
X98725747Y-134637263D01*
X98678128Y-134542025D01*
X98630509Y-134351549D01*
X98630509Y-134113453D01*
X98678128Y-133922977D01*
X98725747Y-133827739D01*
X98773366Y-133780120D01*
X98868604Y-133732501D01*
M02*
