G04 #@! TF.FileFunction,Other,ECO1*
%FSLAX46Y46*%
G04 Gerber Fmt 4.6, Leading zero omitted, Abs format (unit mm)*
G04 Created by KiCad (PCBNEW 0.201508280901+6131~28~ubuntu14.04.1-product) date Tue 27 Oct 2015 10:11:57 AM COT*
%MOMM*%
G01*
G04 APERTURE LIST*
%ADD10C,0.100000*%
%ADD11C,0.200000*%
G04 APERTURE END LIST*
D10*
D11*
X202170000Y-118820000D02*
X202170000Y-118850000D01*
X196030000Y-118820000D02*
X202170000Y-118820000D01*
X202170000Y-111720000D02*
X202170000Y-111690000D01*
X196030000Y-111720000D02*
X202170000Y-111720000D01*
X187660000Y-118840000D02*
X187660000Y-118820000D01*
X181510000Y-118840000D02*
X187660000Y-118840000D01*
X187660000Y-111720000D02*
X187660000Y-111730000D01*
X181510000Y-111720000D02*
X187660000Y-111720000D01*
X173130000Y-118840000D02*
X173130000Y-118920000D01*
X167000000Y-118840000D02*
X173130000Y-118840000D01*
X173140000Y-111740000D02*
X173140000Y-111700000D01*
X167000000Y-111740000D02*
X173140000Y-111740000D01*
X158620000Y-118850000D02*
X158620000Y-118840000D01*
X152480000Y-118850000D02*
X158620000Y-118850000D01*
X158620000Y-111710000D02*
X158620000Y-111690000D01*
X152480000Y-111710000D02*
X158620000Y-111710000D01*
X144100000Y-118840000D02*
X144100000Y-118860000D01*
X137960000Y-118840000D02*
X144100000Y-118840000D01*
X144110000Y-111700000D02*
X144110000Y-111720000D01*
X137960000Y-111700000D02*
X144110000Y-111700000D01*
X123440000Y-118820000D02*
X129590000Y-118820000D01*
X129580000Y-111720000D02*
X129580000Y-111800000D01*
X123440000Y-111720000D02*
X129580000Y-111720000D01*
X115070000Y-118820000D02*
X115070000Y-118890000D01*
X108920000Y-118820000D02*
X115070000Y-118820000D01*
X115070000Y-111720000D02*
X115070000Y-111790000D01*
X108930000Y-111720000D02*
X115070000Y-111720000D01*
X94740000Y-118850000D02*
X100880000Y-118850000D01*
X94740000Y-111720000D02*
X100880000Y-111720000D01*
X202220000Y-77940000D02*
X202220000Y-78000000D01*
X196080000Y-77940000D02*
X202220000Y-77940000D01*
X202220000Y-70810000D02*
X202220000Y-70750000D01*
X196080000Y-70810000D02*
X202220000Y-70810000D01*
X187750000Y-77940000D02*
X187750000Y-77930000D01*
X181610000Y-77940000D02*
X187750000Y-77940000D01*
X187750000Y-70820000D02*
X187750000Y-70840000D01*
X181610000Y-70820000D02*
X187750000Y-70820000D01*
X173260000Y-77920000D02*
X173260000Y-77900000D01*
X167120000Y-77920000D02*
X173260000Y-77920000D01*
X173280000Y-70830000D02*
X173280000Y-70820000D01*
X167130000Y-70830000D02*
X173280000Y-70830000D01*
X152650000Y-77950000D02*
X158790000Y-77950000D01*
X158790000Y-70810000D02*
X158790000Y-70860000D01*
X152650000Y-70810000D02*
X158790000Y-70810000D01*
X138170000Y-77940000D02*
X144310000Y-77940000D01*
X144310000Y-70810000D02*
X144310000Y-70800000D01*
X138170000Y-70810000D02*
X144310000Y-70810000D01*
X129840000Y-70820000D02*
X129840000Y-70830000D01*
X123690000Y-70820000D02*
X129840000Y-70820000D01*
X115360000Y-77940000D02*
X115360000Y-77960000D01*
X109220000Y-77940000D02*
X115360000Y-77940000D01*
X115360000Y-70820000D02*
X115360000Y-70840000D01*
X109220000Y-70820000D02*
X115360000Y-70820000D01*
X100880000Y-77940000D02*
X100880000Y-77950000D01*
X94740000Y-77940000D02*
X100880000Y-77940000D01*
X94740000Y-70820000D02*
X100880000Y-70820000D01*
X129830000Y-77940000D02*
X129830000Y-77950000D01*
X123690000Y-77940000D02*
X129830000Y-77940000D01*
X93840000Y-114620000D02*
X93840000Y-115920000D01*
X93840000Y-114620000D02*
X101790000Y-114620000D01*
X101790000Y-114620000D02*
X101790000Y-115920000D01*
X101790000Y-115920000D02*
X93840000Y-115920000D01*
X115980000Y-115930000D02*
X108030000Y-115930000D01*
X115980000Y-114630000D02*
X115980000Y-115930000D01*
X108030000Y-114630000D02*
X115980000Y-114630000D01*
X108030000Y-114630000D02*
X108030000Y-115930000D01*
X137060000Y-114620000D02*
X137060000Y-115920000D01*
X137060000Y-114620000D02*
X145010000Y-114620000D01*
X145010000Y-114620000D02*
X145010000Y-115920000D01*
X145010000Y-115920000D02*
X137060000Y-115920000D01*
X130510000Y-115930000D02*
X122560000Y-115930000D01*
X130510000Y-114630000D02*
X130510000Y-115930000D01*
X122560000Y-114630000D02*
X130510000Y-114630000D01*
X122560000Y-114630000D02*
X122560000Y-115930000D01*
X180610000Y-114620000D02*
X180610000Y-115920000D01*
X180610000Y-114620000D02*
X188560000Y-114620000D01*
X188560000Y-114620000D02*
X188560000Y-115920000D01*
X188560000Y-115920000D02*
X180610000Y-115920000D01*
X203080000Y-115920000D02*
X195130000Y-115920000D01*
X203080000Y-114620000D02*
X203080000Y-115920000D01*
X195130000Y-114620000D02*
X203080000Y-114620000D01*
X195130000Y-114620000D02*
X195130000Y-115920000D01*
X166070000Y-114630000D02*
X166070000Y-115930000D01*
X166070000Y-114630000D02*
X174020000Y-114630000D01*
X174020000Y-114630000D02*
X174020000Y-115930000D01*
X174020000Y-115930000D02*
X166070000Y-115930000D01*
X159540000Y-115920000D02*
X151590000Y-115920000D01*
X159540000Y-114620000D02*
X159540000Y-115920000D01*
X151590000Y-114620000D02*
X159540000Y-114620000D01*
X151590000Y-114620000D02*
X151590000Y-115920000D01*
X151730000Y-73740000D02*
X151730000Y-75040000D01*
X151730000Y-73740000D02*
X159680000Y-73740000D01*
X159680000Y-73740000D02*
X159680000Y-75040000D01*
X159680000Y-75040000D02*
X151730000Y-75040000D01*
X174160000Y-75050000D02*
X166210000Y-75050000D01*
X174160000Y-73750000D02*
X174160000Y-75050000D01*
X166210000Y-73750000D02*
X174160000Y-73750000D01*
X166210000Y-73750000D02*
X166210000Y-75050000D01*
X195180000Y-73740000D02*
X195180000Y-75040000D01*
X195180000Y-73740000D02*
X203130000Y-73740000D01*
X203130000Y-73740000D02*
X203130000Y-75040000D01*
X203130000Y-75040000D02*
X195180000Y-75040000D01*
X188650000Y-75030000D02*
X180700000Y-75030000D01*
X188650000Y-73730000D02*
X188650000Y-75030000D01*
X180700000Y-73730000D02*
X188650000Y-73730000D01*
X180700000Y-73730000D02*
X180700000Y-75030000D01*
X122800000Y-73730000D02*
X122800000Y-75030000D01*
X122800000Y-73730000D02*
X130750000Y-73730000D01*
X130750000Y-73730000D02*
X130750000Y-75030000D01*
X130750000Y-75030000D02*
X122800000Y-75030000D01*
X145230000Y-75040000D02*
X137280000Y-75040000D01*
X145230000Y-73740000D02*
X145230000Y-75040000D01*
X137280000Y-73740000D02*
X145230000Y-73740000D01*
X137280000Y-73740000D02*
X137280000Y-75040000D01*
X108310000Y-73750000D02*
X108310000Y-75050000D01*
X108310000Y-73750000D02*
X116260000Y-73750000D01*
X116260000Y-73750000D02*
X116260000Y-75050000D01*
X116260000Y-75050000D02*
X108310000Y-75050000D01*
X101780000Y-75040000D02*
X93830000Y-75040000D01*
X101780000Y-73740000D02*
X101780000Y-75040000D01*
X93830000Y-73740000D02*
X101780000Y-73740000D01*
X93830000Y-73740000D02*
X93830000Y-75040000D01*
M02*
